<svg width="1024" height="768" viewBox="0 0 1024 768" fill="none" xmlns="http://www.w3.org/2000/svg">
<g clip-path="url(#clip0_495_14350)">
<line x1="10.4765" y1="0.234146" x2="10.4765" y2="763.234" stroke="#EDEFF3" stroke-width="0.564583"/>
<line x1="40.6715" y1="0.234146" x2="40.6714" y2="763.234" stroke="#EDEFF3" stroke-width="0.564583"/>
<line x1="70.8664" y1="0.234146" x2="70.8664" y2="763.234" stroke="#EDEFF3" stroke-width="0.564583"/>
<line x1="101.061" y1="0.234146" x2="101.061" y2="763.234" stroke="#EDEFF3" stroke-width="0.564583"/>
<line x1="131.256" y1="0.234146" x2="131.256" y2="763.234" stroke="#EDEFF3" stroke-width="0.564583"/>
<line x1="161.451" y1="0.234146" x2="161.451" y2="763.234" stroke="#EDEFF3" stroke-width="0.564583"/>
<line x1="191.646" y1="0.234146" x2="191.646" y2="763.234" stroke="#EDEFF3" stroke-width="0.564583"/>
<line x1="221.841" y1="0.234146" x2="221.841" y2="763.234" stroke="#EDEFF3" stroke-width="0.564583"/>
<line x1="252.036" y1="0.234146" x2="252.036" y2="763.234" stroke="#EDEFF3" stroke-width="0.564583"/>
<line x1="282.231" y1="0.234146" x2="282.231" y2="763.234" stroke="#EDEFF3" stroke-width="0.564583"/>
<line x1="312.426" y1="0.234146" x2="312.426" y2="763.234" stroke="#EDEFF3" stroke-width="0.564583"/>
<line x1="342.621" y1="0.234146" x2="342.621" y2="763.234" stroke="#EDEFF3" stroke-width="0.564583"/>
<line x1="372.816" y1="0.234146" x2="372.816" y2="763.234" stroke="#EDEFF3" stroke-width="0.564583"/>
<line x1="403.011" y1="0.234146" x2="403.011" y2="763.234" stroke="#EDEFF3" stroke-width="0.564583"/>
<line x1="433.206" y1="0.234146" x2="433.206" y2="763.234" stroke="#EDEFF3" stroke-width="0.564583"/>
<line x1="463.401" y1="0.234146" x2="463.401" y2="763.234" stroke="#EDEFF3" stroke-width="0.564583"/>
<line x1="493.596" y1="0.234146" x2="493.596" y2="763.234" stroke="#EDEFF3" stroke-width="0.564583"/>
<line x1="523.791" y1="0.234146" x2="523.791" y2="763.234" stroke="#EDEFF3" stroke-width="0.564583"/>
<line x1="553.986" y1="0.234146" x2="553.986" y2="763.234" stroke="#EDEFF3" stroke-width="0.564583"/>
<line x1="584.181" y1="0.234146" x2="584.181" y2="763.234" stroke="#EDEFF3" stroke-width="0.564583"/>
<line x1="614.376" y1="0.234146" x2="614.376" y2="763.234" stroke="#EDEFF3" stroke-width="0.564583"/>
<line x1="644.57" y1="0.234146" x2="644.57" y2="763.234" stroke="#EDEFF3" stroke-width="0.564583"/>
<line x1="674.765" y1="0.234146" x2="674.765" y2="763.234" stroke="#EDEFF3" stroke-width="0.564583"/>
<line x1="704.961" y1="0.234146" x2="704.961" y2="763.234" stroke="#EDEFF3" stroke-width="0.564583"/>
<line x1="735.155" y1="0.234146" x2="735.155" y2="763.234" stroke="#EDEFF3" stroke-width="0.564583"/>
<line x1="765.35" y1="0.234146" x2="765.35" y2="763.234" stroke="#EDEFF3" stroke-width="0.564583"/>
<line x1="795.545" y1="0.234146" x2="795.545" y2="763.234" stroke="#EDEFF3" stroke-width="0.564583"/>
<line x1="825.74" y1="0.234146" x2="825.74" y2="763.234" stroke="#EDEFF3" stroke-width="0.564583"/>
<line x1="855.935" y1="0.234146" x2="855.935" y2="763.234" stroke="#EDEFF3" stroke-width="0.564583"/>
<line x1="886.13" y1="0.234146" x2="886.13" y2="763.234" stroke="#EDEFF3" stroke-width="0.564583"/>
<line x1="916.325" y1="0.234146" x2="916.325" y2="763.234" stroke="#EDEFF3" stroke-width="0.564583"/>
<line x1="946.52" y1="0.234146" x2="946.52" y2="763.234" stroke="#EDEFF3" stroke-width="0.564583"/>
<line x1="976.715" y1="0.234146" x2="976.715" y2="763.234" stroke="#EDEFF3" stroke-width="0.564583"/>
<line x1="1006.91" y1="0.234146" x2="1006.91" y2="763.234" stroke="#EDEFF3" stroke-width="0.564583"/>
<line x1="1067.02" y1="0.516308" x2="-19.9993" y2="0.516213" stroke="#EDEFF3" stroke-width="0.564583"/>
<line x1="1067.02" y1="30.6966" x2="-19.9993" y2="30.6965" stroke="#EDEFF3" stroke-width="0.564583"/>
<line x1="1067.02" y1="60.8769" x2="-19.9993" y2="60.8768" stroke="#EDEFF3" stroke-width="0.564583"/>
<line x1="1067.02" y1="91.0573" x2="-19.9993" y2="91.0572" stroke="#EDEFF3" stroke-width="0.564583"/>
<line x1="1067.02" y1="121.238" x2="-19.9993" y2="121.237" stroke="#EDEFF3" stroke-width="0.564583"/>
<line x1="1067.02" y1="151.418" x2="-19.9993" y2="151.418" stroke="#EDEFF3" stroke-width="0.564583"/>
<line x1="1067.02" y1="181.598" x2="-19.9993" y2="181.598" stroke="#EDEFF3" stroke-width="0.564583"/>
<line x1="1067.02" y1="211.779" x2="-19.9993" y2="211.779" stroke="#EDEFF3" stroke-width="0.564583"/>
<line x1="1067.02" y1="241.959" x2="-19.9993" y2="241.959" stroke="#EDEFF3" stroke-width="0.564583"/>
<line x1="1067.02" y1="272.139" x2="-19.9993" y2="272.139" stroke="#EDEFF3" stroke-width="0.564583"/>
<line x1="1067.02" y1="302.32" x2="-19.9993" y2="302.32" stroke="#EDEFF3" stroke-width="0.564583"/>
<line x1="1067.02" y1="332.5" x2="-19.9993" y2="332.5" stroke="#EDEFF3" stroke-width="0.564583"/>
<line x1="1067.02" y1="362.68" x2="-19.9993" y2="362.68" stroke="#EDEFF3" stroke-width="0.564583"/>
<line x1="1067.02" y1="392.861" x2="-19.9993" y2="392.861" stroke="#EDEFF3" stroke-width="0.564583"/>
<line x1="1067.02" y1="423.041" x2="-19.9993" y2="423.041" stroke="#EDEFF3" stroke-width="0.564583"/>
<line x1="1067.02" y1="453.221" x2="-19.9993" y2="453.221" stroke="#EDEFF3" stroke-width="0.564583"/>
<line x1="1067.02" y1="483.402" x2="-19.9993" y2="483.402" stroke="#EDEFF3" stroke-width="0.564583"/>
<line x1="1067.02" y1="513.582" x2="-19.9993" y2="513.582" stroke="#EDEFF3" stroke-width="0.564583"/>
<line x1="1067.02" y1="543.762" x2="-19.9993" y2="543.762" stroke="#EDEFF3" stroke-width="0.564583"/>
<line x1="1067.02" y1="573.943" x2="-19.9993" y2="573.943" stroke="#EDEFF3" stroke-width="0.564583"/>
<line x1="1067.02" y1="604.123" x2="-19.9993" y2="604.123" stroke="#EDEFF3" stroke-width="0.564583"/>
<line x1="1067.02" y1="634.303" x2="-19.9993" y2="634.303" stroke="#EDEFF3" stroke-opacity="0.75" stroke-width="0.564583"/>
<line x1="1067.02" y1="664.484" x2="-19.9993" y2="664.484" stroke="#EDEFF3" stroke-opacity="0.75" stroke-width="0.564583"/>
<line x1="1067.02" y1="694.664" x2="-19.9993" y2="694.664" stroke="#EDEFF3" stroke-opacity="0.75" stroke-width="0.564583"/>
<line x1="1067.02" y1="724.844" x2="-19.9993" y2="724.844" stroke="#EDEFF3" stroke-opacity="0.75" stroke-width="0.564583"/>
<line x1="1067.02" y1="755.025" x2="-19.9993" y2="755.025" stroke="#EDEFF3" stroke-width="0.564583"/>
<rect x="70.5861" y="30.7911" width="30.0062" height="29.9917" fill="#F2F3F5"/>
<rect x="161.17" y="151.325" width="30.0062" height="29.9917" fill="#F2F3F5"/>
<rect x="251.754" y="211.873" width="30.0062" height="29.9917" fill="#F2F3F5"/>
<rect x="946.429" y="60.7826" width="30.0062" height="29.9917" fill="#F2F3F5"/>
<rect x="855.842" y="120.766" width="30.0062" height="29.9917" fill="#F2F3F5"/>
<path d="M915.855 211.872H945.861V241.864H915.855V211.872Z" fill="#F2F3F5"/>
<rect x="795.265" y="271.857" width="30.0062" height="29.9917" fill="#F2F3F5"/>
<rect x="885.849" y="332.406" width="30.0062" height="29.9917" fill="#F2F3F5"/>
<rect x="976.431" y="392.956" width="30.0062" height="29.9917" fill="#F2F3F5"/>
<rect x="855.842" y="543.479" width="30.0062" height="29.9917" fill="#F2F3F5"/>
<rect x="70.5861" y="332.406" width="30.0062" height="29.9917" fill="#F2F3F5"/>
<rect x="161.17" y="392.956" width="30.0062" height="29.9917" fill="#F2F3F5"/>
<rect x="40.578" y="482.929" width="30.0062" height="29.9917" fill="#F2F3F5"/>
<rect x="-20.0004" y="574.037" width="30.0062" height="29.9917" fill="#F2F3F5"/>
<rect x="251.754" y="332.406" width="30.0062" height="29.9917" fill="#F2F3F5"/>
</g>
<defs>
<clipPath id="clip0_495_14350">
<rect width="1084" height="768" fill="white" transform="translate(-20)"/>
</clipPath>
</defs>
</svg>
