<svg width="24" height="25" viewBox="0 0 24 25" fill="none" xmlns="http://www.w3.org/2000/svg">
<g clip-path="url(#clip0_495_3840)">
<path d="M14.25 4.77246C15.5114 5.10464 16.6621 5.76566 17.5844 6.68803C18.5068 7.61039 19.1678 8.76104 19.5 10.0225" stroke="#888888" stroke-width="1.5" stroke-linecap="round" stroke-linejoin="round"/>
<path d="M13.5 7.77246C15.0488 8.18684 16.0856 9.22371 16.5 10.7725" stroke="#888888" stroke-width="1.5" stroke-linecap="round" stroke-linejoin="round"/>
<path d="M14.6616 14.6477C14.7654 14.5786 14.8849 14.5365 15.0091 14.5252C15.1334 14.5139 15.2585 14.5338 15.3731 14.583L19.7944 16.5639C19.9434 16.6276 20.0677 16.7379 20.1489 16.8781C20.23 17.0184 20.2635 17.1812 20.2444 17.3421C20.0987 18.4306 19.5627 19.4291 18.736 20.152C17.9093 20.8749 16.8482 21.2729 15.75 21.2721C12.3685 21.2721 9.12548 19.9288 6.73439 17.5377C4.3433 15.1466 3 11.9036 3 8.52207C2.99916 7.42389 3.3972 6.36278 4.12009 5.53607C4.84298 4.70937 5.84152 4.17335 6.93 4.0277C7.09091 4.00858 7.25368 4.04209 7.39395 4.12321C7.53422 4.20433 7.64444 4.3287 7.70813 4.4777L9.68906 8.9027C9.73774 9.01635 9.75756 9.14027 9.74676 9.26344C9.73596 9.3866 9.69489 9.50518 9.62719 9.60864L7.62375 11.9908C7.55269 12.0981 7.51066 12.2219 7.50179 12.3502C7.49291 12.4786 7.51749 12.607 7.57313 12.723C8.34844 14.3102 9.98906 15.9311 11.5809 16.6989C11.6975 16.7543 11.8266 16.7784 11.9553 16.7687C12.084 16.759 12.208 16.7159 12.315 16.6436L14.6616 14.6477Z" stroke="#888888" stroke-width="1.5" stroke-linecap="round" stroke-linejoin="round"/>
</g>
<defs>
<clipPath id="clip0_495_3840">
<rect width="24" height="24" fill="white" transform="translate(0 0.272461)"/>
</clipPath>
</defs>
</svg>
