<svg width="230" height="108" viewBox="0 0 230 108" fill="none" xmlns="http://www.w3.org/2000/svg">
<path d="M62.8241 106.203C62.8241 106.794 62.3473 107.273 61.7593 107.273C61.1712 107.273 60.6944 106.794 60.6944 106.203C60.6944 105.612 61.1712 105.133 61.7593 105.133C62.3473 105.133 62.8241 105.612 62.8241 106.203Z" fill="#707070"/>
<path d="M62.8241 91.2234C62.8241 91.8144 62.3473 92.2934 61.7593 92.2934C61.1712 92.2934 60.6944 91.8144 60.6944 91.2234C60.6944 90.6325 61.1712 90.1534 61.7593 90.1534C62.3473 90.1534 62.8241 90.6325 62.8241 91.2234Z" fill="#707070"/>
<path d="M77.7315 106.203C77.7315 106.794 77.2547 107.273 76.6667 107.273C76.0786 107.273 75.6019 106.794 75.6019 106.203C75.6019 105.612 76.0786 105.133 76.6667 105.133C77.2547 105.133 77.7315 105.612 77.7315 106.203Z" fill="#707070"/>
<path d="M77.7315 91.2234C77.7315 91.8144 77.2547 92.2934 76.6667 92.2934C76.0786 92.2934 75.6019 91.8144 75.6019 91.2234C75.6019 90.6325 76.0786 90.1534 76.6667 90.1534C77.2547 90.1534 77.7315 90.6325 77.7315 91.2234Z" fill="#707070"/>
<path d="M92.6389 106.203C92.6389 106.794 92.1622 107.273 91.5741 107.273C90.986 107.273 90.5093 106.794 90.5093 106.203C90.5093 105.612 90.986 105.133 91.5741 105.133C92.1622 105.133 92.6389 105.612 92.6389 106.203Z" fill="#707070"/>
<path d="M92.6389 91.2234C92.6389 91.8144 92.1622 92.2934 91.5741 92.2934C90.986 92.2934 90.5093 91.8144 90.5093 91.2234C90.5093 90.6325 90.986 90.1534 91.5741 90.1534C92.1622 90.1534 92.6389 90.6325 92.6389 91.2234Z" fill="#707070"/>
<path d="M107.546 106.203C107.546 106.794 107.07 107.273 106.481 107.273C105.893 107.273 105.417 106.794 105.417 106.203C105.417 105.612 105.893 105.133 106.481 105.133C107.07 105.133 107.546 105.612 107.546 106.203Z" fill="#707070"/>
<path d="M107.546 91.2234C107.546 91.8144 107.07 92.2934 106.481 92.2934C105.893 92.2934 105.417 91.8144 105.417 91.2234C105.417 90.6325 105.893 90.1534 106.481 90.1534C107.07 90.1534 107.546 90.6325 107.546 91.2234Z" fill="#707070"/>
<path d="M93.7037 76.2434C93.7037 76.8344 93.227 77.3134 92.6389 77.3134C92.0508 77.3134 91.5741 76.8344 91.5741 76.2434C91.5741 75.6525 92.0508 75.1734 92.6389 75.1734C93.227 75.1734 93.7037 75.6525 93.7037 76.2434Z" fill="#707070"/>
<path d="M93.7037 61.2634C93.7037 61.8544 93.227 62.3334 92.6389 62.3334C92.0508 62.3334 91.5741 61.8544 91.5741 61.2634C91.5741 60.6725 92.0508 60.1934 92.6389 60.1934C93.227 60.1934 93.7037 60.6725 93.7037 61.2634Z" fill="#707070"/>
<path d="M108.611 76.2434C108.611 76.8344 108.134 77.3134 107.546 77.3134C106.958 77.3134 106.481 76.8344 106.481 76.2434C106.481 75.6525 106.958 75.1734 107.546 75.1734C108.134 75.1734 108.611 75.6525 108.611 76.2434Z" fill="#707070"/>
<path d="M108.611 61.2634C108.611 61.8544 108.134 62.3334 107.546 62.3334C106.958 62.3334 106.481 61.8544 106.481 61.2634C106.481 60.6725 106.958 60.1934 107.546 60.1934C108.134 60.1934 108.611 60.6725 108.611 61.2634Z" fill="#707070"/>
<path d="M62.8241 76.2434C62.8241 76.8344 62.3473 77.3134 61.7593 77.3134C61.1712 77.3134 60.6944 76.8344 60.6944 76.2434C60.6944 75.6525 61.1712 75.1734 61.7593 75.1734C62.3473 75.1734 62.8241 75.6525 62.8241 76.2434Z" fill="#707070"/>
<path d="M62.8241 61.2634C62.8241 61.8544 62.3473 62.3334 61.7593 62.3334C61.1712 62.3334 60.6944 61.8544 60.6944 61.2634C60.6944 60.6725 61.1712 60.1934 61.7593 60.1934C62.3473 60.1934 62.8241 60.6725 62.8241 61.2634Z" fill="#707070"/>
<path d="M77.7315 76.2434C77.7315 76.8344 77.2547 77.3134 76.6667 77.3134C76.0786 77.3134 75.6019 76.8344 75.6019 76.2434C75.6019 75.6525 76.0786 75.1734 76.6667 75.1734C77.2547 75.1734 77.7315 75.6525 77.7315 76.2434Z" fill="#707070"/>
<path d="M77.7315 61.2634C77.7315 61.8544 77.2547 62.3334 76.6667 62.3334C76.0786 62.3334 75.6019 61.8544 75.6019 61.2634C75.6019 60.6725 76.0786 60.1934 76.6667 60.1934C77.2547 60.1934 77.7315 60.6725 77.7315 61.2634Z" fill="#707070"/>
<path d="M2.12963 106.203C2.12963 106.794 1.6529 107.273 1.06481 107.273C0.476734 107.273 0 106.794 0 106.203C0 105.612 0.476734 105.133 1.06481 105.133C1.6529 105.133 2.12963 105.612 2.12963 106.203Z" fill="#707070"/>
<path d="M2.12963 91.2234C2.12963 91.8144 1.6529 92.2934 1.06481 92.2934C0.476734 92.2934 0 91.8144 0 91.2234C0 90.6325 0.476734 90.1534 1.06481 90.1534C1.6529 90.1534 2.12963 90.6325 2.12963 91.2234Z" fill="#707070"/>
<path d="M17.037 106.203C17.037 106.794 16.5603 107.273 15.9722 107.273C15.3841 107.273 14.9074 106.794 14.9074 106.203C14.9074 105.612 15.3841 105.133 15.9722 105.133C16.5603 105.133 17.037 105.612 17.037 106.203Z" fill="#707070"/>
<path d="M17.037 91.2234C17.037 91.8144 16.5603 92.2934 15.9722 92.2934C15.3841 92.2934 14.9074 91.8144 14.9074 91.2234C14.9074 90.6325 15.3841 90.1534 15.9722 90.1534C16.5603 90.1534 17.037 90.6325 17.037 91.2234Z" fill="#707070"/>
<path d="M31.9444 106.203C31.9444 106.794 31.4677 107.273 30.8796 107.273C30.2915 107.273 29.8148 106.794 29.8148 106.203C29.8148 105.612 30.2915 105.133 30.8796 105.133C31.4677 105.133 31.9444 105.612 31.9444 106.203Z" fill="#707070"/>
<path d="M31.9444 91.2234C31.9444 91.8144 31.4677 92.2934 30.8796 92.2934C30.2915 92.2934 29.8148 91.8144 29.8148 91.2234C29.8148 90.6325 30.2915 90.1534 30.8796 90.1534C31.4677 90.1534 31.9444 90.6325 31.9444 91.2234Z" fill="#707070"/>
<path d="M46.8519 106.203C46.8519 106.794 46.3751 107.273 45.787 107.273C45.199 107.273 44.7222 106.794 44.7222 106.203C44.7222 105.612 45.199 105.133 45.787 105.133C46.3751 105.133 46.8519 105.612 46.8519 106.203Z" fill="#707070"/>
<path d="M46.8519 91.2234C46.8519 91.8144 46.3751 92.2934 45.787 92.2934C45.199 92.2934 44.7222 91.8144 44.7222 91.2234C44.7222 90.6325 45.199 90.1534 45.787 90.1534C46.3751 90.1534 46.8519 90.6325 46.8519 91.2234Z" fill="#707070"/>
<path d="M33.0093 76.2434C33.0093 76.8344 32.5325 77.3134 31.9444 77.3134C31.3564 77.3134 30.8796 76.8344 30.8796 76.2434C30.8796 75.6525 31.3564 75.1734 31.9444 75.1734C32.5325 75.1734 33.0093 75.6525 33.0093 76.2434Z" fill="#707070"/>
<path d="M33.0093 61.2634C33.0093 61.8544 32.5325 62.3334 31.9444 62.3334C31.3564 62.3334 30.8796 61.8544 30.8796 61.2634C30.8796 60.6725 31.3564 60.1934 31.9444 60.1934C32.5325 60.1934 33.0093 60.6725 33.0093 61.2634Z" fill="#707070"/>
<path d="M47.9167 76.2434C47.9167 76.8344 47.4399 77.3134 46.8519 77.3134C46.2638 77.3134 45.787 76.8344 45.787 76.2434C45.787 75.6525 46.2638 75.1734 46.8519 75.1734C47.4399 75.1734 47.9167 75.6525 47.9167 76.2434Z" fill="#707070"/>
<path d="M47.9167 61.2634C47.9167 61.8544 47.4399 62.3334 46.8519 62.3334C46.2638 62.3334 45.787 61.8544 45.787 61.2634C45.787 60.6725 46.2638 60.1934 46.8519 60.1934C47.4399 60.1934 47.9167 60.6725 47.9167 61.2634Z" fill="#707070"/>
<path d="M2.12963 76.2434C2.12963 76.8344 1.6529 77.3134 1.06481 77.3134C0.476734 77.3134 0 76.8344 0 76.2434C0 75.6525 0.476734 75.1734 1.06481 75.1734C1.6529 75.1734 2.12963 75.6525 2.12963 76.2434Z" fill="#707070"/>
<path d="M2.12963 61.2634C2.12963 61.8544 1.6529 62.3334 1.06481 62.3334C0.476734 62.3334 0 61.8544 0 61.2634C0 60.6725 0.476734 60.1934 1.06481 60.1934C1.6529 60.1934 2.12963 60.6725 2.12963 61.2634Z" fill="#707070"/>
<path d="M17.037 76.2434C17.037 76.8344 16.5603 77.3134 15.9722 77.3134C15.3841 77.3134 14.9074 76.8344 14.9074 76.2434C14.9074 75.6525 15.3841 75.1734 15.9722 75.1734C16.5603 75.1734 17.037 75.6525 17.037 76.2434Z" fill="#707070"/>
<path d="M17.037 61.2634C17.037 61.8544 16.5603 62.3334 15.9722 62.3334C15.3841 62.3334 14.9074 61.8544 14.9074 61.2634C14.9074 60.6725 15.3841 60.1934 15.9722 60.1934C16.5603 60.1934 17.037 60.6725 17.037 61.2634Z" fill="#707070"/>
<path d="M2.12963 46.2834C2.12963 46.8744 1.6529 47.3534 1.06481 47.3534C0.476734 47.3534 0 46.8744 0 46.2834C0 45.6925 0.476734 45.2134 1.06481 45.2134C1.6529 45.2134 2.12963 45.6925 2.12963 46.2834Z" fill="#707070"/>
<path d="M2.12963 31.3034C2.12963 31.8944 1.6529 32.3734 1.06481 32.3734C0.476734 32.3734 0 31.8944 0 31.3034C0 30.7125 0.476734 30.2334 1.06481 30.2334C1.6529 30.2334 2.12963 30.7125 2.12963 31.3034Z" fill="#707070"/>
<path d="M17.037 46.2834C17.037 46.8744 16.5603 47.3534 15.9722 47.3534C15.3841 47.3534 14.9074 46.8744 14.9074 46.2834C14.9074 45.6925 15.3841 45.2134 15.9722 45.2134C16.5603 45.2134 17.037 45.6925 17.037 46.2834Z" fill="#707070"/>
<path d="M17.037 31.3034C17.037 31.8944 16.5603 32.3734 15.9722 32.3734C15.3841 32.3734 14.9074 31.8944 14.9074 31.3034C14.9074 30.7125 15.3841 30.2334 15.9722 30.2334C16.5603 30.2334 17.037 30.7125 17.037 31.3034Z" fill="#707070"/>
<path d="M31.9444 46.2834C31.9444 46.8744 31.4677 47.3534 30.8796 47.3534C30.2915 47.3534 29.8148 46.8744 29.8148 46.2834C29.8148 45.6925 30.2915 45.2134 30.8796 45.2134C31.4677 45.2134 31.9444 45.6925 31.9444 46.2834Z" fill="#707070"/>
<path d="M31.9444 31.3034C31.9444 31.8944 31.4677 32.3734 30.8796 32.3734C30.2915 32.3734 29.8148 31.8944 29.8148 31.3034C29.8148 30.7125 30.2915 30.2334 30.8796 30.2334C31.4677 30.2334 31.9444 30.7125 31.9444 31.3034Z" fill="#707070"/>
<path d="M46.8519 46.2834C46.8519 46.8744 46.3751 47.3534 45.787 47.3534C45.199 47.3534 44.7222 46.8744 44.7222 46.2834C44.7222 45.6925 45.199 45.2134 45.787 45.2134C46.3751 45.2134 46.8519 45.6925 46.8519 46.2834Z" fill="#707070"/>
<path d="M46.8519 31.3034C46.8519 31.8944 46.3751 32.3734 45.787 32.3734C45.199 32.3734 44.7222 31.8944 44.7222 31.3034C44.7222 30.7125 45.199 30.2334 45.787 30.2334C46.3751 30.2334 46.8519 30.7125 46.8519 31.3034Z" fill="#707070"/>
<path d="M33.0093 16.3234C33.0093 16.9144 32.5325 17.3934 31.9444 17.3934C31.3564 17.3934 30.8796 16.9144 30.8796 16.3234C30.8796 15.7325 31.3564 15.2534 31.9444 15.2534C32.5325 15.2534 33.0093 15.7325 33.0093 16.3234Z" fill="#707070"/>
<path d="M33.0093 1.34344C33.0093 1.93438 32.5325 2.41344 31.9444 2.41344C31.3564 2.41344 30.8796 1.93438 30.8796 1.34344C30.8796 0.752493 31.3564 0.273438 31.9444 0.273438C32.5325 0.273438 33.0093 0.752493 33.0093 1.34344Z" fill="#707070"/>
<path d="M47.9167 16.3234C47.9167 16.9144 47.4399 17.3934 46.8519 17.3934C46.2638 17.3934 45.787 16.9144 45.787 16.3234C45.787 15.7325 46.2638 15.2534 46.8519 15.2534C47.4399 15.2534 47.9167 15.7325 47.9167 16.3234Z" fill="#707070"/>
<path d="M47.9167 1.34344C47.9167 1.93438 47.4399 2.41344 46.8519 2.41344C46.2638 2.41344 45.787 1.93438 45.787 1.34344C45.787 0.752493 46.2638 0.273438 46.8519 0.273438C47.4399 0.273438 47.9167 0.752493 47.9167 1.34344Z" fill="#707070"/>
<path d="M2.12963 16.3234C2.12963 16.9144 1.6529 17.3934 1.06481 17.3934C0.476734 17.3934 0 16.9144 0 16.3234C0 15.7325 0.476734 15.2534 1.06481 15.2534C1.6529 15.2534 2.12963 15.7325 2.12963 16.3234Z" fill="#707070"/>
<path d="M2.12963 1.34344C2.12963 1.93438 1.6529 2.41344 1.06481 2.41344C0.476734 2.41344 0 1.93438 0 1.34344C0 0.752493 0.476734 0.273438 1.06481 0.273438C1.6529 0.273438 2.12963 0.752493 2.12963 1.34344Z" fill="#707070"/>
<path d="M17.037 16.3234C17.037 16.9144 16.5603 17.3934 15.9722 17.3934C15.3841 17.3934 14.9074 16.9144 14.9074 16.3234C14.9074 15.7325 15.3841 15.2534 15.9722 15.2534C16.5603 15.2534 17.037 15.7325 17.037 16.3234Z" fill="#707070"/>
<path d="M17.037 1.34344C17.037 1.93438 16.5603 2.41344 15.9722 2.41344C15.3841 2.41344 14.9074 1.93438 14.9074 1.34344C14.9074 0.752493 15.3841 0.273438 15.9722 0.273438C16.5603 0.273438 17.037 0.752493 17.037 1.34344Z" fill="#707070"/>
<path d="M62.8241 46.2834C62.8241 46.8744 62.3473 47.3534 61.7593 47.3534C61.1712 47.3534 60.6944 46.8744 60.6944 46.2834C60.6944 45.6925 61.1712 45.2134 61.7593 45.2134C62.3473 45.2134 62.8241 45.6925 62.8241 46.2834Z" fill="#707070"/>
<path d="M62.8241 31.3034C62.8241 31.8944 62.3473 32.3734 61.7593 32.3734C61.1712 32.3734 60.6944 31.8944 60.6944 31.3034C60.6944 30.7125 61.1712 30.2334 61.7593 30.2334C62.3473 30.2334 62.8241 30.7125 62.8241 31.3034Z" fill="#707070"/>
<path d="M77.7315 46.2834C77.7315 46.8744 77.2547 47.3534 76.6667 47.3534C76.0786 47.3534 75.6019 46.8744 75.6019 46.2834C75.6019 45.6925 76.0786 45.2134 76.6667 45.2134C77.2547 45.2134 77.7315 45.6925 77.7315 46.2834Z" fill="#707070"/>
<path d="M77.7315 31.3034C77.7315 31.8944 77.2547 32.3734 76.6667 32.3734C76.0786 32.3734 75.6019 31.8944 75.6019 31.3034C75.6019 30.7125 76.0786 30.2334 76.6667 30.2334C77.2547 30.2334 77.7315 30.7125 77.7315 31.3034Z" fill="#707070"/>
<path d="M92.6389 46.2834C92.6389 46.8744 92.1622 47.3534 91.5741 47.3534C90.986 47.3534 90.5093 46.8744 90.5093 46.2834C90.5093 45.6925 90.986 45.2134 91.5741 45.2134C92.1622 45.2134 92.6389 45.6925 92.6389 46.2834Z" fill="#707070"/>
<path d="M92.6389 31.3034C92.6389 31.8944 92.1622 32.3734 91.5741 32.3734C90.986 32.3734 90.5093 31.8944 90.5093 31.3034C90.5093 30.7125 90.986 30.2334 91.5741 30.2334C92.1622 30.2334 92.6389 30.7125 92.6389 31.3034Z" fill="#707070"/>
<path d="M107.546 46.2834C107.546 46.8744 107.07 47.3534 106.481 47.3534C105.893 47.3534 105.417 46.8744 105.417 46.2834C105.417 45.6925 105.893 45.2134 106.481 45.2134C107.07 45.2134 107.546 45.6925 107.546 46.2834Z" fill="#707070"/>
<path d="M107.546 31.3034C107.546 31.8944 107.07 32.3734 106.481 32.3734C105.893 32.3734 105.417 31.8944 105.417 31.3034C105.417 30.7125 105.893 30.2334 106.481 30.2334C107.07 30.2334 107.546 30.7125 107.546 31.3034Z" fill="#707070"/>
<path d="M93.7037 16.3234C93.7037 16.9144 93.227 17.3934 92.6389 17.3934C92.0508 17.3934 91.5741 16.9144 91.5741 16.3234C91.5741 15.7325 92.0508 15.2534 92.6389 15.2534C93.227 15.2534 93.7037 15.7325 93.7037 16.3234Z" fill="#707070"/>
<path d="M93.7037 1.34344C93.7037 1.93438 93.227 2.41344 92.6389 2.41344C92.0508 2.41344 91.5741 1.93438 91.5741 1.34344C91.5741 0.752493 92.0508 0.273438 92.6389 0.273438C93.227 0.273438 93.7037 0.752493 93.7037 1.34344Z" fill="#707070"/>
<path d="M108.611 16.3234C108.611 16.9144 108.134 17.3934 107.546 17.3934C106.958 17.3934 106.481 16.9144 106.481 16.3234C106.481 15.7325 106.958 15.2534 107.546 15.2534C108.134 15.2534 108.611 15.7325 108.611 16.3234Z" fill="#707070"/>
<path d="M108.611 1.34344C108.611 1.93438 108.134 2.41344 107.546 2.41344C106.958 2.41344 106.481 1.93438 106.481 1.34344C106.481 0.752493 106.958 0.273438 107.546 0.273438C108.134 0.273438 108.611 0.752493 108.611 1.34344Z" fill="#707070"/>
<path d="M62.8241 16.3234C62.8241 16.9144 62.3473 17.3934 61.7593 17.3934C61.1712 17.3934 60.6944 16.9144 60.6944 16.3234C60.6944 15.7325 61.1712 15.2534 61.7593 15.2534C62.3473 15.2534 62.8241 15.7325 62.8241 16.3234Z" fill="#707070"/>
<path d="M62.8241 1.34344C62.8241 1.93438 62.3473 2.41344 61.7593 2.41344C61.1712 2.41344 60.6944 1.93438 60.6944 1.34344C60.6944 0.752493 61.1712 0.273438 61.7593 0.273438C62.3473 0.273438 62.8241 0.752493 62.8241 1.34344Z" fill="#707070"/>
<path d="M77.7315 16.3234C77.7315 16.9144 77.2547 17.3934 76.6667 17.3934C76.0786 17.3934 75.6019 16.9144 75.6019 16.3234C75.6019 15.7325 76.0786 15.2534 76.6667 15.2534C77.2547 15.2534 77.7315 15.7325 77.7315 16.3234Z" fill="#707070"/>
<path d="M77.7315 1.34344C77.7315 1.93438 77.2547 2.41344 76.6667 2.41344C76.0786 2.41344 75.6019 1.93438 75.6019 1.34344C75.6019 0.752493 76.0786 0.273438 76.6667 0.273438C77.2547 0.273438 77.7315 0.752493 77.7315 1.34344Z" fill="#707070"/>
<path d="M184.213 106.203C184.213 106.794 183.736 107.273 183.148 107.273C182.56 107.273 182.083 106.794 182.083 106.203C182.083 105.612 182.56 105.133 183.148 105.133C183.736 105.133 184.213 105.612 184.213 106.203Z" fill="#707070"/>
<path d="M184.213 91.2234C184.213 91.8144 183.736 92.2934 183.148 92.2934C182.56 92.2934 182.083 91.8144 182.083 91.2234C182.083 90.6325 182.56 90.1534 183.148 90.1534C183.736 90.1534 184.213 90.6325 184.213 91.2234Z" fill="#707070"/>
<path d="M199.12 106.203C199.12 106.794 198.644 107.273 198.056 107.273C197.467 107.273 196.991 106.794 196.991 106.203C196.991 105.612 197.467 105.133 198.056 105.133C198.644 105.133 199.12 105.612 199.12 106.203Z" fill="#707070"/>
<path d="M199.12 91.2234C199.12 91.8144 198.644 92.2934 198.056 92.2934C197.467 92.2934 196.991 91.8144 196.991 91.2234C196.991 90.6325 197.467 90.1534 198.056 90.1534C198.644 90.1534 199.12 90.6325 199.12 91.2234Z" fill="#707070"/>
<path d="M214.028 106.203C214.028 106.794 213.551 107.273 212.963 107.273C212.375 107.273 211.898 106.794 211.898 106.203C211.898 105.612 212.375 105.133 212.963 105.133C213.551 105.133 214.028 105.612 214.028 106.203Z" fill="#707070"/>
<path d="M214.028 91.2234C214.028 91.8144 213.551 92.2934 212.963 92.2934C212.375 92.2934 211.898 91.8144 211.898 91.2234C211.898 90.6325 212.375 90.1534 212.963 90.1534C213.551 90.1534 214.028 90.6325 214.028 91.2234Z" fill="#707070"/>
<path d="M228.935 106.203C228.935 106.794 228.458 107.273 227.87 107.273C227.282 107.273 226.806 106.794 226.806 106.203C226.806 105.612 227.282 105.133 227.87 105.133C228.458 105.133 228.935 105.612 228.935 106.203Z" fill="#707070"/>
<path d="M228.935 91.2234C228.935 91.8144 228.458 92.2934 227.87 92.2934C227.282 92.2934 226.806 91.8144 226.806 91.2234C226.806 90.6325 227.282 90.1534 227.87 90.1534C228.458 90.1534 228.935 90.6325 228.935 91.2234Z" fill="#707070"/>
<path d="M215.093 76.2434C215.093 76.8344 214.616 77.3134 214.028 77.3134C213.44 77.3134 212.963 76.8344 212.963 76.2434C212.963 75.6525 213.44 75.1734 214.028 75.1734C214.616 75.1734 215.093 75.6525 215.093 76.2434Z" fill="#707070"/>
<path d="M215.093 61.2634C215.093 61.8544 214.616 62.3334 214.028 62.3334C213.44 62.3334 212.963 61.8544 212.963 61.2634C212.963 60.6725 213.44 60.1934 214.028 60.1934C214.616 60.1934 215.093 60.6725 215.093 61.2634Z" fill="#707070"/>
<path d="M230 76.2434C230 76.8344 229.523 77.3134 228.935 77.3134C228.347 77.3134 227.87 76.8344 227.87 76.2434C227.87 75.6525 228.347 75.1734 228.935 75.1734C229.523 75.1734 230 75.6525 230 76.2434Z" fill="#707070"/>
<path d="M230 61.2634C230 61.8544 229.523 62.3334 228.935 62.3334C228.347 62.3334 227.87 61.8544 227.87 61.2634C227.87 60.6725 228.347 60.1934 228.935 60.1934C229.523 60.1934 230 60.6725 230 61.2634Z" fill="#707070"/>
<path d="M184.213 76.2434C184.213 76.8344 183.736 77.3134 183.148 77.3134C182.56 77.3134 182.083 76.8344 182.083 76.2434C182.083 75.6525 182.56 75.1734 183.148 75.1734C183.736 75.1734 184.213 75.6525 184.213 76.2434Z" fill="#707070"/>
<path d="M184.213 61.2634C184.213 61.8544 183.736 62.3334 183.148 62.3334C182.56 62.3334 182.083 61.8544 182.083 61.2634C182.083 60.6725 182.56 60.1934 183.148 60.1934C183.736 60.1934 184.213 60.6725 184.213 61.2634Z" fill="#707070"/>
<path d="M199.12 76.2434C199.12 76.8344 198.644 77.3134 198.056 77.3134C197.467 77.3134 196.991 76.8344 196.991 76.2434C196.991 75.6525 197.467 75.1734 198.056 75.1734C198.644 75.1734 199.12 75.6525 199.12 76.2434Z" fill="#707070"/>
<path d="M199.12 61.2634C199.12 61.8544 198.644 62.3334 198.056 62.3334C197.467 62.3334 196.991 61.8544 196.991 61.2634C196.991 60.6725 197.467 60.1934 198.056 60.1934C198.644 60.1934 199.12 60.6725 199.12 61.2634Z" fill="#707070"/>
<path d="M123.519 106.203C123.519 106.794 123.042 107.273 122.454 107.273C121.866 107.273 121.389 106.794 121.389 106.203C121.389 105.612 121.866 105.133 122.454 105.133C123.042 105.133 123.519 105.612 123.519 106.203Z" fill="#707070"/>
<path d="M123.519 91.2234C123.519 91.8144 123.042 92.2934 122.454 92.2934C121.866 92.2934 121.389 91.8144 121.389 91.2234C121.389 90.6325 121.866 90.1534 122.454 90.1534C123.042 90.1534 123.519 90.6325 123.519 91.2234Z" fill="#707070"/>
<path d="M138.426 106.203C138.426 106.794 137.949 107.273 137.361 107.273C136.773 107.273 136.296 106.794 136.296 106.203C136.296 105.612 136.773 105.133 137.361 105.133C137.949 105.133 138.426 105.612 138.426 106.203Z" fill="#707070"/>
<path d="M138.426 91.2234C138.426 91.8144 137.949 92.2934 137.361 92.2934C136.773 92.2934 136.296 91.8144 136.296 91.2234C136.296 90.6325 136.773 90.1534 137.361 90.1534C137.949 90.1534 138.426 90.6325 138.426 91.2234Z" fill="#707070"/>
<path d="M153.333 106.203C153.333 106.794 152.857 107.273 152.269 107.273C151.68 107.273 151.204 106.794 151.204 106.203C151.204 105.612 151.68 105.133 152.269 105.133C152.857 105.133 153.333 105.612 153.333 106.203Z" fill="#707070"/>
<path d="M153.333 91.2234C153.333 91.8144 152.857 92.2934 152.269 92.2934C151.68 92.2934 151.204 91.8144 151.204 91.2234C151.204 90.6325 151.68 90.1534 152.269 90.1534C152.857 90.1534 153.333 90.6325 153.333 91.2234Z" fill="#707070"/>
<path d="M168.241 106.203C168.241 106.794 167.764 107.273 167.176 107.273C166.588 107.273 166.111 106.794 166.111 106.203C166.111 105.612 166.588 105.133 167.176 105.133C167.764 105.133 168.241 105.612 168.241 106.203Z" fill="#707070"/>
<path d="M168.241 91.2234C168.241 91.8144 167.764 92.2934 167.176 92.2934C166.588 92.2934 166.111 91.8144 166.111 91.2234C166.111 90.6325 166.588 90.1534 167.176 90.1534C167.764 90.1534 168.241 90.6325 168.241 91.2234Z" fill="#707070"/>
<path d="M154.398 76.2434C154.398 76.8344 153.921 77.3134 153.333 77.3134C152.745 77.3134 152.269 76.8344 152.269 76.2434C152.269 75.6525 152.745 75.1734 153.333 75.1734C153.921 75.1734 154.398 75.6525 154.398 76.2434Z" fill="#707070"/>
<path d="M154.398 61.2634C154.398 61.8544 153.921 62.3334 153.333 62.3334C152.745 62.3334 152.269 61.8544 152.269 61.2634C152.269 60.6725 152.745 60.1934 153.333 60.1934C153.921 60.1934 154.398 60.6725 154.398 61.2634Z" fill="#707070"/>
<path d="M169.306 76.2434C169.306 76.8344 168.829 77.3134 168.241 77.3134C167.653 77.3134 167.176 76.8344 167.176 76.2434C167.176 75.6525 167.653 75.1734 168.241 75.1734C168.829 75.1734 169.306 75.6525 169.306 76.2434Z" fill="#707070"/>
<path d="M169.306 61.2634C169.306 61.8544 168.829 62.3334 168.241 62.3334C167.653 62.3334 167.176 61.8544 167.176 61.2634C167.176 60.6725 167.653 60.1934 168.241 60.1934C168.829 60.1934 169.306 60.6725 169.306 61.2634Z" fill="#707070"/>
<path d="M123.519 76.2434C123.519 76.8344 123.042 77.3134 122.454 77.3134C121.866 77.3134 121.389 76.8344 121.389 76.2434C121.389 75.6525 121.866 75.1734 122.454 75.1734C123.042 75.1734 123.519 75.6525 123.519 76.2434Z" fill="#707070"/>
<path d="M123.519 61.2634C123.519 61.8544 123.042 62.3334 122.454 62.3334C121.866 62.3334 121.389 61.8544 121.389 61.2634C121.389 60.6725 121.866 60.1934 122.454 60.1934C123.042 60.1934 123.519 60.6725 123.519 61.2634Z" fill="#707070"/>
<path d="M138.426 76.2434C138.426 76.8344 137.949 77.3134 137.361 77.3134C136.773 77.3134 136.296 76.8344 136.296 76.2434C136.296 75.6525 136.773 75.1734 137.361 75.1734C137.949 75.1734 138.426 75.6525 138.426 76.2434Z" fill="#707070"/>
<path d="M138.426 61.2634C138.426 61.8544 137.949 62.3334 137.361 62.3334C136.773 62.3334 136.296 61.8544 136.296 61.2634C136.296 60.6725 136.773 60.1934 137.361 60.1934C137.949 60.1934 138.426 60.6725 138.426 61.2634Z" fill="#707070"/>
<path d="M123.519 46.2834C123.519 46.8744 123.042 47.3534 122.454 47.3534C121.866 47.3534 121.389 46.8744 121.389 46.2834C121.389 45.6925 121.866 45.2134 122.454 45.2134C123.042 45.2134 123.519 45.6925 123.519 46.2834Z" fill="#707070"/>
<path d="M123.519 31.3034C123.519 31.8944 123.042 32.3734 122.454 32.3734C121.866 32.3734 121.389 31.8944 121.389 31.3034C121.389 30.7125 121.866 30.2334 122.454 30.2334C123.042 30.2334 123.519 30.7125 123.519 31.3034Z" fill="#707070"/>
<path d="M138.426 46.2834C138.426 46.8744 137.949 47.3534 137.361 47.3534C136.773 47.3534 136.296 46.8744 136.296 46.2834C136.296 45.6925 136.773 45.2134 137.361 45.2134C137.949 45.2134 138.426 45.6925 138.426 46.2834Z" fill="#707070"/>
<path d="M138.426 31.3034C138.426 31.8944 137.949 32.3734 137.361 32.3734C136.773 32.3734 136.296 31.8944 136.296 31.3034C136.296 30.7125 136.773 30.2334 137.361 30.2334C137.949 30.2334 138.426 30.7125 138.426 31.3034Z" fill="#707070"/>
<path d="M153.333 46.2834C153.333 46.8744 152.857 47.3534 152.269 47.3534C151.68 47.3534 151.204 46.8744 151.204 46.2834C151.204 45.6925 151.68 45.2134 152.269 45.2134C152.857 45.2134 153.333 45.6925 153.333 46.2834Z" fill="#707070"/>
<path d="M153.333 31.3034C153.333 31.8944 152.857 32.3734 152.269 32.3734C151.68 32.3734 151.204 31.8944 151.204 31.3034C151.204 30.7125 151.68 30.2334 152.269 30.2334C152.857 30.2334 153.333 30.7125 153.333 31.3034Z" fill="#707070"/>
<path d="M168.241 46.2834C168.241 46.8744 167.764 47.3534 167.176 47.3534C166.588 47.3534 166.111 46.8744 166.111 46.2834C166.111 45.6925 166.588 45.2134 167.176 45.2134C167.764 45.2134 168.241 45.6925 168.241 46.2834Z" fill="#707070"/>
<path d="M168.241 31.3034C168.241 31.8944 167.764 32.3734 167.176 32.3734C166.588 32.3734 166.111 31.8944 166.111 31.3034C166.111 30.7125 166.588 30.2334 167.176 30.2334C167.764 30.2334 168.241 30.7125 168.241 31.3034Z" fill="#707070"/>
<path d="M154.398 16.3234C154.398 16.9144 153.921 17.3934 153.333 17.3934C152.745 17.3934 152.269 16.9144 152.269 16.3234C152.269 15.7325 152.745 15.2534 153.333 15.2534C153.921 15.2534 154.398 15.7325 154.398 16.3234Z" fill="#707070"/>
<path d="M154.398 1.34344C154.398 1.93438 153.921 2.41344 153.333 2.41344C152.745 2.41344 152.269 1.93438 152.269 1.34344C152.269 0.752493 152.745 0.273438 153.333 0.273438C153.921 0.273438 154.398 0.752493 154.398 1.34344Z" fill="#707070"/>
<path d="M169.306 16.3234C169.306 16.9144 168.829 17.3934 168.241 17.3934C167.653 17.3934 167.176 16.9144 167.176 16.3234C167.176 15.7325 167.653 15.2534 168.241 15.2534C168.829 15.2534 169.306 15.7325 169.306 16.3234Z" fill="#707070"/>
<path d="M169.306 1.34344C169.306 1.93438 168.829 2.41344 168.241 2.41344C167.653 2.41344 167.176 1.93438 167.176 1.34344C167.176 0.752493 167.653 0.273438 168.241 0.273438C168.829 0.273438 169.306 0.752493 169.306 1.34344Z" fill="#707070"/>
<path d="M123.519 16.3234C123.519 16.9144 123.042 17.3934 122.454 17.3934C121.866 17.3934 121.389 16.9144 121.389 16.3234C121.389 15.7325 121.866 15.2534 122.454 15.2534C123.042 15.2534 123.519 15.7325 123.519 16.3234Z" fill="#707070"/>
<path d="M123.519 1.34344C123.519 1.93438 123.042 2.41344 122.454 2.41344C121.866 2.41344 121.389 1.93438 121.389 1.34344C121.389 0.752493 121.866 0.273438 122.454 0.273438C123.042 0.273438 123.519 0.752493 123.519 1.34344Z" fill="#707070"/>
<path d="M138.426 16.3234C138.426 16.9144 137.949 17.3934 137.361 17.3934C136.773 17.3934 136.296 16.9144 136.296 16.3234C136.296 15.7325 136.773 15.2534 137.361 15.2534C137.949 15.2534 138.426 15.7325 138.426 16.3234Z" fill="#707070"/>
<path d="M138.426 1.34344C138.426 1.93438 137.949 2.41344 137.361 2.41344C136.773 2.41344 136.296 1.93438 136.296 1.34344C136.296 0.752493 136.773 0.273438 137.361 0.273438C137.949 0.273438 138.426 0.752493 138.426 1.34344Z" fill="#707070"/>
<path d="M184.213 46.2834C184.213 46.8744 183.736 47.3534 183.148 47.3534C182.56 47.3534 182.083 46.8744 182.083 46.2834C182.083 45.6925 182.56 45.2134 183.148 45.2134C183.736 45.2134 184.213 45.6925 184.213 46.2834Z" fill="#707070"/>
<path d="M184.213 31.3034C184.213 31.8944 183.736 32.3734 183.148 32.3734C182.56 32.3734 182.083 31.8944 182.083 31.3034C182.083 30.7125 182.56 30.2334 183.148 30.2334C183.736 30.2334 184.213 30.7125 184.213 31.3034Z" fill="#707070"/>
<path d="M199.12 46.2834C199.12 46.8744 198.644 47.3534 198.056 47.3534C197.467 47.3534 196.991 46.8744 196.991 46.2834C196.991 45.6925 197.467 45.2134 198.056 45.2134C198.644 45.2134 199.12 45.6925 199.12 46.2834Z" fill="#707070"/>
<path d="M199.12 31.3034C199.12 31.8944 198.644 32.3734 198.056 32.3734C197.467 32.3734 196.991 31.8944 196.991 31.3034C196.991 30.7125 197.467 30.2334 198.056 30.2334C198.644 30.2334 199.12 30.7125 199.12 31.3034Z" fill="#707070"/>
<path d="M214.028 46.2834C214.028 46.8744 213.551 47.3534 212.963 47.3534C212.375 47.3534 211.898 46.8744 211.898 46.2834C211.898 45.6925 212.375 45.2134 212.963 45.2134C213.551 45.2134 214.028 45.6925 214.028 46.2834Z" fill="#707070"/>
<path d="M214.028 31.3034C214.028 31.8944 213.551 32.3734 212.963 32.3734C212.375 32.3734 211.898 31.8944 211.898 31.3034C211.898 30.7125 212.375 30.2334 212.963 30.2334C213.551 30.2334 214.028 30.7125 214.028 31.3034Z" fill="#707070"/>
<path d="M228.935 46.2834C228.935 46.8744 228.458 47.3534 227.87 47.3534C227.282 47.3534 226.806 46.8744 226.806 46.2834C226.806 45.6925 227.282 45.2134 227.87 45.2134C228.458 45.2134 228.935 45.6925 228.935 46.2834Z" fill="#707070"/>
<path d="M228.935 31.3034C228.935 31.8944 228.458 32.3734 227.87 32.3734C227.282 32.3734 226.806 31.8944 226.806 31.3034C226.806 30.7125 227.282 30.2334 227.87 30.2334C228.458 30.2334 228.935 30.7125 228.935 31.3034Z" fill="#707070"/>
<path d="M215.093 16.3234C215.093 16.9144 214.616 17.3934 214.028 17.3934C213.44 17.3934 212.963 16.9144 212.963 16.3234C212.963 15.7325 213.44 15.2534 214.028 15.2534C214.616 15.2534 215.093 15.7325 215.093 16.3234Z" fill="#707070"/>
<path d="M215.093 1.34344C215.093 1.93438 214.616 2.41344 214.028 2.41344C213.44 2.41344 212.963 1.93438 212.963 1.34344C212.963 0.752493 213.44 0.273438 214.028 0.273438C214.616 0.273438 215.093 0.752493 215.093 1.34344Z" fill="#707070"/>
<path d="M230 16.3234C230 16.9144 229.523 17.3934 228.935 17.3934C228.347 17.3934 227.87 16.9144 227.87 16.3234C227.87 15.7325 228.347 15.2534 228.935 15.2534C229.523 15.2534 230 15.7325 230 16.3234Z" fill="#707070"/>
<path d="M230 1.34344C230 1.93438 229.523 2.41344 228.935 2.41344C228.347 2.41344 227.87 1.93438 227.87 1.34344C227.87 0.752493 228.347 0.273438 228.935 0.273438C229.523 0.273438 230 0.752493 230 1.34344Z" fill="#707070"/>
<path d="M184.213 16.3234C184.213 16.9144 183.736 17.3934 183.148 17.3934C182.56 17.3934 182.083 16.9144 182.083 16.3234C182.083 15.7325 182.56 15.2534 183.148 15.2534C183.736 15.2534 184.213 15.7325 184.213 16.3234Z" fill="#707070"/>
<path d="M184.213 1.34344C184.213 1.93438 183.736 2.41344 183.148 2.41344C182.56 2.41344 182.083 1.93438 182.083 1.34344C182.083 0.752493 182.56 0.273438 183.148 0.273438C183.736 0.273438 184.213 0.752493 184.213 1.34344Z" fill="#707070"/>
<path d="M199.12 16.3234C199.12 16.9144 198.644 17.3934 198.056 17.3934C197.467 17.3934 196.991 16.9144 196.991 16.3234C196.991 15.7325 197.467 15.2534 198.056 15.2534C198.644 15.2534 199.12 15.7325 199.12 16.3234Z" fill="#707070"/>
<path d="M199.12 1.34344C199.12 1.93438 198.644 2.41344 198.056 2.41344C197.467 2.41344 196.991 1.93438 196.991 1.34344C196.991 0.752493 197.467 0.273438 198.056 0.273438C198.644 0.273438 199.12 0.752493 199.12 1.34344Z" fill="#707070"/>
</svg>
