<svg width="163" height="228" viewBox="0 0 163 228" fill="none" xmlns="http://www.w3.org/2000/svg">
<path d="M-4.1759 226.306C-4.1759 226.898 -4.65263 227.377 -5.24071 227.377C-5.82879 227.377 -6.30553 226.898 -6.30553 226.306C-6.30553 225.715 -5.82879 225.235 -5.24071 225.235C-4.65263 225.235 -4.1759 225.715 -4.1759 226.306Z" fill="#707070"/>
<path d="M-4.1759 211.316C-4.1759 211.907 -4.65263 212.386 -5.24071 212.386C-5.82879 212.386 -6.30553 211.907 -6.30553 211.316C-6.30553 210.724 -5.82879 210.245 -5.24071 210.245C-4.65263 210.245 -4.1759 210.724 -4.1759 211.316Z" fill="#707070"/>
<path d="M10.7315 226.306C10.7315 226.898 10.2548 227.377 9.66669 227.377C9.07861 227.377 8.60188 226.898 8.60188 226.306C8.60188 225.715 9.07861 225.235 9.66669 225.235C10.2548 225.235 10.7315 225.715 10.7315 226.306Z" fill="#707070"/>
<path d="M10.7315 211.316C10.7315 211.907 10.2548 212.386 9.66669 212.386C9.07861 212.386 8.60188 211.907 8.60188 211.316C8.60188 210.724 9.07861 210.245 9.66669 210.245C10.2548 210.245 10.7315 210.724 10.7315 211.316Z" fill="#707070"/>
<path d="M25.6389 226.306C25.6389 226.898 25.1622 227.377 24.5741 227.377C23.986 227.377 23.5093 226.898 23.5093 226.306C23.5093 225.715 23.986 225.235 24.5741 225.235C25.1622 225.235 25.6389 225.715 25.6389 226.306Z" fill="#707070"/>
<path d="M25.6389 211.316C25.6389 211.907 25.1622 212.386 24.5741 212.386C23.986 212.386 23.5093 211.907 23.5093 211.316C23.5093 210.724 23.986 210.245 24.5741 210.245C25.1622 210.245 25.6389 210.724 25.6389 211.316Z" fill="#707070"/>
<path d="M40.5463 226.306C40.5463 226.898 40.0696 227.377 39.4815 227.377C38.8934 227.377 38.4167 226.898 38.4167 226.306C38.4167 225.715 38.8934 225.235 39.4815 225.235C40.0696 225.235 40.5463 225.715 40.5463 226.306Z" fill="#707070"/>
<path d="M40.5463 211.316C40.5463 211.907 40.0696 212.386 39.4815 212.386C38.8934 212.386 38.4167 211.907 38.4167 211.316C38.4167 210.724 38.8934 210.245 39.4815 210.245C40.0696 210.245 40.5463 210.724 40.5463 211.316Z" fill="#707070"/>
<path d="M26.7037 196.325C26.7037 196.916 26.227 197.396 25.6389 197.396C25.0508 197.396 24.5741 196.916 24.5741 196.325C24.5741 195.734 25.0508 195.254 25.6389 195.254C26.227 195.254 26.7037 195.734 26.7037 196.325Z" fill="#707070"/>
<path d="M26.7037 181.335C26.7037 181.926 26.227 182.405 25.6389 182.405C25.0508 182.405 24.5741 181.926 24.5741 181.335C24.5741 180.743 25.0508 180.264 25.6389 180.264C26.227 180.264 26.7037 180.743 26.7037 181.335Z" fill="#707070"/>
<path d="M41.6111 196.325C41.6111 196.916 41.1344 197.396 40.5463 197.396C39.9582 197.396 39.4815 196.916 39.4815 196.325C39.4815 195.734 39.9582 195.254 40.5463 195.254C41.1344 195.254 41.6111 195.734 41.6111 196.325Z" fill="#707070"/>
<path d="M41.6111 181.335C41.6111 181.926 41.1344 182.405 40.5463 182.405C39.9582 182.405 39.4815 181.926 39.4815 181.335C39.4815 180.743 39.9582 180.264 40.5463 180.264C41.1344 180.264 41.6111 180.743 41.6111 181.335Z" fill="#707070"/>
<path d="M-4.1759 196.325C-4.1759 196.916 -4.65263 197.396 -5.24071 197.396C-5.82879 197.396 -6.30553 196.916 -6.30553 196.325C-6.30553 195.734 -5.82879 195.254 -5.24071 195.254C-4.65263 195.254 -4.1759 195.734 -4.1759 196.325Z" fill="#707070"/>
<path d="M-4.1759 181.335C-4.1759 181.926 -4.65263 182.405 -5.24071 182.405C-5.82879 182.405 -6.30553 181.926 -6.30553 181.335C-6.30553 180.743 -5.82879 180.264 -5.24071 180.264C-4.65263 180.264 -4.1759 180.743 -4.1759 181.335Z" fill="#707070"/>
<path d="M10.7315 196.325C10.7315 196.916 10.2548 197.396 9.66669 197.396C9.07861 197.396 8.60188 196.916 8.60188 196.325C8.60188 195.734 9.07861 195.254 9.66669 195.254C10.2548 195.254 10.7315 195.734 10.7315 196.325Z" fill="#707070"/>
<path d="M10.7315 181.335C10.7315 181.926 10.2548 182.405 9.66669 182.405C9.07861 182.405 8.60188 181.926 8.60188 181.335C8.60188 180.743 9.07861 180.264 9.66669 180.264C10.2548 180.264 10.7315 180.743 10.7315 181.335Z" fill="#707070"/>
<path d="M-64.8703 226.306C-64.8703 226.898 -65.3471 227.377 -65.9352 227.377C-66.5232 227.377 -67 226.898 -67 226.306C-67 225.715 -66.5232 225.235 -65.9352 225.235C-65.3471 225.235 -64.8703 225.715 -64.8703 226.306Z" fill="#707070"/>
<path d="M-64.8703 211.316C-64.8703 211.907 -65.3471 212.386 -65.9352 212.386C-66.5232 212.386 -67 211.907 -67 211.316C-67 210.724 -66.5232 210.245 -65.9352 210.245C-65.3471 210.245 -64.8703 210.724 -64.8703 211.316Z" fill="#707070"/>
<path d="M-49.9629 226.306C-49.9629 226.898 -50.4397 227.377 -51.0277 227.377C-51.6158 227.377 -52.0926 226.898 -52.0926 226.306C-52.0926 225.715 -51.6158 225.235 -51.0277 225.235C-50.4397 225.235 -49.9629 225.715 -49.9629 226.306Z" fill="#707070"/>
<path d="M-49.9629 211.316C-49.9629 211.907 -50.4397 212.386 -51.0277 212.386C-51.6158 212.386 -52.0926 211.907 -52.0926 211.316C-52.0926 210.724 -51.6158 210.245 -51.0277 210.245C-50.4397 210.245 -49.9629 210.724 -49.9629 211.316Z" fill="#707070"/>
<path d="M-35.0555 226.306C-35.0555 226.898 -35.5323 227.377 -36.1203 227.377C-36.7084 227.377 -37.1852 226.898 -37.1852 226.306C-37.1852 225.715 -36.7084 225.235 -36.1203 225.235C-35.5323 225.235 -35.0555 225.715 -35.0555 226.306Z" fill="#707070"/>
<path d="M-35.0555 211.316C-35.0555 211.907 -35.5323 212.386 -36.1203 212.386C-36.7084 212.386 -37.1852 211.907 -37.1852 211.316C-37.1852 210.724 -36.7084 210.245 -36.1203 210.245C-35.5323 210.245 -35.0555 210.724 -35.0555 211.316Z" fill="#707070"/>
<path d="M-20.1481 226.306C-20.1481 226.898 -20.6249 227.377 -21.2129 227.377C-21.801 227.377 -22.2777 226.898 -22.2777 226.306C-22.2777 225.715 -21.801 225.235 -21.2129 225.235C-20.6249 225.235 -20.1481 225.715 -20.1481 226.306Z" fill="#707070"/>
<path d="M-20.1481 211.316C-20.1481 211.907 -20.6249 212.386 -21.2129 212.386C-21.801 212.386 -22.2777 211.907 -22.2777 211.316C-22.2777 210.724 -21.801 210.245 -21.2129 210.245C-20.6249 210.245 -20.1481 210.724 -20.1481 211.316Z" fill="#707070"/>
<path d="M-33.9907 196.325C-33.9907 196.916 -34.4674 197.396 -35.0555 197.396C-35.6436 197.396 -36.1203 196.916 -36.1203 196.325C-36.1203 195.734 -35.6436 195.254 -35.0555 195.254C-34.4674 195.254 -33.9907 195.734 -33.9907 196.325Z" fill="#707070"/>
<path d="M-33.9907 181.335C-33.9907 181.926 -34.4674 182.405 -35.0555 182.405C-35.6436 182.405 -36.1203 181.926 -36.1203 181.335C-36.1203 180.743 -35.6436 180.264 -35.0555 180.264C-34.4674 180.264 -33.9907 180.743 -33.9907 181.335Z" fill="#707070"/>
<path d="M-19.0833 196.325C-19.0833 196.916 -19.56 197.396 -20.1481 197.396C-20.7362 197.396 -21.2129 196.916 -21.2129 196.325C-21.2129 195.734 -20.7362 195.254 -20.1481 195.254C-19.56 195.254 -19.0833 195.734 -19.0833 196.325Z" fill="#707070"/>
<path d="M-19.0833 181.335C-19.0833 181.926 -19.56 182.405 -20.1481 182.405C-20.7362 182.405 -21.2129 181.926 -21.2129 181.335C-21.2129 180.743 -20.7362 180.264 -20.1481 180.264C-19.56 180.264 -19.0833 180.743 -19.0833 181.335Z" fill="#707070"/>
<path d="M-64.8703 196.325C-64.8703 196.916 -65.3471 197.396 -65.9352 197.396C-66.5232 197.396 -67 196.916 -67 196.325C-67 195.734 -66.5232 195.254 -65.9352 195.254C-65.3471 195.254 -64.8703 195.734 -64.8703 196.325Z" fill="#707070"/>
<path d="M-64.8703 181.335C-64.8703 181.926 -65.3471 182.405 -65.9352 182.405C-66.5232 182.405 -67 181.926 -67 181.335C-67 180.743 -66.5232 180.264 -65.9352 180.264C-65.3471 180.264 -64.8703 180.743 -64.8703 181.335Z" fill="#707070"/>
<path d="M-49.9629 196.325C-49.9629 196.916 -50.4397 197.396 -51.0277 197.396C-51.6158 197.396 -52.0926 196.916 -52.0926 196.325C-52.0926 195.734 -51.6158 195.254 -51.0277 195.254C-50.4397 195.254 -49.9629 195.734 -49.9629 196.325Z" fill="#707070"/>
<path d="M-49.9629 181.335C-49.9629 181.926 -50.4397 182.405 -51.0277 182.405C-51.6158 182.405 -52.0926 181.926 -52.0926 181.335C-52.0926 180.743 -51.6158 180.264 -51.0277 180.264C-50.4397 180.264 -49.9629 180.743 -49.9629 181.335Z" fill="#707070"/>
<path d="M-64.8703 166.344C-64.8703 166.935 -65.3471 167.415 -65.9352 167.415C-66.5232 167.415 -67 166.935 -67 166.344C-67 165.753 -66.5232 165.273 -65.9352 165.273C-65.3471 165.273 -64.8703 165.753 -64.8703 166.344Z" fill="#707070"/>
<path d="M-64.8703 151.353C-64.8703 151.945 -65.3471 152.424 -65.9352 152.424C-66.5232 152.424 -67 151.945 -67 151.353C-67 150.762 -66.5232 150.283 -65.9352 150.283C-65.3471 150.283 -64.8703 150.762 -64.8703 151.353Z" fill="#707070"/>
<path d="M-49.9629 166.344C-49.9629 166.935 -50.4397 167.415 -51.0277 167.415C-51.6158 167.415 -52.0926 166.935 -52.0926 166.344C-52.0926 165.753 -51.6158 165.273 -51.0277 165.273C-50.4397 165.273 -49.9629 165.753 -49.9629 166.344Z" fill="#707070"/>
<path d="M-49.9629 151.353C-49.9629 151.945 -50.4397 152.424 -51.0277 152.424C-51.6158 152.424 -52.0926 151.945 -52.0926 151.353C-52.0926 150.762 -51.6158 150.283 -51.0277 150.283C-50.4397 150.283 -49.9629 150.762 -49.9629 151.353Z" fill="#707070"/>
<path d="M-35.0555 166.344C-35.0555 166.935 -35.5323 167.415 -36.1203 167.415C-36.7084 167.415 -37.1852 166.935 -37.1852 166.344C-37.1852 165.753 -36.7084 165.273 -36.1203 165.273C-35.5323 165.273 -35.0555 165.753 -35.0555 166.344Z" fill="#707070"/>
<path d="M-35.0555 151.353C-35.0555 151.945 -35.5323 152.424 -36.1203 152.424C-36.7084 152.424 -37.1852 151.945 -37.1852 151.353C-37.1852 150.762 -36.7084 150.283 -36.1203 150.283C-35.5323 150.283 -35.0555 150.762 -35.0555 151.353Z" fill="#707070"/>
<path d="M-20.1481 166.344C-20.1481 166.935 -20.6249 167.415 -21.2129 167.415C-21.801 167.415 -22.2777 166.935 -22.2777 166.344C-22.2777 165.753 -21.801 165.273 -21.2129 165.273C-20.6249 165.273 -20.1481 165.753 -20.1481 166.344Z" fill="#707070"/>
<path d="M-20.1481 151.353C-20.1481 151.945 -20.6249 152.424 -21.2129 152.424C-21.801 152.424 -22.2777 151.945 -22.2777 151.353C-22.2777 150.762 -21.801 150.283 -21.2129 150.283C-20.6249 150.283 -20.1481 150.762 -20.1481 151.353Z" fill="#707070"/>
<path d="M-33.9907 136.363C-33.9907 136.954 -34.4674 137.434 -35.0555 137.434C-35.6436 137.434 -36.1203 136.954 -36.1203 136.363C-36.1203 135.771 -35.6436 135.292 -35.0555 135.292C-34.4674 135.292 -33.9907 135.771 -33.9907 136.363Z" fill="#707070"/>
<path d="M-33.9907 121.372C-33.9907 121.964 -34.4674 122.443 -35.0555 122.443C-35.6436 122.443 -36.1203 121.964 -36.1203 121.372C-36.1203 120.781 -35.6436 120.301 -35.0555 120.301C-34.4674 120.301 -33.9907 120.781 -33.9907 121.372Z" fill="#707070"/>
<path d="M-19.0833 136.363C-19.0833 136.954 -19.56 137.434 -20.1481 137.434C-20.7362 137.434 -21.2129 136.954 -21.2129 136.363C-21.2129 135.771 -20.7362 135.292 -20.1481 135.292C-19.56 135.292 -19.0833 135.771 -19.0833 136.363Z" fill="#707070"/>
<path d="M-19.0833 121.372C-19.0833 121.964 -19.56 122.443 -20.1481 122.443C-20.7362 122.443 -21.2129 121.964 -21.2129 121.372C-21.2129 120.781 -20.7362 120.301 -20.1481 120.301C-19.56 120.301 -19.0833 120.781 -19.0833 121.372Z" fill="#707070"/>
<path d="M-64.8703 136.363C-64.8703 136.954 -65.3471 137.434 -65.9352 137.434C-66.5232 137.434 -67 136.954 -67 136.363C-67 135.771 -66.5232 135.292 -65.9352 135.292C-65.3471 135.292 -64.8703 135.771 -64.8703 136.363Z" fill="#707070"/>
<path d="M-64.8703 121.372C-64.8703 121.964 -65.3471 122.443 -65.9352 122.443C-66.5232 122.443 -67 121.964 -67 121.372C-67 120.781 -66.5232 120.301 -65.9352 120.301C-65.3471 120.301 -64.8703 120.781 -64.8703 121.372Z" fill="#707070"/>
<path d="M-49.9629 136.363C-49.9629 136.954 -50.4397 137.434 -51.0277 137.434C-51.6158 137.434 -52.0926 136.954 -52.0926 136.363C-52.0926 135.771 -51.6158 135.292 -51.0277 135.292C-50.4397 135.292 -49.9629 135.771 -49.9629 136.363Z" fill="#707070"/>
<path d="M-49.9629 121.372C-49.9629 121.964 -50.4397 122.443 -51.0277 122.443C-51.6158 122.443 -52.0926 121.964 -52.0926 121.372C-52.0926 120.781 -51.6158 120.301 -51.0277 120.301C-50.4397 120.301 -49.9629 120.781 -49.9629 121.372Z" fill="#707070"/>
<path d="M-4.1759 166.344C-4.1759 166.935 -4.65263 167.415 -5.24071 167.415C-5.82879 167.415 -6.30553 166.935 -6.30553 166.344C-6.30553 165.753 -5.82879 165.273 -5.24071 165.273C-4.65263 165.273 -4.1759 165.753 -4.1759 166.344Z" fill="#707070"/>
<path d="M-4.1759 151.353C-4.1759 151.945 -4.65263 152.424 -5.24071 152.424C-5.82879 152.424 -6.30553 151.945 -6.30553 151.353C-6.30553 150.762 -5.82879 150.283 -5.24071 150.283C-4.65263 150.283 -4.1759 150.762 -4.1759 151.353Z" fill="#707070"/>
<path d="M10.7315 166.344C10.7315 166.935 10.2548 167.415 9.66669 167.415C9.07861 167.415 8.60188 166.935 8.60188 166.344C8.60188 165.753 9.07861 165.273 9.66669 165.273C10.2548 165.273 10.7315 165.753 10.7315 166.344Z" fill="#707070"/>
<path d="M10.7315 151.353C10.7315 151.945 10.2548 152.424 9.66669 152.424C9.07861 152.424 8.60188 151.945 8.60188 151.353C8.60188 150.762 9.07861 150.283 9.66669 150.283C10.2548 150.283 10.7315 150.762 10.7315 151.353Z" fill="#707070"/>
<path d="M25.6389 166.344C25.6389 166.935 25.1622 167.415 24.5741 167.415C23.986 167.415 23.5093 166.935 23.5093 166.344C23.5093 165.753 23.986 165.273 24.5741 165.273C25.1622 165.273 25.6389 165.753 25.6389 166.344Z" fill="#707070"/>
<path d="M25.6389 151.353C25.6389 151.945 25.1622 152.424 24.5741 152.424C23.986 152.424 23.5093 151.945 23.5093 151.353C23.5093 150.762 23.986 150.283 24.5741 150.283C25.1622 150.283 25.6389 150.762 25.6389 151.353Z" fill="#707070"/>
<path d="M40.5463 166.344C40.5463 166.935 40.0696 167.415 39.4815 167.415C38.8934 167.415 38.4167 166.935 38.4167 166.344C38.4167 165.753 38.8934 165.273 39.4815 165.273C40.0696 165.273 40.5463 165.753 40.5463 166.344Z" fill="#707070"/>
<path d="M40.5463 151.353C40.5463 151.945 40.0696 152.424 39.4815 152.424C38.8934 152.424 38.4167 151.945 38.4167 151.353C38.4167 150.762 38.8934 150.283 39.4815 150.283C40.0696 150.283 40.5463 150.762 40.5463 151.353Z" fill="#707070"/>
<path d="M26.7037 136.363C26.7037 136.954 26.227 137.434 25.6389 137.434C25.0508 137.434 24.5741 136.954 24.5741 136.363C24.5741 135.771 25.0508 135.292 25.6389 135.292C26.227 135.292 26.7037 135.771 26.7037 136.363Z" fill="#707070"/>
<path d="M26.7037 121.372C26.7037 121.964 26.227 122.443 25.6389 122.443C25.0508 122.443 24.5741 121.964 24.5741 121.372C24.5741 120.781 25.0508 120.301 25.6389 120.301C26.227 120.301 26.7037 120.781 26.7037 121.372Z" fill="#707070"/>
<path d="M41.6111 136.363C41.6111 136.954 41.1344 137.434 40.5463 137.434C39.9582 137.434 39.4815 136.954 39.4815 136.363C39.4815 135.771 39.9582 135.292 40.5463 135.292C41.1344 135.292 41.6111 135.771 41.6111 136.363Z" fill="#707070"/>
<path d="M41.6111 121.372C41.6111 121.964 41.1344 122.443 40.5463 122.443C39.9582 122.443 39.4815 121.964 39.4815 121.372C39.4815 120.781 39.9582 120.301 40.5463 120.301C41.1344 120.301 41.6111 120.781 41.6111 121.372Z" fill="#707070"/>
<path d="M-4.1759 136.363C-4.1759 136.954 -4.65263 137.434 -5.24071 137.434C-5.82879 137.434 -6.30553 136.954 -6.30553 136.363C-6.30553 135.771 -5.82879 135.292 -5.24071 135.292C-4.65263 135.292 -4.1759 135.771 -4.1759 136.363Z" fill="#707070"/>
<path d="M-4.1759 121.372C-4.1759 121.964 -4.65263 122.443 -5.24071 122.443C-5.82879 122.443 -6.30553 121.964 -6.30553 121.372C-6.30553 120.781 -5.82879 120.301 -5.24071 120.301C-4.65263 120.301 -4.1759 120.781 -4.1759 121.372Z" fill="#707070"/>
<path d="M10.7315 136.363C10.7315 136.954 10.2548 137.434 9.66669 137.434C9.07861 137.434 8.60188 136.954 8.60188 136.363C8.60188 135.771 9.07861 135.292 9.66669 135.292C10.2548 135.292 10.7315 135.771 10.7315 136.363Z" fill="#707070"/>
<path d="M10.7315 121.372C10.7315 121.964 10.2548 122.443 9.66669 122.443C9.07861 122.443 8.60188 121.964 8.60188 121.372C8.60188 120.781 9.07861 120.301 9.66669 120.301C10.2548 120.301 10.7315 120.781 10.7315 121.372Z" fill="#707070"/>
<path d="M117.213 226.306C117.213 226.898 116.736 227.377 116.148 227.377C115.56 227.377 115.083 226.898 115.083 226.306C115.083 225.715 115.56 225.235 116.148 225.235C116.736 225.235 117.213 225.715 117.213 226.306Z" fill="#707070"/>
<path d="M117.213 211.316C117.213 211.907 116.736 212.386 116.148 212.386C115.56 212.386 115.083 211.907 115.083 211.316C115.083 210.724 115.56 210.245 116.148 210.245C116.736 210.245 117.213 210.724 117.213 211.316Z" fill="#707070"/>
<path d="M132.12 226.306C132.12 226.898 131.644 227.377 131.056 227.377C130.467 227.377 129.991 226.898 129.991 226.306C129.991 225.715 130.467 225.235 131.056 225.235C131.644 225.235 132.12 225.715 132.12 226.306Z" fill="#707070"/>
<path d="M132.12 211.316C132.12 211.907 131.644 212.386 131.056 212.386C130.467 212.386 129.991 211.907 129.991 211.316C129.991 210.724 130.467 210.245 131.056 210.245C131.644 210.245 132.12 210.724 132.12 211.316Z" fill="#707070"/>
<path d="M147.028 226.306C147.028 226.898 146.551 227.377 145.963 227.377C145.375 227.377 144.898 226.898 144.898 226.306C144.898 225.715 145.375 225.235 145.963 225.235C146.551 225.235 147.028 225.715 147.028 226.306Z" fill="#707070"/>
<path d="M147.028 211.316C147.028 211.907 146.551 212.386 145.963 212.386C145.375 212.386 144.898 211.907 144.898 211.316C144.898 210.724 145.375 210.245 145.963 210.245C146.551 210.245 147.028 210.724 147.028 211.316Z" fill="#707070"/>
<path d="M161.935 226.306C161.935 226.898 161.458 227.377 160.87 227.377C160.282 227.377 159.806 226.898 159.806 226.306C159.806 225.715 160.282 225.235 160.87 225.235C161.458 225.235 161.935 225.715 161.935 226.306Z" fill="#707070"/>
<path d="M161.935 211.316C161.935 211.907 161.458 212.386 160.87 212.386C160.282 212.386 159.806 211.907 159.806 211.316C159.806 210.724 160.282 210.245 160.87 210.245C161.458 210.245 161.935 210.724 161.935 211.316Z" fill="#707070"/>
<path d="M148.093 196.325C148.093 196.916 147.616 197.396 147.028 197.396C146.44 197.396 145.963 196.916 145.963 196.325C145.963 195.734 146.44 195.254 147.028 195.254C147.616 195.254 148.093 195.734 148.093 196.325Z" fill="#707070"/>
<path d="M148.093 181.335C148.093 181.926 147.616 182.405 147.028 182.405C146.44 182.405 145.963 181.926 145.963 181.335C145.963 180.743 146.44 180.264 147.028 180.264C147.616 180.264 148.093 180.743 148.093 181.335Z" fill="#707070"/>
<path d="M163 196.325C163 196.916 162.523 197.396 161.935 197.396C161.347 197.396 160.87 196.916 160.87 196.325C160.87 195.734 161.347 195.254 161.935 195.254C162.523 195.254 163 195.734 163 196.325Z" fill="#707070"/>
<path d="M163 181.335C163 181.926 162.523 182.405 161.935 182.405C161.347 182.405 160.87 181.926 160.87 181.335C160.87 180.743 161.347 180.264 161.935 180.264C162.523 180.264 163 180.743 163 181.335Z" fill="#707070"/>
<path d="M117.213 196.325C117.213 196.916 116.736 197.396 116.148 197.396C115.56 197.396 115.083 196.916 115.083 196.325C115.083 195.734 115.56 195.254 116.148 195.254C116.736 195.254 117.213 195.734 117.213 196.325Z" fill="#707070"/>
<path d="M117.213 181.335C117.213 181.926 116.736 182.405 116.148 182.405C115.56 182.405 115.083 181.926 115.083 181.335C115.083 180.743 115.56 180.264 116.148 180.264C116.736 180.264 117.213 180.743 117.213 181.335Z" fill="#707070"/>
<path d="M132.12 196.325C132.12 196.916 131.644 197.396 131.056 197.396C130.467 197.396 129.991 196.916 129.991 196.325C129.991 195.734 130.467 195.254 131.056 195.254C131.644 195.254 132.12 195.734 132.12 196.325Z" fill="#707070"/>
<path d="M132.12 181.335C132.12 181.926 131.644 182.405 131.056 182.405C130.467 182.405 129.991 181.926 129.991 181.335C129.991 180.743 130.467 180.264 131.056 180.264C131.644 180.264 132.12 180.743 132.12 181.335Z" fill="#707070"/>
<path d="M56.5185 226.306C56.5185 226.898 56.0418 227.377 55.4537 227.377C54.8657 227.377 54.3889 226.898 54.3889 226.306C54.3889 225.715 54.8657 225.235 55.4537 225.235C56.0418 225.235 56.5185 225.715 56.5185 226.306Z" fill="#707070"/>
<path d="M56.5185 211.316C56.5185 211.907 56.0418 212.386 55.4537 212.386C54.8657 212.386 54.3889 211.907 54.3889 211.316C54.3889 210.724 54.8657 210.245 55.4537 210.245C56.0418 210.245 56.5185 210.724 56.5185 211.316Z" fill="#707070"/>
<path d="M71.4259 226.306C71.4259 226.898 70.9492 227.377 70.3611 227.377C69.7731 227.377 69.2963 226.898 69.2963 226.306C69.2963 225.715 69.7731 225.235 70.3611 225.235C70.9492 225.235 71.4259 225.715 71.4259 226.306Z" fill="#707070"/>
<path d="M71.4259 211.316C71.4259 211.907 70.9492 212.386 70.3611 212.386C69.7731 212.386 69.2963 211.907 69.2963 211.316C69.2963 210.724 69.7731 210.245 70.3611 210.245C70.9492 210.245 71.4259 210.724 71.4259 211.316Z" fill="#707070"/>
<path d="M86.3334 226.306C86.3334 226.898 85.8566 227.377 85.2686 227.377C84.6805 227.377 84.2037 226.898 84.2037 226.306C84.2037 225.715 84.6805 225.235 85.2686 225.235C85.8566 225.235 86.3334 225.715 86.3334 226.306Z" fill="#707070"/>
<path d="M86.3334 211.316C86.3334 211.907 85.8566 212.386 85.2686 212.386C84.6805 212.386 84.2037 211.907 84.2037 211.316C84.2037 210.724 84.6805 210.245 85.2686 210.245C85.8566 210.245 86.3334 210.724 86.3334 211.316Z" fill="#707070"/>
<path d="M101.241 226.306C101.241 226.898 100.764 227.377 100.176 227.377C99.5879 227.377 99.1111 226.898 99.1111 226.306C99.1111 225.715 99.5879 225.235 100.176 225.235C100.764 225.235 101.241 225.715 101.241 226.306Z" fill="#707070"/>
<path d="M101.241 211.316C101.241 211.907 100.764 212.386 100.176 212.386C99.5879 212.386 99.1111 211.907 99.1111 211.316C99.1111 210.724 99.5879 210.245 100.176 210.245C100.764 210.245 101.241 210.724 101.241 211.316Z" fill="#707070"/>
<path d="M87.3982 196.325C87.3982 196.916 86.9214 197.396 86.3334 197.396C85.7453 197.396 85.2686 196.916 85.2686 196.325C85.2686 195.734 85.7453 195.254 86.3334 195.254C86.9214 195.254 87.3982 195.734 87.3982 196.325Z" fill="#707070"/>
<path d="M87.3982 181.335C87.3982 181.926 86.9214 182.405 86.3334 182.405C85.7453 182.405 85.2686 181.926 85.2686 181.335C85.2686 180.743 85.7453 180.264 86.3334 180.264C86.9214 180.264 87.3982 180.743 87.3982 181.335Z" fill="#707070"/>
<path d="M102.306 196.325C102.306 196.916 101.829 197.396 101.241 197.396C100.653 197.396 100.176 196.916 100.176 196.325C100.176 195.734 100.653 195.254 101.241 195.254C101.829 195.254 102.306 195.734 102.306 196.325Z" fill="#707070"/>
<path d="M102.306 181.335C102.306 181.926 101.829 182.405 101.241 182.405C100.653 182.405 100.176 181.926 100.176 181.335C100.176 180.743 100.653 180.264 101.241 180.264C101.829 180.264 102.306 180.743 102.306 181.335Z" fill="#707070"/>
<path d="M56.5185 196.325C56.5185 196.916 56.0418 197.396 55.4537 197.396C54.8657 197.396 54.3889 196.916 54.3889 196.325C54.3889 195.734 54.8657 195.254 55.4537 195.254C56.0418 195.254 56.5185 195.734 56.5185 196.325Z" fill="#707070"/>
<path d="M56.5185 181.335C56.5185 181.926 56.0418 182.405 55.4537 182.405C54.8657 182.405 54.3889 181.926 54.3889 181.335C54.3889 180.743 54.8657 180.264 55.4537 180.264C56.0418 180.264 56.5185 180.743 56.5185 181.335Z" fill="#707070"/>
<path d="M71.4259 196.325C71.4259 196.916 70.9492 197.396 70.3611 197.396C69.7731 197.396 69.2963 196.916 69.2963 196.325C69.2963 195.734 69.7731 195.254 70.3611 195.254C70.9492 195.254 71.4259 195.734 71.4259 196.325Z" fill="#707070"/>
<path d="M71.4259 181.335C71.4259 181.926 70.9492 182.405 70.3611 182.405C69.7731 182.405 69.2963 181.926 69.2963 181.335C69.2963 180.743 69.7731 180.264 70.3611 180.264C70.9492 180.264 71.4259 180.743 71.4259 181.335Z" fill="#707070"/>
<path d="M56.5185 166.344C56.5185 166.935 56.0418 167.415 55.4537 167.415C54.8657 167.415 54.3889 166.935 54.3889 166.344C54.3889 165.753 54.8657 165.273 55.4537 165.273C56.0418 165.273 56.5185 165.753 56.5185 166.344Z" fill="#707070"/>
<path d="M56.5185 151.353C56.5185 151.945 56.0418 152.424 55.4537 152.424C54.8657 152.424 54.3889 151.945 54.3889 151.353C54.3889 150.762 54.8657 150.283 55.4537 150.283C56.0418 150.283 56.5185 150.762 56.5185 151.353Z" fill="#707070"/>
<path d="M71.4259 166.344C71.4259 166.935 70.9492 167.415 70.3611 167.415C69.7731 167.415 69.2963 166.935 69.2963 166.344C69.2963 165.753 69.7731 165.273 70.3611 165.273C70.9492 165.273 71.4259 165.753 71.4259 166.344Z" fill="#707070"/>
<path d="M71.4259 151.353C71.4259 151.945 70.9492 152.424 70.3611 152.424C69.7731 152.424 69.2963 151.945 69.2963 151.353C69.2963 150.762 69.7731 150.283 70.3611 150.283C70.9492 150.283 71.4259 150.762 71.4259 151.353Z" fill="#707070"/>
<path d="M86.3334 166.344C86.3334 166.935 85.8566 167.415 85.2686 167.415C84.6805 167.415 84.2037 166.935 84.2037 166.344C84.2037 165.753 84.6805 165.273 85.2686 165.273C85.8566 165.273 86.3334 165.753 86.3334 166.344Z" fill="#707070"/>
<path d="M86.3334 151.353C86.3334 151.945 85.8566 152.424 85.2686 152.424C84.6805 152.424 84.2037 151.945 84.2037 151.353C84.2037 150.762 84.6805 150.283 85.2686 150.283C85.8566 150.283 86.3334 150.762 86.3334 151.353Z" fill="#707070"/>
<path d="M101.241 166.344C101.241 166.935 100.764 167.415 100.176 167.415C99.5879 167.415 99.1111 166.935 99.1111 166.344C99.1111 165.753 99.5879 165.273 100.176 165.273C100.764 165.273 101.241 165.753 101.241 166.344Z" fill="#707070"/>
<path d="M101.241 151.353C101.241 151.945 100.764 152.424 100.176 152.424C99.5879 152.424 99.1111 151.945 99.1111 151.353C99.1111 150.762 99.5879 150.283 100.176 150.283C100.764 150.283 101.241 150.762 101.241 151.353Z" fill="#707070"/>
<path d="M87.3982 136.363C87.3982 136.954 86.9214 137.434 86.3334 137.434C85.7453 137.434 85.2686 136.954 85.2686 136.363C85.2686 135.771 85.7453 135.292 86.3334 135.292C86.9214 135.292 87.3982 135.771 87.3982 136.363Z" fill="#707070"/>
<path d="M87.3982 121.372C87.3982 121.964 86.9214 122.443 86.3334 122.443C85.7453 122.443 85.2686 121.964 85.2686 121.372C85.2686 120.781 85.7453 120.301 86.3334 120.301C86.9214 120.301 87.3982 120.781 87.3982 121.372Z" fill="#707070"/>
<path d="M102.306 136.363C102.306 136.954 101.829 137.434 101.241 137.434C100.653 137.434 100.176 136.954 100.176 136.363C100.176 135.771 100.653 135.292 101.241 135.292C101.829 135.292 102.306 135.771 102.306 136.363Z" fill="#707070"/>
<path d="M102.306 121.372C102.306 121.964 101.829 122.443 101.241 122.443C100.653 122.443 100.176 121.964 100.176 121.372C100.176 120.781 100.653 120.301 101.241 120.301C101.829 120.301 102.306 120.781 102.306 121.372Z" fill="#707070"/>
<path d="M56.5185 136.363C56.5185 136.954 56.0418 137.434 55.4537 137.434C54.8657 137.434 54.3889 136.954 54.3889 136.363C54.3889 135.771 54.8657 135.292 55.4537 135.292C56.0418 135.292 56.5185 135.771 56.5185 136.363Z" fill="#707070"/>
<path d="M56.5185 121.372C56.5185 121.964 56.0418 122.443 55.4537 122.443C54.8657 122.443 54.3889 121.964 54.3889 121.372C54.3889 120.781 54.8657 120.301 55.4537 120.301C56.0418 120.301 56.5185 120.781 56.5185 121.372Z" fill="#707070"/>
<path d="M71.4259 136.363C71.4259 136.954 70.9492 137.434 70.3611 137.434C69.7731 137.434 69.2963 136.954 69.2963 136.363C69.2963 135.771 69.7731 135.292 70.3611 135.292C70.9492 135.292 71.4259 135.771 71.4259 136.363Z" fill="#707070"/>
<path d="M71.4259 121.372C71.4259 121.964 70.9492 122.443 70.3611 122.443C69.7731 122.443 69.2963 121.964 69.2963 121.372C69.2963 120.781 69.7731 120.301 70.3611 120.301C70.9492 120.301 71.4259 120.781 71.4259 121.372Z" fill="#707070"/>
<path d="M117.213 166.344C117.213 166.935 116.736 167.415 116.148 167.415C115.56 167.415 115.083 166.935 115.083 166.344C115.083 165.753 115.56 165.273 116.148 165.273C116.736 165.273 117.213 165.753 117.213 166.344Z" fill="#707070"/>
<path d="M117.213 151.353C117.213 151.945 116.736 152.424 116.148 152.424C115.56 152.424 115.083 151.945 115.083 151.353C115.083 150.762 115.56 150.283 116.148 150.283C116.736 150.283 117.213 150.762 117.213 151.353Z" fill="#707070"/>
<path d="M132.12 166.344C132.12 166.935 131.644 167.415 131.056 167.415C130.467 167.415 129.991 166.935 129.991 166.344C129.991 165.753 130.467 165.273 131.056 165.273C131.644 165.273 132.12 165.753 132.12 166.344Z" fill="#707070"/>
<path d="M132.12 151.353C132.12 151.945 131.644 152.424 131.056 152.424C130.467 152.424 129.991 151.945 129.991 151.353C129.991 150.762 130.467 150.283 131.056 150.283C131.644 150.283 132.12 150.762 132.12 151.353Z" fill="#707070"/>
<path d="M147.028 166.344C147.028 166.935 146.551 167.415 145.963 167.415C145.375 167.415 144.898 166.935 144.898 166.344C144.898 165.753 145.375 165.273 145.963 165.273C146.551 165.273 147.028 165.753 147.028 166.344Z" fill="#707070"/>
<path d="M147.028 151.353C147.028 151.945 146.551 152.424 145.963 152.424C145.375 152.424 144.898 151.945 144.898 151.353C144.898 150.762 145.375 150.283 145.963 150.283C146.551 150.283 147.028 150.762 147.028 151.353Z" fill="#707070"/>
<path d="M161.935 166.344C161.935 166.935 161.458 167.415 160.87 167.415C160.282 167.415 159.806 166.935 159.806 166.344C159.806 165.753 160.282 165.273 160.87 165.273C161.458 165.273 161.935 165.753 161.935 166.344Z" fill="#707070"/>
<path d="M161.935 151.353C161.935 151.945 161.458 152.424 160.87 152.424C160.282 152.424 159.806 151.945 159.806 151.353C159.806 150.762 160.282 150.283 160.87 150.283C161.458 150.283 161.935 150.762 161.935 151.353Z" fill="#707070"/>
<path d="M148.093 136.363C148.093 136.954 147.616 137.434 147.028 137.434C146.44 137.434 145.963 136.954 145.963 136.363C145.963 135.771 146.44 135.292 147.028 135.292C147.616 135.292 148.093 135.771 148.093 136.363Z" fill="#707070"/>
<path d="M148.093 121.372C148.093 121.964 147.616 122.443 147.028 122.443C146.44 122.443 145.963 121.964 145.963 121.372C145.963 120.781 146.44 120.301 147.028 120.301C147.616 120.301 148.093 120.781 148.093 121.372Z" fill="#707070"/>
<path d="M163 136.363C163 136.954 162.523 137.434 161.935 137.434C161.347 137.434 160.87 136.954 160.87 136.363C160.87 135.771 161.347 135.292 161.935 135.292C162.523 135.292 163 135.771 163 136.363Z" fill="#707070"/>
<path d="M163 121.372C163 121.964 162.523 122.443 161.935 122.443C161.347 122.443 160.87 121.964 160.87 121.372C160.87 120.781 161.347 120.301 161.935 120.301C162.523 120.301 163 120.781 163 121.372Z" fill="#707070"/>
<path d="M117.213 136.363C117.213 136.954 116.736 137.434 116.148 137.434C115.56 137.434 115.083 136.954 115.083 136.363C115.083 135.771 115.56 135.292 116.148 135.292C116.736 135.292 117.213 135.771 117.213 136.363Z" fill="#707070"/>
<path d="M117.213 121.372C117.213 121.964 116.736 122.443 116.148 122.443C115.56 122.443 115.083 121.964 115.083 121.372C115.083 120.781 115.56 120.301 116.148 120.301C116.736 120.301 117.213 120.781 117.213 121.372Z" fill="#707070"/>
<path d="M132.12 136.363C132.12 136.954 131.644 137.434 131.056 137.434C130.467 137.434 129.991 136.954 129.991 136.363C129.991 135.771 130.467 135.292 131.056 135.292C131.644 135.292 132.12 135.771 132.12 136.363Z" fill="#707070"/>
<path d="M132.12 121.372C132.12 121.964 131.644 122.443 131.056 122.443C130.467 122.443 129.991 121.964 129.991 121.372C129.991 120.781 130.467 120.301 131.056 120.301C131.644 120.301 132.12 120.781 132.12 121.372Z" fill="#707070"/>
<path d="M-4.1759 106.382C-4.1759 106.973 -4.65263 107.452 -5.24071 107.452C-5.82879 107.452 -6.30553 106.973 -6.30553 106.382C-6.30553 105.79 -5.82879 105.311 -5.24071 105.311C-4.65263 105.311 -4.1759 105.79 -4.1759 106.382Z" fill="#707070"/>
<path d="M-4.1759 91.3911C-4.1759 91.9825 -4.65263 92.4619 -5.24071 92.4619C-5.82879 92.4619 -6.30553 91.9825 -6.30553 91.3911C-6.30553 90.7997 -5.82879 90.3204 -5.24071 90.3204C-4.65263 90.3204 -4.1759 90.7997 -4.1759 91.3911Z" fill="#707070"/>
<path d="M10.7315 106.382C10.7315 106.973 10.2548 107.452 9.66669 107.452C9.07861 107.452 8.60188 106.973 8.60188 106.382C8.60188 105.79 9.07861 105.311 9.66669 105.311C10.2548 105.311 10.7315 105.79 10.7315 106.382Z" fill="#707070"/>
<path d="M10.7315 91.3911C10.7315 91.9825 10.2548 92.4619 9.66669 92.4619C9.07861 92.4619 8.60188 91.9825 8.60188 91.3911C8.60188 90.7997 9.07861 90.3204 9.66669 90.3204C10.2548 90.3204 10.7315 90.7997 10.7315 91.3911Z" fill="#707070"/>
<path d="M25.6389 106.382C25.6389 106.973 25.1622 107.452 24.5741 107.452C23.986 107.452 23.5093 106.973 23.5093 106.382C23.5093 105.79 23.986 105.311 24.5741 105.311C25.1622 105.311 25.6389 105.79 25.6389 106.382Z" fill="#707070"/>
<path d="M25.6389 91.3911C25.6389 91.9825 25.1622 92.4619 24.5741 92.4619C23.986 92.4619 23.5093 91.9825 23.5093 91.3911C23.5093 90.7997 23.986 90.3204 24.5741 90.3204C25.1622 90.3204 25.6389 90.7997 25.6389 91.3911Z" fill="#707070"/>
<path d="M40.5463 106.382C40.5463 106.973 40.0696 107.452 39.4815 107.452C38.8934 107.452 38.4167 106.973 38.4167 106.382C38.4167 105.79 38.8934 105.311 39.4815 105.311C40.0696 105.311 40.5463 105.79 40.5463 106.382Z" fill="#707070"/>
<path d="M40.5463 91.3911C40.5463 91.9825 40.0696 92.4619 39.4815 92.4619C38.8934 92.4619 38.4167 91.9825 38.4167 91.3911C38.4167 90.7997 38.8934 90.3204 39.4815 90.3204C40.0696 90.3204 40.5463 90.7997 40.5463 91.3911Z" fill="#707070"/>
<path d="M26.7037 76.4005C26.7037 76.9919 26.227 77.4713 25.6389 77.4713C25.0508 77.4713 24.5741 76.9919 24.5741 76.4005C24.5741 75.8092 25.0508 75.3298 25.6389 75.3298C26.227 75.3298 26.7037 75.8092 26.7037 76.4005Z" fill="#707070"/>
<path d="M26.7037 61.41C26.7037 62.0013 26.227 62.4807 25.6389 62.4807C25.0508 62.4807 24.5741 62.0013 24.5741 61.41C24.5741 60.8186 25.0508 60.3392 25.6389 60.3392C26.227 60.3392 26.7037 60.8186 26.7037 61.41Z" fill="#707070"/>
<path d="M41.6111 76.4005C41.6111 76.9919 41.1344 77.4713 40.5463 77.4713C39.9582 77.4713 39.4815 76.9919 39.4815 76.4005C39.4815 75.8092 39.9582 75.3298 40.5463 75.3298C41.1344 75.3298 41.6111 75.8092 41.6111 76.4005Z" fill="#707070"/>
<path d="M41.6111 61.41C41.6111 62.0013 41.1344 62.4807 40.5463 62.4807C39.9582 62.4807 39.4815 62.0013 39.4815 61.41C39.4815 60.8186 39.9582 60.3392 40.5463 60.3392C41.1344 60.3392 41.6111 60.8186 41.6111 61.41Z" fill="#707070"/>
<path d="M-4.1759 76.4005C-4.1759 76.9919 -4.65263 77.4713 -5.24071 77.4713C-5.82879 77.4713 -6.30553 76.9919 -6.30553 76.4005C-6.30553 75.8092 -5.82879 75.3298 -5.24071 75.3298C-4.65263 75.3298 -4.1759 75.8092 -4.1759 76.4005Z" fill="#707070"/>
<path d="M-4.1759 61.41C-4.1759 62.0013 -4.65263 62.4807 -5.24071 62.4807C-5.82879 62.4807 -6.30553 62.0013 -6.30553 61.41C-6.30553 60.8186 -5.82879 60.3392 -5.24071 60.3392C-4.65263 60.3392 -4.1759 60.8186 -4.1759 61.41Z" fill="#707070"/>
<path d="M10.7315 76.4005C10.7315 76.9919 10.2548 77.4713 9.66669 77.4713C9.07861 77.4713 8.60188 76.9919 8.60188 76.4005C8.60188 75.8092 9.07861 75.3298 9.66669 75.3298C10.2548 75.3298 10.7315 75.8092 10.7315 76.4005Z" fill="#707070"/>
<path d="M10.7315 61.41C10.7315 62.0013 10.2548 62.4807 9.66669 62.4807C9.07861 62.4807 8.60188 62.0013 8.60188 61.41C8.60188 60.8186 9.07861 60.3392 9.66669 60.3392C10.2548 60.3392 10.7315 60.8186 10.7315 61.41Z" fill="#707070"/>
<path d="M-64.8703 106.382C-64.8703 106.973 -65.3471 107.452 -65.9352 107.452C-66.5232 107.452 -67 106.973 -67 106.382C-67 105.79 -66.5232 105.311 -65.9352 105.311C-65.3471 105.311 -64.8703 105.79 -64.8703 106.382Z" fill="#707070"/>
<path d="M-64.8703 91.3911C-64.8703 91.9825 -65.3471 92.4619 -65.9352 92.4619C-66.5232 92.4619 -67 91.9825 -67 91.3911C-67 90.7997 -66.5232 90.3204 -65.9352 90.3204C-65.3471 90.3204 -64.8703 90.7997 -64.8703 91.3911Z" fill="#707070"/>
<path d="M-49.9629 106.382C-49.9629 106.973 -50.4397 107.452 -51.0277 107.452C-51.6158 107.452 -52.0926 106.973 -52.0926 106.382C-52.0926 105.79 -51.6158 105.311 -51.0277 105.311C-50.4397 105.311 -49.9629 105.79 -49.9629 106.382Z" fill="#707070"/>
<path d="M-49.9629 91.3911C-49.9629 91.9825 -50.4397 92.4619 -51.0277 92.4619C-51.6158 92.4619 -52.0926 91.9825 -52.0926 91.3911C-52.0926 90.7997 -51.6158 90.3204 -51.0277 90.3204C-50.4397 90.3204 -49.9629 90.7997 -49.9629 91.3911Z" fill="#707070"/>
<path d="M-35.0555 106.382C-35.0555 106.973 -35.5323 107.452 -36.1203 107.452C-36.7084 107.452 -37.1852 106.973 -37.1852 106.382C-37.1852 105.79 -36.7084 105.311 -36.1203 105.311C-35.5323 105.311 -35.0555 105.79 -35.0555 106.382Z" fill="#707070"/>
<path d="M-35.0555 91.3911C-35.0555 91.9825 -35.5323 92.4619 -36.1203 92.4619C-36.7084 92.4619 -37.1852 91.9825 -37.1852 91.3911C-37.1852 90.7997 -36.7084 90.3204 -36.1203 90.3204C-35.5323 90.3204 -35.0555 90.7997 -35.0555 91.3911Z" fill="#707070"/>
<path d="M-20.1481 106.382C-20.1481 106.973 -20.6249 107.452 -21.2129 107.452C-21.801 107.452 -22.2777 106.973 -22.2777 106.382C-22.2777 105.79 -21.801 105.311 -21.2129 105.311C-20.6249 105.311 -20.1481 105.79 -20.1481 106.382Z" fill="#707070"/>
<path d="M-20.1481 91.3911C-20.1481 91.9825 -20.6249 92.4619 -21.2129 92.4619C-21.801 92.4619 -22.2777 91.9825 -22.2777 91.3911C-22.2777 90.7997 -21.801 90.3204 -21.2129 90.3204C-20.6249 90.3204 -20.1481 90.7997 -20.1481 91.3911Z" fill="#707070"/>
<path d="M-33.9907 76.4005C-33.9907 76.9919 -34.4674 77.4713 -35.0555 77.4713C-35.6436 77.4713 -36.1203 76.9919 -36.1203 76.4005C-36.1203 75.8092 -35.6436 75.3298 -35.0555 75.3298C-34.4674 75.3298 -33.9907 75.8092 -33.9907 76.4005Z" fill="#707070"/>
<path d="M-33.9907 61.41C-33.9907 62.0013 -34.4674 62.4807 -35.0555 62.4807C-35.6436 62.4807 -36.1203 62.0013 -36.1203 61.41C-36.1203 60.8186 -35.6436 60.3392 -35.0555 60.3392C-34.4674 60.3392 -33.9907 60.8186 -33.9907 61.41Z" fill="#707070"/>
<path d="M-19.0833 76.4005C-19.0833 76.9919 -19.56 77.4713 -20.1481 77.4713C-20.7362 77.4713 -21.2129 76.9919 -21.2129 76.4005C-21.2129 75.8092 -20.7362 75.3298 -20.1481 75.3298C-19.56 75.3298 -19.0833 75.8092 -19.0833 76.4005Z" fill="#707070"/>
<path d="M-19.0833 61.41C-19.0833 62.0013 -19.56 62.4807 -20.1481 62.4807C-20.7362 62.4807 -21.2129 62.0013 -21.2129 61.41C-21.2129 60.8186 -20.7362 60.3392 -20.1481 60.3392C-19.56 60.3392 -19.0833 60.8186 -19.0833 61.41Z" fill="#707070"/>
<path d="M-64.8703 76.4005C-64.8703 76.9919 -65.3471 77.4713 -65.9352 77.4713C-66.5232 77.4713 -67 76.9919 -67 76.4005C-67 75.8092 -66.5232 75.3298 -65.9352 75.3298C-65.3471 75.3298 -64.8703 75.8092 -64.8703 76.4005Z" fill="#707070"/>
<path d="M-64.8703 61.41C-64.8703 62.0013 -65.3471 62.4807 -65.9352 62.4807C-66.5232 62.4807 -67 62.0013 -67 61.41C-67 60.8186 -66.5232 60.3392 -65.9352 60.3392C-65.3471 60.3392 -64.8703 60.8186 -64.8703 61.41Z" fill="#707070"/>
<path d="M-49.9629 76.4005C-49.9629 76.9919 -50.4397 77.4713 -51.0277 77.4713C-51.6158 77.4713 -52.0926 76.9919 -52.0926 76.4005C-52.0926 75.8092 -51.6158 75.3298 -51.0277 75.3298C-50.4397 75.3298 -49.9629 75.8092 -49.9629 76.4005Z" fill="#707070"/>
<path d="M-49.9629 61.41C-49.9629 62.0013 -50.4397 62.4807 -51.0277 62.4807C-51.6158 62.4807 -52.0926 62.0013 -52.0926 61.41C-52.0926 60.8186 -51.6158 60.3392 -51.0277 60.3392C-50.4397 60.3392 -49.9629 60.8186 -49.9629 61.41Z" fill="#707070"/>
<path d="M-64.8703 46.4194C-64.8703 47.0108 -65.3471 47.4902 -65.9352 47.4902C-66.5232 47.4902 -67 47.0108 -67 46.4194C-67 45.828 -66.5232 45.3487 -65.9352 45.3487C-65.3471 45.3487 -64.8703 45.828 -64.8703 46.4194Z" fill="#707070"/>
<path d="M-64.8703 31.4288C-64.8703 32.0202 -65.3471 32.4996 -65.9352 32.4996C-66.5232 32.4996 -67 32.0202 -67 31.4288C-67 30.8375 -66.5232 30.3581 -65.9352 30.3581C-65.3471 30.3581 -64.8703 30.8375 -64.8703 31.4288Z" fill="#707070"/>
<path d="M-49.9629 46.4194C-49.9629 47.0108 -50.4397 47.4902 -51.0277 47.4902C-51.6158 47.4902 -52.0926 47.0108 -52.0926 46.4194C-52.0926 45.828 -51.6158 45.3487 -51.0277 45.3487C-50.4397 45.3487 -49.9629 45.828 -49.9629 46.4194Z" fill="#707070"/>
<path d="M-49.9629 31.4288C-49.9629 32.0202 -50.4397 32.4996 -51.0277 32.4996C-51.6158 32.4996 -52.0926 32.0202 -52.0926 31.4288C-52.0926 30.8375 -51.6158 30.3581 -51.0277 30.3581C-50.4397 30.3581 -49.9629 30.8375 -49.9629 31.4288Z" fill="#707070"/>
<path d="M-35.0555 46.4194C-35.0555 47.0108 -35.5323 47.4902 -36.1203 47.4902C-36.7084 47.4902 -37.1852 47.0108 -37.1852 46.4194C-37.1852 45.828 -36.7084 45.3487 -36.1203 45.3487C-35.5323 45.3487 -35.0555 45.828 -35.0555 46.4194Z" fill="#707070"/>
<path d="M-35.0555 31.4288C-35.0555 32.0202 -35.5323 32.4996 -36.1203 32.4996C-36.7084 32.4996 -37.1852 32.0202 -37.1852 31.4288C-37.1852 30.8375 -36.7084 30.3581 -36.1203 30.3581C-35.5323 30.3581 -35.0555 30.8375 -35.0555 31.4288Z" fill="#707070"/>
<path d="M-20.1481 46.4194C-20.1481 47.0108 -20.6249 47.4902 -21.2129 47.4902C-21.801 47.4902 -22.2777 47.0108 -22.2777 46.4194C-22.2777 45.828 -21.801 45.3487 -21.2129 45.3487C-20.6249 45.3487 -20.1481 45.828 -20.1481 46.4194Z" fill="#707070"/>
<path d="M-20.1481 31.4288C-20.1481 32.0202 -20.6249 32.4996 -21.2129 32.4996C-21.801 32.4996 -22.2777 32.0202 -22.2777 31.4288C-22.2777 30.8375 -21.801 30.3581 -21.2129 30.3581C-20.6249 30.3581 -20.1481 30.8375 -20.1481 31.4288Z" fill="#707070"/>
<path d="M-33.9907 16.4383C-33.9907 17.0296 -34.4674 17.509 -35.0555 17.509C-35.6436 17.509 -36.1203 17.0296 -36.1203 16.4383C-36.1203 15.8469 -35.6436 15.3675 -35.0555 15.3675C-34.4674 15.3675 -33.9907 15.8469 -33.9907 16.4383Z" fill="#707070"/>
<path d="M-33.9907 1.44771C-33.9907 2.03907 -34.4674 2.51846 -35.0555 2.51846C-35.6436 2.51846 -36.1203 2.03907 -36.1203 1.44771C-36.1203 0.856346 -35.6436 0.376953 -35.0555 0.376953C-34.4674 0.376953 -33.9907 0.856346 -33.9907 1.44771Z" fill="#707070"/>
<path d="M-19.0833 16.4383C-19.0833 17.0296 -19.56 17.509 -20.1481 17.509C-20.7362 17.509 -21.2129 17.0296 -21.2129 16.4383C-21.2129 15.8469 -20.7362 15.3675 -20.1481 15.3675C-19.56 15.3675 -19.0833 15.8469 -19.0833 16.4383Z" fill="#707070"/>
<path d="M-19.0833 1.44771C-19.0833 2.03907 -19.56 2.51846 -20.1481 2.51846C-20.7362 2.51846 -21.2129 2.03907 -21.2129 1.44771C-21.2129 0.856346 -20.7362 0.376953 -20.1481 0.376953C-19.56 0.376953 -19.0833 0.856346 -19.0833 1.44771Z" fill="#707070"/>
<path d="M-64.8703 16.4383C-64.8703 17.0296 -65.3471 17.509 -65.9352 17.509C-66.5232 17.509 -67 17.0296 -67 16.4383C-67 15.8469 -66.5232 15.3675 -65.9352 15.3675C-65.3471 15.3675 -64.8703 15.8469 -64.8703 16.4383Z" fill="#707070"/>
<path d="M-64.8703 1.44771C-64.8703 2.03907 -65.3471 2.51846 -65.9352 2.51846C-66.5232 2.51846 -67 2.03907 -67 1.44771C-67 0.856346 -66.5232 0.376953 -65.9352 0.376953C-65.3471 0.376953 -64.8703 0.856346 -64.8703 1.44771Z" fill="#707070"/>
<path d="M-49.9629 16.4383C-49.9629 17.0296 -50.4397 17.509 -51.0277 17.509C-51.6158 17.509 -52.0926 17.0296 -52.0926 16.4383C-52.0926 15.8469 -51.6158 15.3675 -51.0277 15.3675C-50.4397 15.3675 -49.9629 15.8469 -49.9629 16.4383Z" fill="#707070"/>
<path d="M-49.9629 1.44771C-49.9629 2.03907 -50.4397 2.51846 -51.0277 2.51846C-51.6158 2.51846 -52.0926 2.03907 -52.0926 1.44771C-52.0926 0.856346 -51.6158 0.376953 -51.0277 0.376953C-50.4397 0.376953 -49.9629 0.856346 -49.9629 1.44771Z" fill="#707070"/>
<path d="M-4.1759 46.4194C-4.1759 47.0108 -4.65263 47.4902 -5.24071 47.4902C-5.82879 47.4902 -6.30553 47.0108 -6.30553 46.4194C-6.30553 45.828 -5.82879 45.3487 -5.24071 45.3487C-4.65263 45.3487 -4.1759 45.828 -4.1759 46.4194Z" fill="#707070"/>
<path d="M-4.1759 31.4288C-4.1759 32.0202 -4.65263 32.4996 -5.24071 32.4996C-5.82879 32.4996 -6.30553 32.0202 -6.30553 31.4288C-6.30553 30.8375 -5.82879 30.3581 -5.24071 30.3581C-4.65263 30.3581 -4.1759 30.8375 -4.1759 31.4288Z" fill="#707070"/>
<path d="M10.7315 46.4194C10.7315 47.0108 10.2548 47.4902 9.66669 47.4902C9.07861 47.4902 8.60188 47.0108 8.60188 46.4194C8.60188 45.828 9.07861 45.3487 9.66669 45.3487C10.2548 45.3487 10.7315 45.828 10.7315 46.4194Z" fill="#707070"/>
<path d="M10.7315 31.4288C10.7315 32.0202 10.2548 32.4996 9.66669 32.4996C9.07861 32.4996 8.60188 32.0202 8.60188 31.4288C8.60188 30.8375 9.07861 30.3581 9.66669 30.3581C10.2548 30.3581 10.7315 30.8375 10.7315 31.4288Z" fill="#707070"/>
<path d="M25.6389 46.4194C25.6389 47.0108 25.1622 47.4902 24.5741 47.4902C23.986 47.4902 23.5093 47.0108 23.5093 46.4194C23.5093 45.828 23.986 45.3487 24.5741 45.3487C25.1622 45.3487 25.6389 45.828 25.6389 46.4194Z" fill="#707070"/>
<path d="M25.6389 31.4288C25.6389 32.0202 25.1622 32.4996 24.5741 32.4996C23.986 32.4996 23.5093 32.0202 23.5093 31.4288C23.5093 30.8375 23.986 30.3581 24.5741 30.3581C25.1622 30.3581 25.6389 30.8375 25.6389 31.4288Z" fill="#707070"/>
<path d="M40.5463 46.4194C40.5463 47.0108 40.0696 47.4902 39.4815 47.4902C38.8934 47.4902 38.4167 47.0108 38.4167 46.4194C38.4167 45.828 38.8934 45.3487 39.4815 45.3487C40.0696 45.3487 40.5463 45.828 40.5463 46.4194Z" fill="#707070"/>
<path d="M40.5463 31.4288C40.5463 32.0202 40.0696 32.4996 39.4815 32.4996C38.8934 32.4996 38.4167 32.0202 38.4167 31.4288C38.4167 30.8375 38.8934 30.3581 39.4815 30.3581C40.0696 30.3581 40.5463 30.8375 40.5463 31.4288Z" fill="#707070"/>
<path d="M26.7037 16.4383C26.7037 17.0296 26.227 17.509 25.6389 17.509C25.0508 17.509 24.5741 17.0296 24.5741 16.4383C24.5741 15.8469 25.0508 15.3675 25.6389 15.3675C26.227 15.3675 26.7037 15.8469 26.7037 16.4383Z" fill="#707070"/>
<path d="M26.7037 1.44771C26.7037 2.03907 26.227 2.51846 25.6389 2.51846C25.0508 2.51846 24.5741 2.03907 24.5741 1.44771C24.5741 0.856346 25.0508 0.376953 25.6389 0.376953C26.227 0.376953 26.7037 0.856346 26.7037 1.44771Z" fill="#707070"/>
<path d="M41.6111 16.4383C41.6111 17.0296 41.1344 17.509 40.5463 17.509C39.9582 17.509 39.4815 17.0296 39.4815 16.4383C39.4815 15.8469 39.9582 15.3675 40.5463 15.3675C41.1344 15.3675 41.6111 15.8469 41.6111 16.4383Z" fill="#707070"/>
<path d="M41.6111 1.44771C41.6111 2.03907 41.1344 2.51846 40.5463 2.51846C39.9582 2.51846 39.4815 2.03907 39.4815 1.44771C39.4815 0.856346 39.9582 0.376953 40.5463 0.376953C41.1344 0.376953 41.6111 0.856346 41.6111 1.44771Z" fill="#707070"/>
<path d="M-4.1759 16.4383C-4.1759 17.0296 -4.65263 17.509 -5.24071 17.509C-5.82879 17.509 -6.30553 17.0296 -6.30553 16.4383C-6.30553 15.8469 -5.82879 15.3675 -5.24071 15.3675C-4.65263 15.3675 -4.1759 15.8469 -4.1759 16.4383Z" fill="#707070"/>
<path d="M-4.1759 1.44771C-4.1759 2.03907 -4.65263 2.51846 -5.24071 2.51846C-5.82879 2.51846 -6.30553 2.03907 -6.30553 1.44771C-6.30553 0.856346 -5.82879 0.376953 -5.24071 0.376953C-4.65263 0.376953 -4.1759 0.856346 -4.1759 1.44771Z" fill="#707070"/>
<path d="M10.7315 16.4383C10.7315 17.0296 10.2548 17.509 9.66669 17.509C9.07861 17.509 8.60188 17.0296 8.60188 16.4383C8.60188 15.8469 9.07861 15.3675 9.66669 15.3675C10.2548 15.3675 10.7315 15.8469 10.7315 16.4383Z" fill="#707070"/>
<path d="M10.7315 1.44771C10.7315 2.03907 10.2548 2.51846 9.66669 2.51846C9.07861 2.51846 8.60188 2.03907 8.60188 1.44771C8.60188 0.856346 9.07861 0.376953 9.66669 0.376953C10.2548 0.376953 10.7315 0.856346 10.7315 1.44771Z" fill="#707070"/>
<path d="M117.213 106.382C117.213 106.973 116.736 107.452 116.148 107.452C115.56 107.452 115.083 106.973 115.083 106.382C115.083 105.79 115.56 105.311 116.148 105.311C116.736 105.311 117.213 105.79 117.213 106.382Z" fill="#707070"/>
<path d="M117.213 91.3911C117.213 91.9825 116.736 92.4619 116.148 92.4619C115.56 92.4619 115.083 91.9825 115.083 91.3911C115.083 90.7997 115.56 90.3204 116.148 90.3204C116.736 90.3204 117.213 90.7997 117.213 91.3911Z" fill="#707070"/>
<path d="M132.12 106.382C132.12 106.973 131.644 107.452 131.056 107.452C130.467 107.452 129.991 106.973 129.991 106.382C129.991 105.79 130.467 105.311 131.056 105.311C131.644 105.311 132.12 105.79 132.12 106.382Z" fill="#707070"/>
<path d="M132.12 91.3911C132.12 91.9825 131.644 92.4619 131.056 92.4619C130.467 92.4619 129.991 91.9825 129.991 91.3911C129.991 90.7997 130.467 90.3204 131.056 90.3204C131.644 90.3204 132.12 90.7997 132.12 91.3911Z" fill="#707070"/>
<path d="M147.028 106.382C147.028 106.973 146.551 107.452 145.963 107.452C145.375 107.452 144.898 106.973 144.898 106.382C144.898 105.79 145.375 105.311 145.963 105.311C146.551 105.311 147.028 105.79 147.028 106.382Z" fill="#707070"/>
<path d="M147.028 91.3911C147.028 91.9825 146.551 92.4619 145.963 92.4619C145.375 92.4619 144.898 91.9825 144.898 91.3911C144.898 90.7997 145.375 90.3204 145.963 90.3204C146.551 90.3204 147.028 90.7997 147.028 91.3911Z" fill="#707070"/>
<path d="M161.935 106.382C161.935 106.973 161.458 107.452 160.87 107.452C160.282 107.452 159.806 106.973 159.806 106.382C159.806 105.79 160.282 105.311 160.87 105.311C161.458 105.311 161.935 105.79 161.935 106.382Z" fill="#707070"/>
<path d="M161.935 91.3911C161.935 91.9825 161.458 92.4619 160.87 92.4619C160.282 92.4619 159.806 91.9825 159.806 91.3911C159.806 90.7997 160.282 90.3204 160.87 90.3204C161.458 90.3204 161.935 90.7997 161.935 91.3911Z" fill="#707070"/>
<path d="M148.093 76.4005C148.093 76.9919 147.616 77.4713 147.028 77.4713C146.44 77.4713 145.963 76.9919 145.963 76.4005C145.963 75.8092 146.44 75.3298 147.028 75.3298C147.616 75.3298 148.093 75.8092 148.093 76.4005Z" fill="#707070"/>
<path d="M148.093 61.41C148.093 62.0013 147.616 62.4807 147.028 62.4807C146.44 62.4807 145.963 62.0013 145.963 61.41C145.963 60.8186 146.44 60.3392 147.028 60.3392C147.616 60.3392 148.093 60.8186 148.093 61.41Z" fill="#707070"/>
<path d="M163 76.4005C163 76.9919 162.523 77.4713 161.935 77.4713C161.347 77.4713 160.87 76.9919 160.87 76.4005C160.87 75.8092 161.347 75.3298 161.935 75.3298C162.523 75.3298 163 75.8092 163 76.4005Z" fill="#707070"/>
<path d="M163 61.41C163 62.0013 162.523 62.4807 161.935 62.4807C161.347 62.4807 160.87 62.0013 160.87 61.41C160.87 60.8186 161.347 60.3392 161.935 60.3392C162.523 60.3392 163 60.8186 163 61.41Z" fill="#707070"/>
<path d="M117.213 76.4005C117.213 76.9919 116.736 77.4713 116.148 77.4713C115.56 77.4713 115.083 76.9919 115.083 76.4005C115.083 75.8092 115.56 75.3298 116.148 75.3298C116.736 75.3298 117.213 75.8092 117.213 76.4005Z" fill="#707070"/>
<path d="M117.213 61.41C117.213 62.0013 116.736 62.4807 116.148 62.4807C115.56 62.4807 115.083 62.0013 115.083 61.41C115.083 60.8186 115.56 60.3392 116.148 60.3392C116.736 60.3392 117.213 60.8186 117.213 61.41Z" fill="#707070"/>
<path d="M132.12 76.4005C132.12 76.9919 131.644 77.4713 131.056 77.4713C130.467 77.4713 129.991 76.9919 129.991 76.4005C129.991 75.8092 130.467 75.3298 131.056 75.3298C131.644 75.3298 132.12 75.8092 132.12 76.4005Z" fill="#707070"/>
<path d="M132.12 61.41C132.12 62.0013 131.644 62.4807 131.056 62.4807C130.467 62.4807 129.991 62.0013 129.991 61.41C129.991 60.8186 130.467 60.3392 131.056 60.3392C131.644 60.3392 132.12 60.8186 132.12 61.41Z" fill="#707070"/>
<path d="M56.5185 106.382C56.5185 106.973 56.0418 107.452 55.4537 107.452C54.8657 107.452 54.3889 106.973 54.3889 106.382C54.3889 105.79 54.8657 105.311 55.4537 105.311C56.0418 105.311 56.5185 105.79 56.5185 106.382Z" fill="#707070"/>
<path d="M56.5185 91.3911C56.5185 91.9825 56.0418 92.4619 55.4537 92.4619C54.8657 92.4619 54.3889 91.9825 54.3889 91.3911C54.3889 90.7997 54.8657 90.3204 55.4537 90.3204C56.0418 90.3204 56.5185 90.7997 56.5185 91.3911Z" fill="#707070"/>
<path d="M71.4259 106.382C71.4259 106.973 70.9492 107.452 70.3611 107.452C69.7731 107.452 69.2963 106.973 69.2963 106.382C69.2963 105.79 69.7731 105.311 70.3611 105.311C70.9492 105.311 71.4259 105.79 71.4259 106.382Z" fill="#707070"/>
<path d="M71.4259 91.3911C71.4259 91.9825 70.9492 92.4619 70.3611 92.4619C69.7731 92.4619 69.2963 91.9825 69.2963 91.3911C69.2963 90.7997 69.7731 90.3204 70.3611 90.3204C70.9492 90.3204 71.4259 90.7997 71.4259 91.3911Z" fill="#707070"/>
<path d="M86.3334 106.382C86.3334 106.973 85.8566 107.452 85.2686 107.452C84.6805 107.452 84.2037 106.973 84.2037 106.382C84.2037 105.79 84.6805 105.311 85.2686 105.311C85.8566 105.311 86.3334 105.79 86.3334 106.382Z" fill="#707070"/>
<path d="M86.3334 91.3911C86.3334 91.9825 85.8566 92.4619 85.2686 92.4619C84.6805 92.4619 84.2037 91.9825 84.2037 91.3911C84.2037 90.7997 84.6805 90.3204 85.2686 90.3204C85.8566 90.3204 86.3334 90.7997 86.3334 91.3911Z" fill="#707070"/>
<path d="M101.241 106.382C101.241 106.973 100.764 107.452 100.176 107.452C99.5879 107.452 99.1111 106.973 99.1111 106.382C99.1111 105.79 99.5879 105.311 100.176 105.311C100.764 105.311 101.241 105.79 101.241 106.382Z" fill="#707070"/>
<path d="M101.241 91.3911C101.241 91.9825 100.764 92.4619 100.176 92.4619C99.5879 92.4619 99.1111 91.9825 99.1111 91.3911C99.1111 90.7997 99.5879 90.3204 100.176 90.3204C100.764 90.3204 101.241 90.7997 101.241 91.3911Z" fill="#707070"/>
<path d="M87.3982 76.4005C87.3982 76.9919 86.9214 77.4713 86.3334 77.4713C85.7453 77.4713 85.2686 76.9919 85.2686 76.4005C85.2686 75.8092 85.7453 75.3298 86.3334 75.3298C86.9214 75.3298 87.3982 75.8092 87.3982 76.4005Z" fill="#707070"/>
<path d="M87.3982 61.41C87.3982 62.0013 86.9214 62.4807 86.3334 62.4807C85.7453 62.4807 85.2686 62.0013 85.2686 61.41C85.2686 60.8186 85.7453 60.3392 86.3334 60.3392C86.9214 60.3392 87.3982 60.8186 87.3982 61.41Z" fill="#707070"/>
<path d="M102.306 76.4005C102.306 76.9919 101.829 77.4713 101.241 77.4713C100.653 77.4713 100.176 76.9919 100.176 76.4005C100.176 75.8092 100.653 75.3298 101.241 75.3298C101.829 75.3298 102.306 75.8092 102.306 76.4005Z" fill="#707070"/>
<path d="M102.306 61.41C102.306 62.0013 101.829 62.4807 101.241 62.4807C100.653 62.4807 100.176 62.0013 100.176 61.41C100.176 60.8186 100.653 60.3392 101.241 60.3392C101.829 60.3392 102.306 60.8186 102.306 61.41Z" fill="#707070"/>
<path d="M56.5185 76.4005C56.5185 76.9919 56.0418 77.4713 55.4537 77.4713C54.8657 77.4713 54.3889 76.9919 54.3889 76.4005C54.3889 75.8092 54.8657 75.3298 55.4537 75.3298C56.0418 75.3298 56.5185 75.8092 56.5185 76.4005Z" fill="#707070"/>
<path d="M56.5185 61.41C56.5185 62.0013 56.0418 62.4807 55.4537 62.4807C54.8657 62.4807 54.3889 62.0013 54.3889 61.41C54.3889 60.8186 54.8657 60.3392 55.4537 60.3392C56.0418 60.3392 56.5185 60.8186 56.5185 61.41Z" fill="#707070"/>
<path d="M71.4259 76.4005C71.4259 76.9919 70.9492 77.4713 70.3611 77.4713C69.7731 77.4713 69.2963 76.9919 69.2963 76.4005C69.2963 75.8092 69.7731 75.3298 70.3611 75.3298C70.9492 75.3298 71.4259 75.8092 71.4259 76.4005Z" fill="#707070"/>
<path d="M71.4259 61.41C71.4259 62.0013 70.9492 62.4807 70.3611 62.4807C69.7731 62.4807 69.2963 62.0013 69.2963 61.41C69.2963 60.8186 69.7731 60.3392 70.3611 60.3392C70.9492 60.3392 71.4259 60.8186 71.4259 61.41Z" fill="#707070"/>
<path d="M56.5185 46.4194C56.5185 47.0108 56.0418 47.4902 55.4537 47.4902C54.8657 47.4902 54.3889 47.0108 54.3889 46.4194C54.3889 45.828 54.8657 45.3487 55.4537 45.3487C56.0418 45.3487 56.5185 45.828 56.5185 46.4194Z" fill="#707070"/>
<path d="M56.5185 31.4288C56.5185 32.0202 56.0418 32.4996 55.4537 32.4996C54.8657 32.4996 54.3889 32.0202 54.3889 31.4288C54.3889 30.8375 54.8657 30.3581 55.4537 30.3581C56.0418 30.3581 56.5185 30.8375 56.5185 31.4288Z" fill="#707070"/>
<path d="M71.4259 46.4194C71.4259 47.0108 70.9492 47.4902 70.3611 47.4902C69.7731 47.4902 69.2963 47.0108 69.2963 46.4194C69.2963 45.828 69.7731 45.3487 70.3611 45.3487C70.9492 45.3487 71.4259 45.828 71.4259 46.4194Z" fill="#707070"/>
<path d="M71.4259 31.4288C71.4259 32.0202 70.9492 32.4996 70.3611 32.4996C69.7731 32.4996 69.2963 32.0202 69.2963 31.4288C69.2963 30.8375 69.7731 30.3581 70.3611 30.3581C70.9492 30.3581 71.4259 30.8375 71.4259 31.4288Z" fill="#707070"/>
<path d="M86.3334 46.4194C86.3334 47.0108 85.8566 47.4902 85.2686 47.4902C84.6805 47.4902 84.2037 47.0108 84.2037 46.4194C84.2037 45.828 84.6805 45.3487 85.2686 45.3487C85.8566 45.3487 86.3334 45.828 86.3334 46.4194Z" fill="#707070"/>
<path d="M86.3334 31.4288C86.3334 32.0202 85.8566 32.4996 85.2686 32.4996C84.6805 32.4996 84.2037 32.0202 84.2037 31.4288C84.2037 30.8375 84.6805 30.3581 85.2686 30.3581C85.8566 30.3581 86.3334 30.8375 86.3334 31.4288Z" fill="#707070"/>
<path d="M101.241 46.4194C101.241 47.0108 100.764 47.4902 100.176 47.4902C99.5879 47.4902 99.1111 47.0108 99.1111 46.4194C99.1111 45.828 99.5879 45.3487 100.176 45.3487C100.764 45.3487 101.241 45.828 101.241 46.4194Z" fill="#707070"/>
<path d="M101.241 31.4288C101.241 32.0202 100.764 32.4996 100.176 32.4996C99.5879 32.4996 99.1111 32.0202 99.1111 31.4288C99.1111 30.8375 99.5879 30.3581 100.176 30.3581C100.764 30.3581 101.241 30.8375 101.241 31.4288Z" fill="#707070"/>
<path d="M87.3982 16.4383C87.3982 17.0296 86.9214 17.509 86.3334 17.509C85.7453 17.509 85.2686 17.0296 85.2686 16.4383C85.2686 15.8469 85.7453 15.3675 86.3334 15.3675C86.9214 15.3675 87.3982 15.8469 87.3982 16.4383Z" fill="#707070"/>
<path d="M87.3982 1.44771C87.3982 2.03907 86.9214 2.51846 86.3334 2.51846C85.7453 2.51846 85.2686 2.03907 85.2686 1.44771C85.2686 0.856346 85.7453 0.376953 86.3334 0.376953C86.9214 0.376953 87.3982 0.856346 87.3982 1.44771Z" fill="#707070"/>
<path d="M102.306 16.4383C102.306 17.0296 101.829 17.509 101.241 17.509C100.653 17.509 100.176 17.0296 100.176 16.4383C100.176 15.8469 100.653 15.3675 101.241 15.3675C101.829 15.3675 102.306 15.8469 102.306 16.4383Z" fill="#707070"/>
<path d="M102.306 1.44771C102.306 2.03907 101.829 2.51846 101.241 2.51846C100.653 2.51846 100.176 2.03907 100.176 1.44771C100.176 0.856346 100.653 0.376953 101.241 0.376953C101.829 0.376953 102.306 0.856346 102.306 1.44771Z" fill="#707070"/>
<path d="M56.5185 16.4383C56.5185 17.0296 56.0418 17.509 55.4537 17.509C54.8657 17.509 54.3889 17.0296 54.3889 16.4383C54.3889 15.8469 54.8657 15.3675 55.4537 15.3675C56.0418 15.3675 56.5185 15.8469 56.5185 16.4383Z" fill="#707070"/>
<path d="M56.5185 1.44771C56.5185 2.03907 56.0418 2.51846 55.4537 2.51846C54.8657 2.51846 54.3889 2.03907 54.3889 1.44771C54.3889 0.856346 54.8657 0.376953 55.4537 0.376953C56.0418 0.376953 56.5185 0.856346 56.5185 1.44771Z" fill="#707070"/>
<path d="M71.4259 16.4383C71.4259 17.0296 70.9492 17.509 70.3611 17.509C69.7731 17.509 69.2963 17.0296 69.2963 16.4383C69.2963 15.8469 69.7731 15.3675 70.3611 15.3675C70.9492 15.3675 71.4259 15.8469 71.4259 16.4383Z" fill="#707070"/>
<path d="M71.4259 1.44771C71.4259 2.03907 70.9492 2.51846 70.3611 2.51846C69.7731 2.51846 69.2963 2.03907 69.2963 1.44771C69.2963 0.856346 69.7731 0.376953 70.3611 0.376953C70.9492 0.376953 71.4259 0.856346 71.4259 1.44771Z" fill="#707070"/>
<path d="M117.213 46.4194C117.213 47.0108 116.736 47.4902 116.148 47.4902C115.56 47.4902 115.083 47.0108 115.083 46.4194C115.083 45.828 115.56 45.3487 116.148 45.3487C116.736 45.3487 117.213 45.828 117.213 46.4194Z" fill="#707070"/>
<path d="M117.213 31.4288C117.213 32.0202 116.736 32.4996 116.148 32.4996C115.56 32.4996 115.083 32.0202 115.083 31.4288C115.083 30.8375 115.56 30.3581 116.148 30.3581C116.736 30.3581 117.213 30.8375 117.213 31.4288Z" fill="#707070"/>
<path d="M132.12 46.4194C132.12 47.0108 131.644 47.4902 131.056 47.4902C130.467 47.4902 129.991 47.0108 129.991 46.4194C129.991 45.828 130.467 45.3487 131.056 45.3487C131.644 45.3487 132.12 45.828 132.12 46.4194Z" fill="#707070"/>
<path d="M132.12 31.4288C132.12 32.0202 131.644 32.4996 131.056 32.4996C130.467 32.4996 129.991 32.0202 129.991 31.4288C129.991 30.8375 130.467 30.3581 131.056 30.3581C131.644 30.3581 132.12 30.8375 132.12 31.4288Z" fill="#707070"/>
<path d="M147.028 46.4194C147.028 47.0108 146.551 47.4902 145.963 47.4902C145.375 47.4902 144.898 47.0108 144.898 46.4194C144.898 45.828 145.375 45.3487 145.963 45.3487C146.551 45.3487 147.028 45.828 147.028 46.4194Z" fill="#707070"/>
<path d="M147.028 31.4288C147.028 32.0202 146.551 32.4996 145.963 32.4996C145.375 32.4996 144.898 32.0202 144.898 31.4288C144.898 30.8375 145.375 30.3581 145.963 30.3581C146.551 30.3581 147.028 30.8375 147.028 31.4288Z" fill="#707070"/>
<path d="M161.935 46.4194C161.935 47.0108 161.458 47.4902 160.87 47.4902C160.282 47.4902 159.806 47.0108 159.806 46.4194C159.806 45.828 160.282 45.3487 160.87 45.3487C161.458 45.3487 161.935 45.828 161.935 46.4194Z" fill="#707070"/>
<path d="M161.935 31.4288C161.935 32.0202 161.458 32.4996 160.87 32.4996C160.282 32.4996 159.806 32.0202 159.806 31.4288C159.806 30.8375 160.282 30.3581 160.87 30.3581C161.458 30.3581 161.935 30.8375 161.935 31.4288Z" fill="#707070"/>
<path d="M148.093 16.4383C148.093 17.0296 147.616 17.509 147.028 17.509C146.44 17.509 145.963 17.0296 145.963 16.4383C145.963 15.8469 146.44 15.3675 147.028 15.3675C147.616 15.3675 148.093 15.8469 148.093 16.4383Z" fill="#707070"/>
<path d="M148.093 1.44771C148.093 2.03907 147.616 2.51846 147.028 2.51846C146.44 2.51846 145.963 2.03907 145.963 1.44771C145.963 0.856346 146.44 0.376953 147.028 0.376953C147.616 0.376953 148.093 0.856346 148.093 1.44771Z" fill="#707070"/>
<path d="M163 16.4383C163 17.0296 162.523 17.509 161.935 17.509C161.347 17.509 160.87 17.0296 160.87 16.4383C160.87 15.8469 161.347 15.3675 161.935 15.3675C162.523 15.3675 163 15.8469 163 16.4383Z" fill="#707070"/>
<path d="M163 1.44771C163 2.03907 162.523 2.51846 161.935 2.51846C161.347 2.51846 160.87 2.03907 160.87 1.44771C160.87 0.856346 161.347 0.376953 161.935 0.376953C162.523 0.376953 163 0.856346 163 1.44771Z" fill="#707070"/>
<path d="M117.213 16.4383C117.213 17.0296 116.736 17.509 116.148 17.509C115.56 17.509 115.083 17.0296 115.083 16.4383C115.083 15.8469 115.56 15.3675 116.148 15.3675C116.736 15.3675 117.213 15.8469 117.213 16.4383Z" fill="#707070"/>
<path d="M117.213 1.44771C117.213 2.03907 116.736 2.51846 116.148 2.51846C115.56 2.51846 115.083 2.03907 115.083 1.44771C115.083 0.856346 115.56 0.376953 116.148 0.376953C116.736 0.376953 117.213 0.856346 117.213 1.44771Z" fill="#707070"/>
<path d="M132.12 16.4383C132.12 17.0296 131.644 17.509 131.056 17.509C130.467 17.509 129.991 17.0296 129.991 16.4383C129.991 15.8469 130.467 15.3675 131.056 15.3675C131.644 15.3675 132.12 15.8469 132.12 16.4383Z" fill="#707070"/>
<path d="M132.12 1.44771C132.12 2.03907 131.644 2.51846 131.056 2.51846C130.467 2.51846 129.991 2.03907 129.991 1.44771C129.991 0.856346 130.467 0.376953 131.056 0.376953C131.644 0.376953 132.12 0.856346 132.12 1.44771Z" fill="#707070"/>
</svg>
