<svg width="151" height="227" viewBox="0 0 151 227" fill="none" xmlns="http://www.w3.org/2000/svg">
<path d="M62.8241 225.929C62.8241 226.521 62.3473 227 61.7593 227C61.1712 227 60.6944 226.521 60.6944 225.929C60.6944 225.338 61.1712 224.859 61.7593 224.859C62.3473 224.859 62.8241 225.338 62.8241 225.929Z" fill="#707070"/>
<path d="M62.8241 210.939C62.8241 211.53 62.3473 212.009 61.7593 212.009C61.1712 212.009 60.6944 211.53 60.6944 210.939C60.6944 210.347 61.1712 209.868 61.7593 209.868C62.3473 209.868 62.8241 210.347 62.8241 210.939Z" fill="#707070"/>
<path d="M77.7315 225.929C77.7315 226.521 77.2547 227 76.6667 227C76.0786 227 75.6019 226.521 75.6019 225.929C75.6019 225.338 76.0786 224.859 76.6667 224.859C77.2547 224.859 77.7315 225.338 77.7315 225.929Z" fill="#707070"/>
<path d="M77.7315 210.939C77.7315 211.53 77.2547 212.009 76.6667 212.009C76.0786 212.009 75.6019 211.53 75.6019 210.939C75.6019 210.347 76.0786 209.868 76.6667 209.868C77.2547 209.868 77.7315 210.347 77.7315 210.939Z" fill="#707070"/>
<path d="M92.6389 225.929C92.6389 226.521 92.1622 227 91.5741 227C90.986 227 90.5093 226.521 90.5093 225.929C90.5093 225.338 90.986 224.859 91.5741 224.859C92.1622 224.859 92.6389 225.338 92.6389 225.929Z" fill="#707070"/>
<path d="M92.6389 210.939C92.6389 211.53 92.1622 212.009 91.5741 212.009C90.986 212.009 90.5093 211.53 90.5093 210.939C90.5093 210.347 90.986 209.868 91.5741 209.868C92.1622 209.868 92.6389 210.347 92.6389 210.939Z" fill="#707070"/>
<path d="M107.546 225.929C107.546 226.521 107.07 227 106.481 227C105.893 227 105.417 226.521 105.417 225.929C105.417 225.338 105.893 224.859 106.481 224.859C107.07 224.859 107.546 225.338 107.546 225.929Z" fill="#707070"/>
<path d="M107.546 210.939C107.546 211.53 107.07 212.009 106.481 212.009C105.893 212.009 105.417 211.53 105.417 210.939C105.417 210.347 105.893 209.868 106.481 209.868C107.07 209.868 107.546 210.347 107.546 210.939Z" fill="#707070"/>
<path d="M93.7037 195.948C93.7037 196.539 93.227 197.019 92.6389 197.019C92.0508 197.019 91.5741 196.539 91.5741 195.948C91.5741 195.357 92.0508 194.877 92.6389 194.877C93.227 194.877 93.7037 195.357 93.7037 195.948Z" fill="#707070"/>
<path d="M93.7037 180.958C93.7037 181.549 93.227 182.028 92.6389 182.028C92.0508 182.028 91.5741 181.549 91.5741 180.958C91.5741 180.366 92.0508 179.887 92.6389 179.887C93.227 179.887 93.7037 180.366 93.7037 180.958Z" fill="#707070"/>
<path d="M108.611 195.948C108.611 196.539 108.134 197.019 107.546 197.019C106.958 197.019 106.481 196.539 106.481 195.948C106.481 195.357 106.958 194.877 107.546 194.877C108.134 194.877 108.611 195.357 108.611 195.948Z" fill="#707070"/>
<path d="M108.611 180.958C108.611 181.549 108.134 182.028 107.546 182.028C106.958 182.028 106.481 181.549 106.481 180.958C106.481 180.366 106.958 179.887 107.546 179.887C108.134 179.887 108.611 180.366 108.611 180.958Z" fill="#707070"/>
<path d="M62.8241 195.948C62.8241 196.539 62.3473 197.019 61.7593 197.019C61.1712 197.019 60.6944 196.539 60.6944 195.948C60.6944 195.357 61.1712 194.877 61.7593 194.877C62.3473 194.877 62.8241 195.357 62.8241 195.948Z" fill="#707070"/>
<path d="M62.8241 180.958C62.8241 181.549 62.3473 182.028 61.7593 182.028C61.1712 182.028 60.6944 181.549 60.6944 180.958C60.6944 180.366 61.1712 179.887 61.7593 179.887C62.3473 179.887 62.8241 180.366 62.8241 180.958Z" fill="#707070"/>
<path d="M77.7315 195.948C77.7315 196.539 77.2547 197.019 76.6667 197.019C76.0786 197.019 75.6019 196.539 75.6019 195.948C75.6019 195.357 76.0786 194.877 76.6667 194.877C77.2547 194.877 77.7315 195.357 77.7315 195.948Z" fill="#707070"/>
<path d="M77.7315 180.958C77.7315 181.549 77.2547 182.028 76.6667 182.028C76.0786 182.028 75.6019 181.549 75.6019 180.958C75.6019 180.366 76.0786 179.887 76.6667 179.887C77.2547 179.887 77.7315 180.366 77.7315 180.958Z" fill="#707070"/>
<path d="M2.12963 225.929C2.12963 226.521 1.6529 227 1.06481 227C0.476734 227 0 226.521 0 225.929C0 225.338 0.476734 224.859 1.06481 224.859C1.6529 224.859 2.12963 225.338 2.12963 225.929Z" fill="#707070"/>
<path d="M2.12963 210.939C2.12963 211.53 1.6529 212.009 1.06481 212.009C0.476734 212.009 0 211.53 0 210.939C0 210.347 0.476734 209.868 1.06481 209.868C1.6529 209.868 2.12963 210.347 2.12963 210.939Z" fill="#707070"/>
<path d="M17.037 225.929C17.037 226.521 16.5603 227 15.9722 227C15.3841 227 14.9074 226.521 14.9074 225.929C14.9074 225.338 15.3841 224.859 15.9722 224.859C16.5603 224.859 17.037 225.338 17.037 225.929Z" fill="#707070"/>
<path d="M17.037 210.939C17.037 211.53 16.5603 212.009 15.9722 212.009C15.3841 212.009 14.9074 211.53 14.9074 210.939C14.9074 210.347 15.3841 209.868 15.9722 209.868C16.5603 209.868 17.037 210.347 17.037 210.939Z" fill="#707070"/>
<path d="M31.9444 225.929C31.9444 226.521 31.4677 227 30.8796 227C30.2915 227 29.8148 226.521 29.8148 225.929C29.8148 225.338 30.2915 224.859 30.8796 224.859C31.4677 224.859 31.9444 225.338 31.9444 225.929Z" fill="#707070"/>
<path d="M31.9444 210.939C31.9444 211.53 31.4677 212.009 30.8796 212.009C30.2915 212.009 29.8148 211.53 29.8148 210.939C29.8148 210.347 30.2915 209.868 30.8796 209.868C31.4677 209.868 31.9444 210.347 31.9444 210.939Z" fill="#707070"/>
<path d="M46.8519 225.929C46.8519 226.521 46.3751 227 45.787 227C45.199 227 44.7222 226.521 44.7222 225.929C44.7222 225.338 45.199 224.859 45.787 224.859C46.3751 224.859 46.8519 225.338 46.8519 225.929Z" fill="#707070"/>
<path d="M46.8519 210.939C46.8519 211.53 46.3751 212.009 45.787 212.009C45.199 212.009 44.7222 211.53 44.7222 210.939C44.7222 210.347 45.199 209.868 45.787 209.868C46.3751 209.868 46.8519 210.347 46.8519 210.939Z" fill="#707070"/>
<path d="M33.0093 195.948C33.0093 196.539 32.5325 197.019 31.9444 197.019C31.3564 197.019 30.8796 196.539 30.8796 195.948C30.8796 195.357 31.3564 194.877 31.9444 194.877C32.5325 194.877 33.0093 195.357 33.0093 195.948Z" fill="#707070"/>
<path d="M33.0093 180.958C33.0093 181.549 32.5325 182.028 31.9444 182.028C31.3564 182.028 30.8796 181.549 30.8796 180.958C30.8796 180.366 31.3564 179.887 31.9444 179.887C32.5325 179.887 33.0093 180.366 33.0093 180.958Z" fill="#707070"/>
<path d="M47.9167 195.948C47.9167 196.539 47.4399 197.019 46.8519 197.019C46.2638 197.019 45.787 196.539 45.787 195.948C45.787 195.357 46.2638 194.877 46.8519 194.877C47.4399 194.877 47.9167 195.357 47.9167 195.948Z" fill="#707070"/>
<path d="M47.9167 180.958C47.9167 181.549 47.4399 182.028 46.8519 182.028C46.2638 182.028 45.787 181.549 45.787 180.958C45.787 180.366 46.2638 179.887 46.8519 179.887C47.4399 179.887 47.9167 180.366 47.9167 180.958Z" fill="#707070"/>
<path d="M2.12963 195.948C2.12963 196.539 1.6529 197.019 1.06481 197.019C0.476734 197.019 0 196.539 0 195.948C0 195.357 0.476734 194.877 1.06481 194.877C1.6529 194.877 2.12963 195.357 2.12963 195.948Z" fill="#707070"/>
<path d="M2.12963 180.958C2.12963 181.549 1.6529 182.028 1.06481 182.028C0.476734 182.028 0 181.549 0 180.958C0 180.366 0.476734 179.887 1.06481 179.887C1.6529 179.887 2.12963 180.366 2.12963 180.958Z" fill="#707070"/>
<path d="M17.037 195.948C17.037 196.539 16.5603 197.019 15.9722 197.019C15.3841 197.019 14.9074 196.539 14.9074 195.948C14.9074 195.357 15.3841 194.877 15.9722 194.877C16.5603 194.877 17.037 195.357 17.037 195.948Z" fill="#707070"/>
<path d="M17.037 180.958C17.037 181.549 16.5603 182.028 15.9722 182.028C15.3841 182.028 14.9074 181.549 14.9074 180.958C14.9074 180.366 15.3841 179.887 15.9722 179.887C16.5603 179.887 17.037 180.366 17.037 180.958Z" fill="#707070"/>
<path d="M2.12963 165.967C2.12963 166.558 1.6529 167.038 1.06481 167.038C0.476734 167.038 0 166.558 0 165.967C0 165.376 0.476734 164.896 1.06481 164.896C1.6529 164.896 2.12963 165.376 2.12963 165.967Z" fill="#707070"/>
<path d="M2.12963 150.976C2.12963 151.568 1.6529 152.047 1.06481 152.047C0.476734 152.047 0 151.568 0 150.976C0 150.385 0.476734 149.906 1.06481 149.906C1.6529 149.906 2.12963 150.385 2.12963 150.976Z" fill="#707070"/>
<path d="M17.037 165.967C17.037 166.558 16.5603 167.038 15.9722 167.038C15.3841 167.038 14.9074 166.558 14.9074 165.967C14.9074 165.376 15.3841 164.896 15.9722 164.896C16.5603 164.896 17.037 165.376 17.037 165.967Z" fill="#707070"/>
<path d="M17.037 150.976C17.037 151.568 16.5603 152.047 15.9722 152.047C15.3841 152.047 14.9074 151.568 14.9074 150.976C14.9074 150.385 15.3841 149.906 15.9722 149.906C16.5603 149.906 17.037 150.385 17.037 150.976Z" fill="#707070"/>
<path d="M31.9444 165.967C31.9444 166.558 31.4677 167.038 30.8796 167.038C30.2915 167.038 29.8148 166.558 29.8148 165.967C29.8148 165.376 30.2915 164.896 30.8796 164.896C31.4677 164.896 31.9444 165.376 31.9444 165.967Z" fill="#707070"/>
<path d="M31.9444 150.976C31.9444 151.568 31.4677 152.047 30.8796 152.047C30.2915 152.047 29.8148 151.568 29.8148 150.976C29.8148 150.385 30.2915 149.906 30.8796 149.906C31.4677 149.906 31.9444 150.385 31.9444 150.976Z" fill="#707070"/>
<path d="M46.8519 165.967C46.8519 166.558 46.3751 167.038 45.787 167.038C45.199 167.038 44.7222 166.558 44.7222 165.967C44.7222 165.376 45.199 164.896 45.787 164.896C46.3751 164.896 46.8519 165.376 46.8519 165.967Z" fill="#707070"/>
<path d="M46.8519 150.976C46.8519 151.568 46.3751 152.047 45.787 152.047C45.199 152.047 44.7222 151.568 44.7222 150.976C44.7222 150.385 45.199 149.906 45.787 149.906C46.3751 149.906 46.8519 150.385 46.8519 150.976Z" fill="#707070"/>
<path d="M33.0093 135.986C33.0093 136.577 32.5325 137.057 31.9444 137.057C31.3564 137.057 30.8796 136.577 30.8796 135.986C30.8796 135.395 31.3564 134.915 31.9444 134.915C32.5325 134.915 33.0093 135.395 33.0093 135.986Z" fill="#707070"/>
<path d="M33.0093 120.995C33.0093 121.587 32.5325 122.066 31.9444 122.066C31.3564 122.066 30.8796 121.587 30.8796 120.995C30.8796 120.404 31.3564 119.925 31.9444 119.925C32.5325 119.925 33.0093 120.404 33.0093 120.995Z" fill="#707070"/>
<path d="M47.9167 135.986C47.9167 136.577 47.4399 137.057 46.8519 137.057C46.2638 137.057 45.787 136.577 45.787 135.986C45.787 135.395 46.2638 134.915 46.8519 134.915C47.4399 134.915 47.9167 135.395 47.9167 135.986Z" fill="#707070"/>
<path d="M47.9167 120.995C47.9167 121.587 47.4399 122.066 46.8519 122.066C46.2638 122.066 45.787 121.587 45.787 120.995C45.787 120.404 46.2638 119.925 46.8519 119.925C47.4399 119.925 47.9167 120.404 47.9167 120.995Z" fill="#707070"/>
<path d="M2.12963 135.986C2.12963 136.577 1.6529 137.057 1.06481 137.057C0.476734 137.057 0 136.577 0 135.986C0 135.395 0.476734 134.915 1.06481 134.915C1.6529 134.915 2.12963 135.395 2.12963 135.986Z" fill="#707070"/>
<path d="M2.12963 120.995C2.12963 121.587 1.6529 122.066 1.06481 122.066C0.476734 122.066 0 121.587 0 120.995C0 120.404 0.476734 119.925 1.06481 119.925C1.6529 119.925 2.12963 120.404 2.12963 120.995Z" fill="#707070"/>
<path d="M17.037 135.986C17.037 136.577 16.5603 137.057 15.9722 137.057C15.3841 137.057 14.9074 136.577 14.9074 135.986C14.9074 135.395 15.3841 134.915 15.9722 134.915C16.5603 134.915 17.037 135.395 17.037 135.986Z" fill="#707070"/>
<path d="M17.037 120.995C17.037 121.587 16.5603 122.066 15.9722 122.066C15.3841 122.066 14.9074 121.587 14.9074 120.995C14.9074 120.404 15.3841 119.925 15.9722 119.925C16.5603 119.925 17.037 120.404 17.037 120.995Z" fill="#707070"/>
<path d="M62.8241 165.967C62.8241 166.558 62.3473 167.038 61.7593 167.038C61.1712 167.038 60.6944 166.558 60.6944 165.967C60.6944 165.376 61.1712 164.896 61.7593 164.896C62.3473 164.896 62.8241 165.376 62.8241 165.967Z" fill="#707070"/>
<path d="M62.8241 150.976C62.8241 151.568 62.3473 152.047 61.7593 152.047C61.1712 152.047 60.6944 151.568 60.6944 150.976C60.6944 150.385 61.1712 149.906 61.7593 149.906C62.3473 149.906 62.8241 150.385 62.8241 150.976Z" fill="#707070"/>
<path d="M77.7315 165.967C77.7315 166.558 77.2547 167.038 76.6667 167.038C76.0786 167.038 75.6019 166.558 75.6019 165.967C75.6019 165.376 76.0786 164.896 76.6667 164.896C77.2547 164.896 77.7315 165.376 77.7315 165.967Z" fill="#707070"/>
<path d="M77.7315 150.976C77.7315 151.568 77.2547 152.047 76.6667 152.047C76.0786 152.047 75.6019 151.568 75.6019 150.976C75.6019 150.385 76.0786 149.906 76.6667 149.906C77.2547 149.906 77.7315 150.385 77.7315 150.976Z" fill="#707070"/>
<path d="M92.6389 165.967C92.6389 166.558 92.1622 167.038 91.5741 167.038C90.986 167.038 90.5093 166.558 90.5093 165.967C90.5093 165.376 90.986 164.896 91.5741 164.896C92.1622 164.896 92.6389 165.376 92.6389 165.967Z" fill="#707070"/>
<path d="M92.6389 150.976C92.6389 151.568 92.1622 152.047 91.5741 152.047C90.986 152.047 90.5093 151.568 90.5093 150.976C90.5093 150.385 90.986 149.906 91.5741 149.906C92.1622 149.906 92.6389 150.385 92.6389 150.976Z" fill="#707070"/>
<path d="M107.546 165.967C107.546 166.558 107.07 167.038 106.481 167.038C105.893 167.038 105.417 166.558 105.417 165.967C105.417 165.376 105.893 164.896 106.481 164.896C107.07 164.896 107.546 165.376 107.546 165.967Z" fill="#707070"/>
<path d="M107.546 150.976C107.546 151.568 107.07 152.047 106.481 152.047C105.893 152.047 105.417 151.568 105.417 150.976C105.417 150.385 105.893 149.906 106.481 149.906C107.07 149.906 107.546 150.385 107.546 150.976Z" fill="#707070"/>
<path d="M93.7037 135.986C93.7037 136.577 93.227 137.057 92.6389 137.057C92.0508 137.057 91.5741 136.577 91.5741 135.986C91.5741 135.395 92.0508 134.915 92.6389 134.915C93.227 134.915 93.7037 135.395 93.7037 135.986Z" fill="#707070"/>
<path d="M93.7037 120.995C93.7037 121.587 93.227 122.066 92.6389 122.066C92.0508 122.066 91.5741 121.587 91.5741 120.995C91.5741 120.404 92.0508 119.925 92.6389 119.925C93.227 119.925 93.7037 120.404 93.7037 120.995Z" fill="#707070"/>
<path d="M108.611 135.986C108.611 136.577 108.134 137.057 107.546 137.057C106.958 137.057 106.481 136.577 106.481 135.986C106.481 135.395 106.958 134.915 107.546 134.915C108.134 134.915 108.611 135.395 108.611 135.986Z" fill="#707070"/>
<path d="M108.611 120.995C108.611 121.587 108.134 122.066 107.546 122.066C106.958 122.066 106.481 121.587 106.481 120.995C106.481 120.404 106.958 119.925 107.546 119.925C108.134 119.925 108.611 120.404 108.611 120.995Z" fill="#707070"/>
<path d="M62.8241 135.986C62.8241 136.577 62.3473 137.057 61.7593 137.057C61.1712 137.057 60.6944 136.577 60.6944 135.986C60.6944 135.395 61.1712 134.915 61.7593 134.915C62.3473 134.915 62.8241 135.395 62.8241 135.986Z" fill="#707070"/>
<path d="M62.8241 120.995C62.8241 121.587 62.3473 122.066 61.7593 122.066C61.1712 122.066 60.6944 121.587 60.6944 120.995C60.6944 120.404 61.1712 119.925 61.7593 119.925C62.3473 119.925 62.8241 120.404 62.8241 120.995Z" fill="#707070"/>
<path d="M77.7315 135.986C77.7315 136.577 77.2547 137.057 76.6667 137.057C76.0786 137.057 75.6019 136.577 75.6019 135.986C75.6019 135.395 76.0786 134.915 76.6667 134.915C77.2547 134.915 77.7315 135.395 77.7315 135.986Z" fill="#707070"/>
<path d="M77.7315 120.995C77.7315 121.587 77.2547 122.066 76.6667 122.066C76.0786 122.066 75.6019 121.587 75.6019 120.995C75.6019 120.404 76.0786 119.925 76.6667 119.925C77.2547 119.925 77.7315 120.404 77.7315 120.995Z" fill="#707070"/>
<path d="M184.213 225.929C184.213 226.521 183.736 227 183.148 227C182.56 227 182.083 226.521 182.083 225.929C182.083 225.338 182.56 224.859 183.148 224.859C183.736 224.859 184.213 225.338 184.213 225.929Z" fill="#707070"/>
<path d="M184.213 210.939C184.213 211.53 183.736 212.009 183.148 212.009C182.56 212.009 182.083 211.53 182.083 210.939C182.083 210.347 182.56 209.868 183.148 209.868C183.736 209.868 184.213 210.347 184.213 210.939Z" fill="#707070"/>
<path d="M199.12 225.929C199.12 226.521 198.644 227 198.056 227C197.467 227 196.991 226.521 196.991 225.929C196.991 225.338 197.467 224.859 198.056 224.859C198.644 224.859 199.12 225.338 199.12 225.929Z" fill="#707070"/>
<path d="M199.12 210.939C199.12 211.53 198.644 212.009 198.056 212.009C197.467 212.009 196.991 211.53 196.991 210.939C196.991 210.347 197.467 209.868 198.056 209.868C198.644 209.868 199.12 210.347 199.12 210.939Z" fill="#707070"/>
<path d="M214.028 225.929C214.028 226.521 213.551 227 212.963 227C212.375 227 211.898 226.521 211.898 225.929C211.898 225.338 212.375 224.859 212.963 224.859C213.551 224.859 214.028 225.338 214.028 225.929Z" fill="#707070"/>
<path d="M214.028 210.939C214.028 211.53 213.551 212.009 212.963 212.009C212.375 212.009 211.898 211.53 211.898 210.939C211.898 210.347 212.375 209.868 212.963 209.868C213.551 209.868 214.028 210.347 214.028 210.939Z" fill="#707070"/>
<path d="M228.935 225.929C228.935 226.521 228.458 227 227.87 227C227.282 227 226.806 226.521 226.806 225.929C226.806 225.338 227.282 224.859 227.87 224.859C228.458 224.859 228.935 225.338 228.935 225.929Z" fill="#707070"/>
<path d="M228.935 210.939C228.935 211.53 228.458 212.009 227.87 212.009C227.282 212.009 226.806 211.53 226.806 210.939C226.806 210.347 227.282 209.868 227.87 209.868C228.458 209.868 228.935 210.347 228.935 210.939Z" fill="#707070"/>
<path d="M215.093 195.948C215.093 196.539 214.616 197.019 214.028 197.019C213.44 197.019 212.963 196.539 212.963 195.948C212.963 195.357 213.44 194.877 214.028 194.877C214.616 194.877 215.093 195.357 215.093 195.948Z" fill="#707070"/>
<path d="M215.093 180.958C215.093 181.549 214.616 182.028 214.028 182.028C213.44 182.028 212.963 181.549 212.963 180.958C212.963 180.366 213.44 179.887 214.028 179.887C214.616 179.887 215.093 180.366 215.093 180.958Z" fill="#707070"/>
<path d="M230 195.948C230 196.539 229.523 197.019 228.935 197.019C228.347 197.019 227.87 196.539 227.87 195.948C227.87 195.357 228.347 194.877 228.935 194.877C229.523 194.877 230 195.357 230 195.948Z" fill="#707070"/>
<path d="M230 180.958C230 181.549 229.523 182.028 228.935 182.028C228.347 182.028 227.87 181.549 227.87 180.958C227.87 180.366 228.347 179.887 228.935 179.887C229.523 179.887 230 180.366 230 180.958Z" fill="#707070"/>
<path d="M184.213 195.948C184.213 196.539 183.736 197.019 183.148 197.019C182.56 197.019 182.083 196.539 182.083 195.948C182.083 195.357 182.56 194.877 183.148 194.877C183.736 194.877 184.213 195.357 184.213 195.948Z" fill="#707070"/>
<path d="M184.213 180.958C184.213 181.549 183.736 182.028 183.148 182.028C182.56 182.028 182.083 181.549 182.083 180.958C182.083 180.366 182.56 179.887 183.148 179.887C183.736 179.887 184.213 180.366 184.213 180.958Z" fill="#707070"/>
<path d="M199.12 195.948C199.12 196.539 198.644 197.019 198.056 197.019C197.467 197.019 196.991 196.539 196.991 195.948C196.991 195.357 197.467 194.877 198.056 194.877C198.644 194.877 199.12 195.357 199.12 195.948Z" fill="#707070"/>
<path d="M199.12 180.958C199.12 181.549 198.644 182.028 198.056 182.028C197.467 182.028 196.991 181.549 196.991 180.958C196.991 180.366 197.467 179.887 198.056 179.887C198.644 179.887 199.12 180.366 199.12 180.958Z" fill="#707070"/>
<path d="M123.519 225.929C123.519 226.521 123.042 227 122.454 227C121.866 227 121.389 226.521 121.389 225.929C121.389 225.338 121.866 224.859 122.454 224.859C123.042 224.859 123.519 225.338 123.519 225.929Z" fill="#707070"/>
<path d="M123.519 210.939C123.519 211.53 123.042 212.009 122.454 212.009C121.866 212.009 121.389 211.53 121.389 210.939C121.389 210.347 121.866 209.868 122.454 209.868C123.042 209.868 123.519 210.347 123.519 210.939Z" fill="#707070"/>
<path d="M138.426 225.929C138.426 226.521 137.949 227 137.361 227C136.773 227 136.296 226.521 136.296 225.929C136.296 225.338 136.773 224.859 137.361 224.859C137.949 224.859 138.426 225.338 138.426 225.929Z" fill="#707070"/>
<path d="M138.426 210.939C138.426 211.53 137.949 212.009 137.361 212.009C136.773 212.009 136.296 211.53 136.296 210.939C136.296 210.347 136.773 209.868 137.361 209.868C137.949 209.868 138.426 210.347 138.426 210.939Z" fill="#707070"/>
<path d="M153.333 225.929C153.333 226.521 152.857 227 152.269 227C151.68 227 151.204 226.521 151.204 225.929C151.204 225.338 151.68 224.859 152.269 224.859C152.857 224.859 153.333 225.338 153.333 225.929Z" fill="#707070"/>
<path d="M153.333 210.939C153.333 211.53 152.857 212.009 152.269 212.009C151.68 212.009 151.204 211.53 151.204 210.939C151.204 210.347 151.68 209.868 152.269 209.868C152.857 209.868 153.333 210.347 153.333 210.939Z" fill="#707070"/>
<path d="M168.241 225.929C168.241 226.521 167.764 227 167.176 227C166.588 227 166.111 226.521 166.111 225.929C166.111 225.338 166.588 224.859 167.176 224.859C167.764 224.859 168.241 225.338 168.241 225.929Z" fill="#707070"/>
<path d="M168.241 210.939C168.241 211.53 167.764 212.009 167.176 212.009C166.588 212.009 166.111 211.53 166.111 210.939C166.111 210.347 166.588 209.868 167.176 209.868C167.764 209.868 168.241 210.347 168.241 210.939Z" fill="#707070"/>
<path d="M154.398 195.948C154.398 196.539 153.921 197.019 153.333 197.019C152.745 197.019 152.269 196.539 152.269 195.948C152.269 195.357 152.745 194.877 153.333 194.877C153.921 194.877 154.398 195.357 154.398 195.948Z" fill="#707070"/>
<path d="M154.398 180.958C154.398 181.549 153.921 182.028 153.333 182.028C152.745 182.028 152.269 181.549 152.269 180.958C152.269 180.366 152.745 179.887 153.333 179.887C153.921 179.887 154.398 180.366 154.398 180.958Z" fill="#707070"/>
<path d="M169.306 195.948C169.306 196.539 168.829 197.019 168.241 197.019C167.653 197.019 167.176 196.539 167.176 195.948C167.176 195.357 167.653 194.877 168.241 194.877C168.829 194.877 169.306 195.357 169.306 195.948Z" fill="#707070"/>
<path d="M169.306 180.958C169.306 181.549 168.829 182.028 168.241 182.028C167.653 182.028 167.176 181.549 167.176 180.958C167.176 180.366 167.653 179.887 168.241 179.887C168.829 179.887 169.306 180.366 169.306 180.958Z" fill="#707070"/>
<path d="M123.519 195.948C123.519 196.539 123.042 197.019 122.454 197.019C121.866 197.019 121.389 196.539 121.389 195.948C121.389 195.357 121.866 194.877 122.454 194.877C123.042 194.877 123.519 195.357 123.519 195.948Z" fill="#707070"/>
<path d="M123.519 180.958C123.519 181.549 123.042 182.028 122.454 182.028C121.866 182.028 121.389 181.549 121.389 180.958C121.389 180.366 121.866 179.887 122.454 179.887C123.042 179.887 123.519 180.366 123.519 180.958Z" fill="#707070"/>
<path d="M138.426 195.948C138.426 196.539 137.949 197.019 137.361 197.019C136.773 197.019 136.296 196.539 136.296 195.948C136.296 195.357 136.773 194.877 137.361 194.877C137.949 194.877 138.426 195.357 138.426 195.948Z" fill="#707070"/>
<path d="M138.426 180.958C138.426 181.549 137.949 182.028 137.361 182.028C136.773 182.028 136.296 181.549 136.296 180.958C136.296 180.366 136.773 179.887 137.361 179.887C137.949 179.887 138.426 180.366 138.426 180.958Z" fill="#707070"/>
<path d="M123.519 165.967C123.519 166.558 123.042 167.038 122.454 167.038C121.866 167.038 121.389 166.558 121.389 165.967C121.389 165.376 121.866 164.896 122.454 164.896C123.042 164.896 123.519 165.376 123.519 165.967Z" fill="#707070"/>
<path d="M123.519 150.976C123.519 151.568 123.042 152.047 122.454 152.047C121.866 152.047 121.389 151.568 121.389 150.976C121.389 150.385 121.866 149.906 122.454 149.906C123.042 149.906 123.519 150.385 123.519 150.976Z" fill="#707070"/>
<path d="M138.426 165.967C138.426 166.558 137.949 167.038 137.361 167.038C136.773 167.038 136.296 166.558 136.296 165.967C136.296 165.376 136.773 164.896 137.361 164.896C137.949 164.896 138.426 165.376 138.426 165.967Z" fill="#707070"/>
<path d="M138.426 150.976C138.426 151.568 137.949 152.047 137.361 152.047C136.773 152.047 136.296 151.568 136.296 150.976C136.296 150.385 136.773 149.906 137.361 149.906C137.949 149.906 138.426 150.385 138.426 150.976Z" fill="#707070"/>
<path d="M153.333 165.967C153.333 166.558 152.857 167.038 152.269 167.038C151.68 167.038 151.204 166.558 151.204 165.967C151.204 165.376 151.68 164.896 152.269 164.896C152.857 164.896 153.333 165.376 153.333 165.967Z" fill="#707070"/>
<path d="M153.333 150.976C153.333 151.568 152.857 152.047 152.269 152.047C151.68 152.047 151.204 151.568 151.204 150.976C151.204 150.385 151.68 149.906 152.269 149.906C152.857 149.906 153.333 150.385 153.333 150.976Z" fill="#707070"/>
<path d="M168.241 165.967C168.241 166.558 167.764 167.038 167.176 167.038C166.588 167.038 166.111 166.558 166.111 165.967C166.111 165.376 166.588 164.896 167.176 164.896C167.764 164.896 168.241 165.376 168.241 165.967Z" fill="#707070"/>
<path d="M168.241 150.976C168.241 151.568 167.764 152.047 167.176 152.047C166.588 152.047 166.111 151.568 166.111 150.976C166.111 150.385 166.588 149.906 167.176 149.906C167.764 149.906 168.241 150.385 168.241 150.976Z" fill="#707070"/>
<path d="M154.398 135.986C154.398 136.577 153.921 137.057 153.333 137.057C152.745 137.057 152.269 136.577 152.269 135.986C152.269 135.395 152.745 134.915 153.333 134.915C153.921 134.915 154.398 135.395 154.398 135.986Z" fill="#707070"/>
<path d="M154.398 120.995C154.398 121.587 153.921 122.066 153.333 122.066C152.745 122.066 152.269 121.587 152.269 120.995C152.269 120.404 152.745 119.925 153.333 119.925C153.921 119.925 154.398 120.404 154.398 120.995Z" fill="#707070"/>
<path d="M169.306 135.986C169.306 136.577 168.829 137.057 168.241 137.057C167.653 137.057 167.176 136.577 167.176 135.986C167.176 135.395 167.653 134.915 168.241 134.915C168.829 134.915 169.306 135.395 169.306 135.986Z" fill="#707070"/>
<path d="M169.306 120.995C169.306 121.587 168.829 122.066 168.241 122.066C167.653 122.066 167.176 121.587 167.176 120.995C167.176 120.404 167.653 119.925 168.241 119.925C168.829 119.925 169.306 120.404 169.306 120.995Z" fill="#707070"/>
<path d="M123.519 135.986C123.519 136.577 123.042 137.057 122.454 137.057C121.866 137.057 121.389 136.577 121.389 135.986C121.389 135.395 121.866 134.915 122.454 134.915C123.042 134.915 123.519 135.395 123.519 135.986Z" fill="#707070"/>
<path d="M123.519 120.995C123.519 121.587 123.042 122.066 122.454 122.066C121.866 122.066 121.389 121.587 121.389 120.995C121.389 120.404 121.866 119.925 122.454 119.925C123.042 119.925 123.519 120.404 123.519 120.995Z" fill="#707070"/>
<path d="M138.426 135.986C138.426 136.577 137.949 137.057 137.361 137.057C136.773 137.057 136.296 136.577 136.296 135.986C136.296 135.395 136.773 134.915 137.361 134.915C137.949 134.915 138.426 135.395 138.426 135.986Z" fill="#707070"/>
<path d="M138.426 120.995C138.426 121.587 137.949 122.066 137.361 122.066C136.773 122.066 136.296 121.587 136.296 120.995C136.296 120.404 136.773 119.925 137.361 119.925C137.949 119.925 138.426 120.404 138.426 120.995Z" fill="#707070"/>
<path d="M184.213 165.967C184.213 166.558 183.736 167.038 183.148 167.038C182.56 167.038 182.083 166.558 182.083 165.967C182.083 165.376 182.56 164.896 183.148 164.896C183.736 164.896 184.213 165.376 184.213 165.967Z" fill="#707070"/>
<path d="M184.213 150.976C184.213 151.568 183.736 152.047 183.148 152.047C182.56 152.047 182.083 151.568 182.083 150.976C182.083 150.385 182.56 149.906 183.148 149.906C183.736 149.906 184.213 150.385 184.213 150.976Z" fill="#707070"/>
<path d="M199.12 165.967C199.12 166.558 198.644 167.038 198.056 167.038C197.467 167.038 196.991 166.558 196.991 165.967C196.991 165.376 197.467 164.896 198.056 164.896C198.644 164.896 199.12 165.376 199.12 165.967Z" fill="#707070"/>
<path d="M199.12 150.976C199.12 151.568 198.644 152.047 198.056 152.047C197.467 152.047 196.991 151.568 196.991 150.976C196.991 150.385 197.467 149.906 198.056 149.906C198.644 149.906 199.12 150.385 199.12 150.976Z" fill="#707070"/>
<path d="M214.028 165.967C214.028 166.558 213.551 167.038 212.963 167.038C212.375 167.038 211.898 166.558 211.898 165.967C211.898 165.376 212.375 164.896 212.963 164.896C213.551 164.896 214.028 165.376 214.028 165.967Z" fill="#707070"/>
<path d="M214.028 150.976C214.028 151.568 213.551 152.047 212.963 152.047C212.375 152.047 211.898 151.568 211.898 150.976C211.898 150.385 212.375 149.906 212.963 149.906C213.551 149.906 214.028 150.385 214.028 150.976Z" fill="#707070"/>
<path d="M228.935 165.967C228.935 166.558 228.458 167.038 227.87 167.038C227.282 167.038 226.806 166.558 226.806 165.967C226.806 165.376 227.282 164.896 227.87 164.896C228.458 164.896 228.935 165.376 228.935 165.967Z" fill="#707070"/>
<path d="M228.935 150.976C228.935 151.568 228.458 152.047 227.87 152.047C227.282 152.047 226.806 151.568 226.806 150.976C226.806 150.385 227.282 149.906 227.87 149.906C228.458 149.906 228.935 150.385 228.935 150.976Z" fill="#707070"/>
<path d="M215.093 135.986C215.093 136.577 214.616 137.057 214.028 137.057C213.44 137.057 212.963 136.577 212.963 135.986C212.963 135.395 213.44 134.915 214.028 134.915C214.616 134.915 215.093 135.395 215.093 135.986Z" fill="#707070"/>
<path d="M215.093 120.995C215.093 121.587 214.616 122.066 214.028 122.066C213.44 122.066 212.963 121.587 212.963 120.995C212.963 120.404 213.44 119.925 214.028 119.925C214.616 119.925 215.093 120.404 215.093 120.995Z" fill="#707070"/>
<path d="M230 135.986C230 136.577 229.523 137.057 228.935 137.057C228.347 137.057 227.87 136.577 227.87 135.986C227.87 135.395 228.347 134.915 228.935 134.915C229.523 134.915 230 135.395 230 135.986Z" fill="#707070"/>
<path d="M230 120.995C230 121.587 229.523 122.066 228.935 122.066C228.347 122.066 227.87 121.587 227.87 120.995C227.87 120.404 228.347 119.925 228.935 119.925C229.523 119.925 230 120.404 230 120.995Z" fill="#707070"/>
<path d="M184.213 135.986C184.213 136.577 183.736 137.057 183.148 137.057C182.56 137.057 182.083 136.577 182.083 135.986C182.083 135.395 182.56 134.915 183.148 134.915C183.736 134.915 184.213 135.395 184.213 135.986Z" fill="#707070"/>
<path d="M184.213 120.995C184.213 121.587 183.736 122.066 183.148 122.066C182.56 122.066 182.083 121.587 182.083 120.995C182.083 120.404 182.56 119.925 183.148 119.925C183.736 119.925 184.213 120.404 184.213 120.995Z" fill="#707070"/>
<path d="M199.12 135.986C199.12 136.577 198.644 137.057 198.056 137.057C197.467 137.057 196.991 136.577 196.991 135.986C196.991 135.395 197.467 134.915 198.056 134.915C198.644 134.915 199.12 135.395 199.12 135.986Z" fill="#707070"/>
<path d="M199.12 120.995C199.12 121.587 198.644 122.066 198.056 122.066C197.467 122.066 196.991 121.587 196.991 120.995C196.991 120.404 197.467 119.925 198.056 119.925C198.644 119.925 199.12 120.404 199.12 120.995Z" fill="#707070"/>
<path d="M62.8241 106.005C62.8241 106.596 62.3473 107.075 61.7593 107.075C61.1712 107.075 60.6944 106.596 60.6944 106.005C60.6944 105.413 61.1712 104.934 61.7593 104.934C62.3473 104.934 62.8241 105.413 62.8241 106.005Z" fill="#707070"/>
<path d="M62.8241 91.0142C62.8241 91.6055 62.3473 92.0849 61.7593 92.0849C61.1712 92.0849 60.6944 91.6055 60.6944 91.0142C60.6944 90.4228 61.1712 89.9434 61.7593 89.9434C62.3473 89.9434 62.8241 90.4228 62.8241 91.0142Z" fill="#707070"/>
<path d="M77.7315 106.005C77.7315 106.596 77.2547 107.075 76.6667 107.075C76.0786 107.075 75.6019 106.596 75.6019 106.005C75.6019 105.413 76.0786 104.934 76.6667 104.934C77.2547 104.934 77.7315 105.413 77.7315 106.005Z" fill="#707070"/>
<path d="M77.7315 91.0142C77.7315 91.6055 77.2547 92.0849 76.6667 92.0849C76.0786 92.0849 75.6019 91.6055 75.6019 91.0142C75.6019 90.4228 76.0786 89.9434 76.6667 89.9434C77.2547 89.9434 77.7315 90.4228 77.7315 91.0142Z" fill="#707070"/>
<path d="M92.6389 106.005C92.6389 106.596 92.1622 107.075 91.5741 107.075C90.986 107.075 90.5093 106.596 90.5093 106.005C90.5093 105.413 90.986 104.934 91.5741 104.934C92.1622 104.934 92.6389 105.413 92.6389 106.005Z" fill="#707070"/>
<path d="M92.6389 91.0142C92.6389 91.6055 92.1622 92.0849 91.5741 92.0849C90.986 92.0849 90.5093 91.6055 90.5093 91.0142C90.5093 90.4228 90.986 89.9434 91.5741 89.9434C92.1622 89.9434 92.6389 90.4228 92.6389 91.0142Z" fill="#707070"/>
<path d="M107.546 106.005C107.546 106.596 107.07 107.075 106.481 107.075C105.893 107.075 105.417 106.596 105.417 106.005C105.417 105.413 105.893 104.934 106.481 104.934C107.07 104.934 107.546 105.413 107.546 106.005Z" fill="#707070"/>
<path d="M107.546 91.0142C107.546 91.6055 107.07 92.0849 106.481 92.0849C105.893 92.0849 105.417 91.6055 105.417 91.0142C105.417 90.4228 105.893 89.9434 106.481 89.9434C107.07 89.9434 107.546 90.4228 107.546 91.0142Z" fill="#707070"/>
<path d="M93.7037 76.0236C93.7037 76.615 93.227 77.0943 92.6389 77.0943C92.0508 77.0943 91.5741 76.615 91.5741 76.0236C91.5741 75.4322 92.0508 74.9528 92.6389 74.9528C93.227 74.9528 93.7037 75.4322 93.7037 76.0236Z" fill="#707070"/>
<path d="M93.7037 61.033C93.7037 61.6244 93.227 62.1038 92.6389 62.1038C92.0508 62.1038 91.5741 61.6244 91.5741 61.033C91.5741 60.4417 92.0508 59.9623 92.6389 59.9623C93.227 59.9623 93.7037 60.4417 93.7037 61.033Z" fill="#707070"/>
<path d="M108.611 76.0236C108.611 76.615 108.134 77.0943 107.546 77.0943C106.958 77.0943 106.481 76.615 106.481 76.0236C106.481 75.4322 106.958 74.9528 107.546 74.9528C108.134 74.9528 108.611 75.4322 108.611 76.0236Z" fill="#707070"/>
<path d="M108.611 61.033C108.611 61.6244 108.134 62.1038 107.546 62.1038C106.958 62.1038 106.481 61.6244 106.481 61.033C106.481 60.4417 106.958 59.9623 107.546 59.9623C108.134 59.9623 108.611 60.4417 108.611 61.033Z" fill="#707070"/>
<path d="M62.8241 76.0236C62.8241 76.615 62.3473 77.0943 61.7593 77.0943C61.1712 77.0943 60.6944 76.615 60.6944 76.0236C60.6944 75.4322 61.1712 74.9528 61.7593 74.9528C62.3473 74.9528 62.8241 75.4322 62.8241 76.0236Z" fill="#707070"/>
<path d="M62.8241 61.033C62.8241 61.6244 62.3473 62.1038 61.7593 62.1038C61.1712 62.1038 60.6944 61.6244 60.6944 61.033C60.6944 60.4417 61.1712 59.9623 61.7593 59.9623C62.3473 59.9623 62.8241 60.4417 62.8241 61.033Z" fill="#707070"/>
<path d="M77.7315 76.0236C77.7315 76.615 77.2547 77.0943 76.6667 77.0943C76.0786 77.0943 75.6019 76.615 75.6019 76.0236C75.6019 75.4322 76.0786 74.9528 76.6667 74.9528C77.2547 74.9528 77.7315 75.4322 77.7315 76.0236Z" fill="#707070"/>
<path d="M77.7315 61.033C77.7315 61.6244 77.2547 62.1038 76.6667 62.1038C76.0786 62.1038 75.6019 61.6244 75.6019 61.033C75.6019 60.4417 76.0786 59.9623 76.6667 59.9623C77.2547 59.9623 77.7315 60.4417 77.7315 61.033Z" fill="#707070"/>
<path d="M2.12963 106.005C2.12963 106.596 1.6529 107.075 1.06481 107.075C0.476734 107.075 0 106.596 0 106.005C0 105.413 0.476734 104.934 1.06481 104.934C1.6529 104.934 2.12963 105.413 2.12963 106.005Z" fill="#707070"/>
<path d="M2.12963 91.0142C2.12963 91.6055 1.6529 92.0849 1.06481 92.0849C0.476734 92.0849 0 91.6055 0 91.0142C0 90.4228 0.476734 89.9434 1.06481 89.9434C1.6529 89.9434 2.12963 90.4228 2.12963 91.0142Z" fill="#707070"/>
<path d="M17.037 106.005C17.037 106.596 16.5603 107.075 15.9722 107.075C15.3841 107.075 14.9074 106.596 14.9074 106.005C14.9074 105.413 15.3841 104.934 15.9722 104.934C16.5603 104.934 17.037 105.413 17.037 106.005Z" fill="#707070"/>
<path d="M17.037 91.0142C17.037 91.6055 16.5603 92.0849 15.9722 92.0849C15.3841 92.0849 14.9074 91.6055 14.9074 91.0142C14.9074 90.4228 15.3841 89.9434 15.9722 89.9434C16.5603 89.9434 17.037 90.4228 17.037 91.0142Z" fill="#707070"/>
<path d="M31.9444 106.005C31.9444 106.596 31.4677 107.075 30.8796 107.075C30.2915 107.075 29.8148 106.596 29.8148 106.005C29.8148 105.413 30.2915 104.934 30.8796 104.934C31.4677 104.934 31.9444 105.413 31.9444 106.005Z" fill="#707070"/>
<path d="M31.9444 91.0142C31.9444 91.6055 31.4677 92.0849 30.8796 92.0849C30.2915 92.0849 29.8148 91.6055 29.8148 91.0142C29.8148 90.4228 30.2915 89.9434 30.8796 89.9434C31.4677 89.9434 31.9444 90.4228 31.9444 91.0142Z" fill="#707070"/>
<path d="M46.8519 106.005C46.8519 106.596 46.3751 107.075 45.787 107.075C45.199 107.075 44.7222 106.596 44.7222 106.005C44.7222 105.413 45.199 104.934 45.787 104.934C46.3751 104.934 46.8519 105.413 46.8519 106.005Z" fill="#707070"/>
<path d="M46.8519 91.0142C46.8519 91.6055 46.3751 92.0849 45.787 92.0849C45.199 92.0849 44.7222 91.6055 44.7222 91.0142C44.7222 90.4228 45.199 89.9434 45.787 89.9434C46.3751 89.9434 46.8519 90.4228 46.8519 91.0142Z" fill="#707070"/>
<path d="M33.0093 76.0236C33.0093 76.615 32.5325 77.0943 31.9444 77.0943C31.3564 77.0943 30.8796 76.615 30.8796 76.0236C30.8796 75.4322 31.3564 74.9528 31.9444 74.9528C32.5325 74.9528 33.0093 75.4322 33.0093 76.0236Z" fill="#707070"/>
<path d="M33.0093 61.033C33.0093 61.6244 32.5325 62.1038 31.9444 62.1038C31.3564 62.1038 30.8796 61.6244 30.8796 61.033C30.8796 60.4417 31.3564 59.9623 31.9444 59.9623C32.5325 59.9623 33.0093 60.4417 33.0093 61.033Z" fill="#707070"/>
<path d="M47.9167 76.0236C47.9167 76.615 47.4399 77.0943 46.8519 77.0943C46.2638 77.0943 45.787 76.615 45.787 76.0236C45.787 75.4322 46.2638 74.9528 46.8519 74.9528C47.4399 74.9528 47.9167 75.4322 47.9167 76.0236Z" fill="#707070"/>
<path d="M47.9167 61.033C47.9167 61.6244 47.4399 62.1038 46.8519 62.1038C46.2638 62.1038 45.787 61.6244 45.787 61.033C45.787 60.4417 46.2638 59.9623 46.8519 59.9623C47.4399 59.9623 47.9167 60.4417 47.9167 61.033Z" fill="#707070"/>
<path d="M2.12963 76.0236C2.12963 76.615 1.6529 77.0943 1.06481 77.0943C0.476734 77.0943 0 76.615 0 76.0236C0 75.4322 0.476734 74.9528 1.06481 74.9528C1.6529 74.9528 2.12963 75.4322 2.12963 76.0236Z" fill="#707070"/>
<path d="M2.12963 61.033C2.12963 61.6244 1.6529 62.1038 1.06481 62.1038C0.476734 62.1038 0 61.6244 0 61.033C0 60.4417 0.476734 59.9623 1.06481 59.9623C1.6529 59.9623 2.12963 60.4417 2.12963 61.033Z" fill="#707070"/>
<path d="M17.037 76.0236C17.037 76.615 16.5603 77.0943 15.9722 77.0943C15.3841 77.0943 14.9074 76.615 14.9074 76.0236C14.9074 75.4322 15.3841 74.9528 15.9722 74.9528C16.5603 74.9528 17.037 75.4322 17.037 76.0236Z" fill="#707070"/>
<path d="M17.037 61.033C17.037 61.6244 16.5603 62.1038 15.9722 62.1038C15.3841 62.1038 14.9074 61.6244 14.9074 61.033C14.9074 60.4417 15.3841 59.9623 15.9722 59.9623C16.5603 59.9623 17.037 60.4417 17.037 61.033Z" fill="#707070"/>
<path d="M2.12963 46.0425C2.12963 46.6338 1.6529 47.1132 1.06481 47.1132C0.476734 47.1132 0 46.6338 0 46.0425C0 45.4511 0.476734 44.9717 1.06481 44.9717C1.6529 44.9717 2.12963 45.4511 2.12963 46.0425Z" fill="#707070"/>
<path d="M2.12963 31.0519C2.12963 31.6432 1.6529 32.1226 1.06481 32.1226C0.476734 32.1226 0 31.6432 0 31.0519C0 30.4605 0.476734 29.9811 1.06481 29.9811C1.6529 29.9811 2.12963 30.4605 2.12963 31.0519Z" fill="#707070"/>
<path d="M17.037 46.0425C17.037 46.6338 16.5603 47.1132 15.9722 47.1132C15.3841 47.1132 14.9074 46.6338 14.9074 46.0425C14.9074 45.4511 15.3841 44.9717 15.9722 44.9717C16.5603 44.9717 17.037 45.4511 17.037 46.0425Z" fill="#707070"/>
<path d="M17.037 31.0519C17.037 31.6432 16.5603 32.1226 15.9722 32.1226C15.3841 32.1226 14.9074 31.6432 14.9074 31.0519C14.9074 30.4605 15.3841 29.9811 15.9722 29.9811C16.5603 29.9811 17.037 30.4605 17.037 31.0519Z" fill="#707070"/>
<path d="M31.9444 46.0425C31.9444 46.6338 31.4677 47.1132 30.8796 47.1132C30.2915 47.1132 29.8148 46.6338 29.8148 46.0425C29.8148 45.4511 30.2915 44.9717 30.8796 44.9717C31.4677 44.9717 31.9444 45.4511 31.9444 46.0425Z" fill="#707070"/>
<path d="M31.9444 31.0519C31.9444 31.6432 31.4677 32.1226 30.8796 32.1226C30.2915 32.1226 29.8148 31.6432 29.8148 31.0519C29.8148 30.4605 30.2915 29.9811 30.8796 29.9811C31.4677 29.9811 31.9444 30.4605 31.9444 31.0519Z" fill="#707070"/>
<path d="M46.8519 46.0425C46.8519 46.6338 46.3751 47.1132 45.787 47.1132C45.199 47.1132 44.7222 46.6338 44.7222 46.0425C44.7222 45.4511 45.199 44.9717 45.787 44.9717C46.3751 44.9717 46.8519 45.4511 46.8519 46.0425Z" fill="#707070"/>
<path d="M46.8519 31.0519C46.8519 31.6432 46.3751 32.1226 45.787 32.1226C45.199 32.1226 44.7222 31.6432 44.7222 31.0519C44.7222 30.4605 45.199 29.9811 45.787 29.9811C46.3751 29.9811 46.8519 30.4605 46.8519 31.0519Z" fill="#707070"/>
<path d="M33.0093 16.0613C33.0093 16.6527 32.5325 17.1321 31.9444 17.1321C31.3564 17.1321 30.8796 16.6527 30.8796 16.0613C30.8796 15.47 31.3564 14.9906 31.9444 14.9906C32.5325 14.9906 33.0093 15.47 33.0093 16.0613Z" fill="#707070"/>
<path d="M33.0093 1.07075C33.0093 1.66212 32.5325 2.14151 31.9444 2.14151C31.3564 2.14151 30.8796 1.66212 30.8796 1.07075C30.8796 0.479393 31.3564 0 31.9444 0C32.5325 0 33.0093 0.479393 33.0093 1.07075Z" fill="#707070"/>
<path d="M47.9167 16.0613C47.9167 16.6527 47.4399 17.1321 46.8519 17.1321C46.2638 17.1321 45.787 16.6527 45.787 16.0613C45.787 15.47 46.2638 14.9906 46.8519 14.9906C47.4399 14.9906 47.9167 15.47 47.9167 16.0613Z" fill="#707070"/>
<path d="M47.9167 1.07075C47.9167 1.66212 47.4399 2.14151 46.8519 2.14151C46.2638 2.14151 45.787 1.66212 45.787 1.07075C45.787 0.479393 46.2638 0 46.8519 0C47.4399 0 47.9167 0.479393 47.9167 1.07075Z" fill="#707070"/>
<path d="M2.12963 16.0613C2.12963 16.6527 1.6529 17.1321 1.06481 17.1321C0.476734 17.1321 0 16.6527 0 16.0613C0 15.47 0.476734 14.9906 1.06481 14.9906C1.6529 14.9906 2.12963 15.47 2.12963 16.0613Z" fill="#707070"/>
<path d="M2.12963 1.07075C2.12963 1.66212 1.6529 2.14151 1.06481 2.14151C0.476734 2.14151 0 1.66212 0 1.07075C0 0.479393 0.476734 0 1.06481 0C1.6529 0 2.12963 0.479393 2.12963 1.07075Z" fill="#707070"/>
<path d="M17.037 16.0613C17.037 16.6527 16.5603 17.1321 15.9722 17.1321C15.3841 17.1321 14.9074 16.6527 14.9074 16.0613C14.9074 15.47 15.3841 14.9906 15.9722 14.9906C16.5603 14.9906 17.037 15.47 17.037 16.0613Z" fill="#707070"/>
<path d="M17.037 1.07075C17.037 1.66212 16.5603 2.14151 15.9722 2.14151C15.3841 2.14151 14.9074 1.66212 14.9074 1.07075C14.9074 0.479393 15.3841 0 15.9722 0C16.5603 0 17.037 0.479393 17.037 1.07075Z" fill="#707070"/>
<path d="M62.8241 46.0425C62.8241 46.6338 62.3473 47.1132 61.7593 47.1132C61.1712 47.1132 60.6944 46.6338 60.6944 46.0425C60.6944 45.4511 61.1712 44.9717 61.7593 44.9717C62.3473 44.9717 62.8241 45.4511 62.8241 46.0425Z" fill="#707070"/>
<path d="M62.8241 31.0519C62.8241 31.6432 62.3473 32.1226 61.7593 32.1226C61.1712 32.1226 60.6944 31.6432 60.6944 31.0519C60.6944 30.4605 61.1712 29.9811 61.7593 29.9811C62.3473 29.9811 62.8241 30.4605 62.8241 31.0519Z" fill="#707070"/>
<path d="M77.7315 46.0425C77.7315 46.6338 77.2547 47.1132 76.6667 47.1132C76.0786 47.1132 75.6019 46.6338 75.6019 46.0425C75.6019 45.4511 76.0786 44.9717 76.6667 44.9717C77.2547 44.9717 77.7315 45.4511 77.7315 46.0425Z" fill="#707070"/>
<path d="M77.7315 31.0519C77.7315 31.6432 77.2547 32.1226 76.6667 32.1226C76.0786 32.1226 75.6019 31.6432 75.6019 31.0519C75.6019 30.4605 76.0786 29.9811 76.6667 29.9811C77.2547 29.9811 77.7315 30.4605 77.7315 31.0519Z" fill="#707070"/>
<path d="M92.6389 46.0425C92.6389 46.6338 92.1622 47.1132 91.5741 47.1132C90.986 47.1132 90.5093 46.6338 90.5093 46.0425C90.5093 45.4511 90.986 44.9717 91.5741 44.9717C92.1622 44.9717 92.6389 45.4511 92.6389 46.0425Z" fill="#707070"/>
<path d="M92.6389 31.0519C92.6389 31.6432 92.1622 32.1226 91.5741 32.1226C90.986 32.1226 90.5093 31.6432 90.5093 31.0519C90.5093 30.4605 90.986 29.9811 91.5741 29.9811C92.1622 29.9811 92.6389 30.4605 92.6389 31.0519Z" fill="#707070"/>
<path d="M107.546 46.0425C107.546 46.6338 107.07 47.1132 106.481 47.1132C105.893 47.1132 105.417 46.6338 105.417 46.0425C105.417 45.4511 105.893 44.9717 106.481 44.9717C107.07 44.9717 107.546 45.4511 107.546 46.0425Z" fill="#707070"/>
<path d="M107.546 31.0519C107.546 31.6432 107.07 32.1226 106.481 32.1226C105.893 32.1226 105.417 31.6432 105.417 31.0519C105.417 30.4605 105.893 29.9811 106.481 29.9811C107.07 29.9811 107.546 30.4605 107.546 31.0519Z" fill="#707070"/>
<path d="M93.7037 16.0613C93.7037 16.6527 93.227 17.1321 92.6389 17.1321C92.0508 17.1321 91.5741 16.6527 91.5741 16.0613C91.5741 15.47 92.0508 14.9906 92.6389 14.9906C93.227 14.9906 93.7037 15.47 93.7037 16.0613Z" fill="#707070"/>
<path d="M93.7037 1.07075C93.7037 1.66212 93.227 2.14151 92.6389 2.14151C92.0508 2.14151 91.5741 1.66212 91.5741 1.07075C91.5741 0.479393 92.0508 0 92.6389 0C93.227 0 93.7037 0.479393 93.7037 1.07075Z" fill="#707070"/>
<path d="M108.611 16.0613C108.611 16.6527 108.134 17.1321 107.546 17.1321C106.958 17.1321 106.481 16.6527 106.481 16.0613C106.481 15.47 106.958 14.9906 107.546 14.9906C108.134 14.9906 108.611 15.47 108.611 16.0613Z" fill="#707070"/>
<path d="M108.611 1.07075C108.611 1.66212 108.134 2.14151 107.546 2.14151C106.958 2.14151 106.481 1.66212 106.481 1.07075C106.481 0.479393 106.958 0 107.546 0C108.134 0 108.611 0.479393 108.611 1.07075Z" fill="#707070"/>
<path d="M62.8241 16.0613C62.8241 16.6527 62.3473 17.1321 61.7593 17.1321C61.1712 17.1321 60.6944 16.6527 60.6944 16.0613C60.6944 15.47 61.1712 14.9906 61.7593 14.9906C62.3473 14.9906 62.8241 15.47 62.8241 16.0613Z" fill="#707070"/>
<path d="M62.8241 1.07075C62.8241 1.66212 62.3473 2.14151 61.7593 2.14151C61.1712 2.14151 60.6944 1.66212 60.6944 1.07075C60.6944 0.479393 61.1712 0 61.7593 0C62.3473 0 62.8241 0.479393 62.8241 1.07075Z" fill="#707070"/>
<path d="M77.7315 16.0613C77.7315 16.6527 77.2547 17.1321 76.6667 17.1321C76.0786 17.1321 75.6019 16.6527 75.6019 16.0613C75.6019 15.47 76.0786 14.9906 76.6667 14.9906C77.2547 14.9906 77.7315 15.47 77.7315 16.0613Z" fill="#707070"/>
<path d="M77.7315 1.07075C77.7315 1.66212 77.2547 2.14151 76.6667 2.14151C76.0786 2.14151 75.6019 1.66212 75.6019 1.07075C75.6019 0.479393 76.0786 0 76.6667 0C77.2547 0 77.7315 0.479393 77.7315 1.07075Z" fill="#707070"/>
<path d="M184.213 106.005C184.213 106.596 183.736 107.075 183.148 107.075C182.56 107.075 182.083 106.596 182.083 106.005C182.083 105.413 182.56 104.934 183.148 104.934C183.736 104.934 184.213 105.413 184.213 106.005Z" fill="#707070"/>
<path d="M184.213 91.0142C184.213 91.6055 183.736 92.0849 183.148 92.0849C182.56 92.0849 182.083 91.6055 182.083 91.0142C182.083 90.4228 182.56 89.9434 183.148 89.9434C183.736 89.9434 184.213 90.4228 184.213 91.0142Z" fill="#707070"/>
<path d="M199.12 106.005C199.12 106.596 198.644 107.075 198.056 107.075C197.467 107.075 196.991 106.596 196.991 106.005C196.991 105.413 197.467 104.934 198.056 104.934C198.644 104.934 199.12 105.413 199.12 106.005Z" fill="#707070"/>
<path d="M199.12 91.0142C199.12 91.6055 198.644 92.0849 198.056 92.0849C197.467 92.0849 196.991 91.6055 196.991 91.0142C196.991 90.4228 197.467 89.9434 198.056 89.9434C198.644 89.9434 199.12 90.4228 199.12 91.0142Z" fill="#707070"/>
<path d="M214.028 106.005C214.028 106.596 213.551 107.075 212.963 107.075C212.375 107.075 211.898 106.596 211.898 106.005C211.898 105.413 212.375 104.934 212.963 104.934C213.551 104.934 214.028 105.413 214.028 106.005Z" fill="#707070"/>
<path d="M214.028 91.0142C214.028 91.6055 213.551 92.0849 212.963 92.0849C212.375 92.0849 211.898 91.6055 211.898 91.0142C211.898 90.4228 212.375 89.9434 212.963 89.9434C213.551 89.9434 214.028 90.4228 214.028 91.0142Z" fill="#707070"/>
<path d="M228.935 106.005C228.935 106.596 228.458 107.075 227.87 107.075C227.282 107.075 226.806 106.596 226.806 106.005C226.806 105.413 227.282 104.934 227.87 104.934C228.458 104.934 228.935 105.413 228.935 106.005Z" fill="#707070"/>
<path d="M228.935 91.0142C228.935 91.6055 228.458 92.0849 227.87 92.0849C227.282 92.0849 226.806 91.6055 226.806 91.0142C226.806 90.4228 227.282 89.9434 227.87 89.9434C228.458 89.9434 228.935 90.4228 228.935 91.0142Z" fill="#707070"/>
<path d="M215.093 76.0236C215.093 76.615 214.616 77.0943 214.028 77.0943C213.44 77.0943 212.963 76.615 212.963 76.0236C212.963 75.4322 213.44 74.9528 214.028 74.9528C214.616 74.9528 215.093 75.4322 215.093 76.0236Z" fill="#707070"/>
<path d="M215.093 61.033C215.093 61.6244 214.616 62.1038 214.028 62.1038C213.44 62.1038 212.963 61.6244 212.963 61.033C212.963 60.4417 213.44 59.9623 214.028 59.9623C214.616 59.9623 215.093 60.4417 215.093 61.033Z" fill="#707070"/>
<path d="M230 76.0236C230 76.615 229.523 77.0943 228.935 77.0943C228.347 77.0943 227.87 76.615 227.87 76.0236C227.87 75.4322 228.347 74.9528 228.935 74.9528C229.523 74.9528 230 75.4322 230 76.0236Z" fill="#707070"/>
<path d="M230 61.033C230 61.6244 229.523 62.1038 228.935 62.1038C228.347 62.1038 227.87 61.6244 227.87 61.033C227.87 60.4417 228.347 59.9623 228.935 59.9623C229.523 59.9623 230 60.4417 230 61.033Z" fill="#707070"/>
<path d="M184.213 76.0236C184.213 76.615 183.736 77.0943 183.148 77.0943C182.56 77.0943 182.083 76.615 182.083 76.0236C182.083 75.4322 182.56 74.9528 183.148 74.9528C183.736 74.9528 184.213 75.4322 184.213 76.0236Z" fill="#707070"/>
<path d="M184.213 61.033C184.213 61.6244 183.736 62.1038 183.148 62.1038C182.56 62.1038 182.083 61.6244 182.083 61.033C182.083 60.4417 182.56 59.9623 183.148 59.9623C183.736 59.9623 184.213 60.4417 184.213 61.033Z" fill="#707070"/>
<path d="M199.12 76.0236C199.12 76.615 198.644 77.0943 198.056 77.0943C197.467 77.0943 196.991 76.615 196.991 76.0236C196.991 75.4322 197.467 74.9528 198.056 74.9528C198.644 74.9528 199.12 75.4322 199.12 76.0236Z" fill="#707070"/>
<path d="M199.12 61.033C199.12 61.6244 198.644 62.1038 198.056 62.1038C197.467 62.1038 196.991 61.6244 196.991 61.033C196.991 60.4417 197.467 59.9623 198.056 59.9623C198.644 59.9623 199.12 60.4417 199.12 61.033Z" fill="#707070"/>
<path d="M123.519 106.005C123.519 106.596 123.042 107.075 122.454 107.075C121.866 107.075 121.389 106.596 121.389 106.005C121.389 105.413 121.866 104.934 122.454 104.934C123.042 104.934 123.519 105.413 123.519 106.005Z" fill="#707070"/>
<path d="M123.519 91.0142C123.519 91.6055 123.042 92.0849 122.454 92.0849C121.866 92.0849 121.389 91.6055 121.389 91.0142C121.389 90.4228 121.866 89.9434 122.454 89.9434C123.042 89.9434 123.519 90.4228 123.519 91.0142Z" fill="#707070"/>
<path d="M138.426 106.005C138.426 106.596 137.949 107.075 137.361 107.075C136.773 107.075 136.296 106.596 136.296 106.005C136.296 105.413 136.773 104.934 137.361 104.934C137.949 104.934 138.426 105.413 138.426 106.005Z" fill="#707070"/>
<path d="M138.426 91.0142C138.426 91.6055 137.949 92.0849 137.361 92.0849C136.773 92.0849 136.296 91.6055 136.296 91.0142C136.296 90.4228 136.773 89.9434 137.361 89.9434C137.949 89.9434 138.426 90.4228 138.426 91.0142Z" fill="#707070"/>
<path d="M153.333 106.005C153.333 106.596 152.857 107.075 152.269 107.075C151.68 107.075 151.204 106.596 151.204 106.005C151.204 105.413 151.68 104.934 152.269 104.934C152.857 104.934 153.333 105.413 153.333 106.005Z" fill="#707070"/>
<path d="M153.333 91.0142C153.333 91.6055 152.857 92.0849 152.269 92.0849C151.68 92.0849 151.204 91.6055 151.204 91.0142C151.204 90.4228 151.68 89.9434 152.269 89.9434C152.857 89.9434 153.333 90.4228 153.333 91.0142Z" fill="#707070"/>
<path d="M168.241 106.005C168.241 106.596 167.764 107.075 167.176 107.075C166.588 107.075 166.111 106.596 166.111 106.005C166.111 105.413 166.588 104.934 167.176 104.934C167.764 104.934 168.241 105.413 168.241 106.005Z" fill="#707070"/>
<path d="M168.241 91.0142C168.241 91.6055 167.764 92.0849 167.176 92.0849C166.588 92.0849 166.111 91.6055 166.111 91.0142C166.111 90.4228 166.588 89.9434 167.176 89.9434C167.764 89.9434 168.241 90.4228 168.241 91.0142Z" fill="#707070"/>
<path d="M154.398 76.0236C154.398 76.615 153.921 77.0943 153.333 77.0943C152.745 77.0943 152.269 76.615 152.269 76.0236C152.269 75.4322 152.745 74.9528 153.333 74.9528C153.921 74.9528 154.398 75.4322 154.398 76.0236Z" fill="#707070"/>
<path d="M154.398 61.033C154.398 61.6244 153.921 62.1038 153.333 62.1038C152.745 62.1038 152.269 61.6244 152.269 61.033C152.269 60.4417 152.745 59.9623 153.333 59.9623C153.921 59.9623 154.398 60.4417 154.398 61.033Z" fill="#707070"/>
<path d="M169.306 76.0236C169.306 76.615 168.829 77.0943 168.241 77.0943C167.653 77.0943 167.176 76.615 167.176 76.0236C167.176 75.4322 167.653 74.9528 168.241 74.9528C168.829 74.9528 169.306 75.4322 169.306 76.0236Z" fill="#707070"/>
<path d="M169.306 61.033C169.306 61.6244 168.829 62.1038 168.241 62.1038C167.653 62.1038 167.176 61.6244 167.176 61.033C167.176 60.4417 167.653 59.9623 168.241 59.9623C168.829 59.9623 169.306 60.4417 169.306 61.033Z" fill="#707070"/>
<path d="M123.519 76.0236C123.519 76.615 123.042 77.0943 122.454 77.0943C121.866 77.0943 121.389 76.615 121.389 76.0236C121.389 75.4322 121.866 74.9528 122.454 74.9528C123.042 74.9528 123.519 75.4322 123.519 76.0236Z" fill="#707070"/>
<path d="M123.519 61.033C123.519 61.6244 123.042 62.1038 122.454 62.1038C121.866 62.1038 121.389 61.6244 121.389 61.033C121.389 60.4417 121.866 59.9623 122.454 59.9623C123.042 59.9623 123.519 60.4417 123.519 61.033Z" fill="#707070"/>
<path d="M138.426 76.0236C138.426 76.615 137.949 77.0943 137.361 77.0943C136.773 77.0943 136.296 76.615 136.296 76.0236C136.296 75.4322 136.773 74.9528 137.361 74.9528C137.949 74.9528 138.426 75.4322 138.426 76.0236Z" fill="#707070"/>
<path d="M138.426 61.033C138.426 61.6244 137.949 62.1038 137.361 62.1038C136.773 62.1038 136.296 61.6244 136.296 61.033C136.296 60.4417 136.773 59.9623 137.361 59.9623C137.949 59.9623 138.426 60.4417 138.426 61.033Z" fill="#707070"/>
<path d="M123.519 46.0425C123.519 46.6338 123.042 47.1132 122.454 47.1132C121.866 47.1132 121.389 46.6338 121.389 46.0425C121.389 45.4511 121.866 44.9717 122.454 44.9717C123.042 44.9717 123.519 45.4511 123.519 46.0425Z" fill="#707070"/>
<path d="M123.519 31.0519C123.519 31.6432 123.042 32.1226 122.454 32.1226C121.866 32.1226 121.389 31.6432 121.389 31.0519C121.389 30.4605 121.866 29.9811 122.454 29.9811C123.042 29.9811 123.519 30.4605 123.519 31.0519Z" fill="#707070"/>
<path d="M138.426 46.0425C138.426 46.6338 137.949 47.1132 137.361 47.1132C136.773 47.1132 136.296 46.6338 136.296 46.0425C136.296 45.4511 136.773 44.9717 137.361 44.9717C137.949 44.9717 138.426 45.4511 138.426 46.0425Z" fill="#707070"/>
<path d="M138.426 31.0519C138.426 31.6432 137.949 32.1226 137.361 32.1226C136.773 32.1226 136.296 31.6432 136.296 31.0519C136.296 30.4605 136.773 29.9811 137.361 29.9811C137.949 29.9811 138.426 30.4605 138.426 31.0519Z" fill="#707070"/>
<path d="M153.333 46.0425C153.333 46.6338 152.857 47.1132 152.269 47.1132C151.68 47.1132 151.204 46.6338 151.204 46.0425C151.204 45.4511 151.68 44.9717 152.269 44.9717C152.857 44.9717 153.333 45.4511 153.333 46.0425Z" fill="#707070"/>
<path d="M153.333 31.0519C153.333 31.6432 152.857 32.1226 152.269 32.1226C151.68 32.1226 151.204 31.6432 151.204 31.0519C151.204 30.4605 151.68 29.9811 152.269 29.9811C152.857 29.9811 153.333 30.4605 153.333 31.0519Z" fill="#707070"/>
<path d="M168.241 46.0425C168.241 46.6338 167.764 47.1132 167.176 47.1132C166.588 47.1132 166.111 46.6338 166.111 46.0425C166.111 45.4511 166.588 44.9717 167.176 44.9717C167.764 44.9717 168.241 45.4511 168.241 46.0425Z" fill="#707070"/>
<path d="M168.241 31.0519C168.241 31.6432 167.764 32.1226 167.176 32.1226C166.588 32.1226 166.111 31.6432 166.111 31.0519C166.111 30.4605 166.588 29.9811 167.176 29.9811C167.764 29.9811 168.241 30.4605 168.241 31.0519Z" fill="#707070"/>
<path d="M154.398 16.0613C154.398 16.6527 153.921 17.1321 153.333 17.1321C152.745 17.1321 152.269 16.6527 152.269 16.0613C152.269 15.47 152.745 14.9906 153.333 14.9906C153.921 14.9906 154.398 15.47 154.398 16.0613Z" fill="#707070"/>
<path d="M154.398 1.07075C154.398 1.66212 153.921 2.14151 153.333 2.14151C152.745 2.14151 152.269 1.66212 152.269 1.07075C152.269 0.479393 152.745 0 153.333 0C153.921 0 154.398 0.479393 154.398 1.07075Z" fill="#707070"/>
<path d="M169.306 16.0613C169.306 16.6527 168.829 17.1321 168.241 17.1321C167.653 17.1321 167.176 16.6527 167.176 16.0613C167.176 15.47 167.653 14.9906 168.241 14.9906C168.829 14.9906 169.306 15.47 169.306 16.0613Z" fill="#707070"/>
<path d="M169.306 1.07075C169.306 1.66212 168.829 2.14151 168.241 2.14151C167.653 2.14151 167.176 1.66212 167.176 1.07075C167.176 0.479393 167.653 0 168.241 0C168.829 0 169.306 0.479393 169.306 1.07075Z" fill="#707070"/>
<path d="M123.519 16.0613C123.519 16.6527 123.042 17.1321 122.454 17.1321C121.866 17.1321 121.389 16.6527 121.389 16.0613C121.389 15.47 121.866 14.9906 122.454 14.9906C123.042 14.9906 123.519 15.47 123.519 16.0613Z" fill="#707070"/>
<path d="M123.519 1.07075C123.519 1.66212 123.042 2.14151 122.454 2.14151C121.866 2.14151 121.389 1.66212 121.389 1.07075C121.389 0.479393 121.866 0 122.454 0C123.042 0 123.519 0.479393 123.519 1.07075Z" fill="#707070"/>
<path d="M138.426 16.0613C138.426 16.6527 137.949 17.1321 137.361 17.1321C136.773 17.1321 136.296 16.6527 136.296 16.0613C136.296 15.47 136.773 14.9906 137.361 14.9906C137.949 14.9906 138.426 15.47 138.426 16.0613Z" fill="#707070"/>
<path d="M138.426 1.07075C138.426 1.66212 137.949 2.14151 137.361 2.14151C136.773 2.14151 136.296 1.66212 136.296 1.07075C136.296 0.479393 136.773 0 137.361 0C137.949 0 138.426 0.479393 138.426 1.07075Z" fill="#707070"/>
<path d="M184.213 46.0425C184.213 46.6338 183.736 47.1132 183.148 47.1132C182.56 47.1132 182.083 46.6338 182.083 46.0425C182.083 45.4511 182.56 44.9717 183.148 44.9717C183.736 44.9717 184.213 45.4511 184.213 46.0425Z" fill="#707070"/>
<path d="M184.213 31.0519C184.213 31.6432 183.736 32.1226 183.148 32.1226C182.56 32.1226 182.083 31.6432 182.083 31.0519C182.083 30.4605 182.56 29.9811 183.148 29.9811C183.736 29.9811 184.213 30.4605 184.213 31.0519Z" fill="#707070"/>
<path d="M199.12 46.0425C199.12 46.6338 198.644 47.1132 198.056 47.1132C197.467 47.1132 196.991 46.6338 196.991 46.0425C196.991 45.4511 197.467 44.9717 198.056 44.9717C198.644 44.9717 199.12 45.4511 199.12 46.0425Z" fill="#707070"/>
<path d="M199.12 31.0519C199.12 31.6432 198.644 32.1226 198.056 32.1226C197.467 32.1226 196.991 31.6432 196.991 31.0519C196.991 30.4605 197.467 29.9811 198.056 29.9811C198.644 29.9811 199.12 30.4605 199.12 31.0519Z" fill="#707070"/>
<path d="M214.028 46.0425C214.028 46.6338 213.551 47.1132 212.963 47.1132C212.375 47.1132 211.898 46.6338 211.898 46.0425C211.898 45.4511 212.375 44.9717 212.963 44.9717C213.551 44.9717 214.028 45.4511 214.028 46.0425Z" fill="#707070"/>
<path d="M214.028 31.0519C214.028 31.6432 213.551 32.1226 212.963 32.1226C212.375 32.1226 211.898 31.6432 211.898 31.0519C211.898 30.4605 212.375 29.9811 212.963 29.9811C213.551 29.9811 214.028 30.4605 214.028 31.0519Z" fill="#707070"/>
<path d="M228.935 46.0425C228.935 46.6338 228.458 47.1132 227.87 47.1132C227.282 47.1132 226.806 46.6338 226.806 46.0425C226.806 45.4511 227.282 44.9717 227.87 44.9717C228.458 44.9717 228.935 45.4511 228.935 46.0425Z" fill="#707070"/>
<path d="M228.935 31.0519C228.935 31.6432 228.458 32.1226 227.87 32.1226C227.282 32.1226 226.806 31.6432 226.806 31.0519C226.806 30.4605 227.282 29.9811 227.87 29.9811C228.458 29.9811 228.935 30.4605 228.935 31.0519Z" fill="#707070"/>
<path d="M215.093 16.0613C215.093 16.6527 214.616 17.1321 214.028 17.1321C213.44 17.1321 212.963 16.6527 212.963 16.0613C212.963 15.47 213.44 14.9906 214.028 14.9906C214.616 14.9906 215.093 15.47 215.093 16.0613Z" fill="#707070"/>
<path d="M215.093 1.07075C215.093 1.66212 214.616 2.14151 214.028 2.14151C213.44 2.14151 212.963 1.66212 212.963 1.07075C212.963 0.479393 213.44 0 214.028 0C214.616 0 215.093 0.479393 215.093 1.07075Z" fill="#707070"/>
<path d="M230 16.0613C230 16.6527 229.523 17.1321 228.935 17.1321C228.347 17.1321 227.87 16.6527 227.87 16.0613C227.87 15.47 228.347 14.9906 228.935 14.9906C229.523 14.9906 230 15.47 230 16.0613Z" fill="#707070"/>
<path d="M230 1.07075C230 1.66212 229.523 2.14151 228.935 2.14151C228.347 2.14151 227.87 1.66212 227.87 1.07075C227.87 0.479393 228.347 0 228.935 0C229.523 0 230 0.479393 230 1.07075Z" fill="#707070"/>
<path d="M184.213 16.0613C184.213 16.6527 183.736 17.1321 183.148 17.1321C182.56 17.1321 182.083 16.6527 182.083 16.0613C182.083 15.47 182.56 14.9906 183.148 14.9906C183.736 14.9906 184.213 15.47 184.213 16.0613Z" fill="#707070"/>
<path d="M184.213 1.07075C184.213 1.66212 183.736 2.14151 183.148 2.14151C182.56 2.14151 182.083 1.66212 182.083 1.07075C182.083 0.479393 182.56 0 183.148 0C183.736 0 184.213 0.479393 184.213 1.07075Z" fill="#707070"/>
<path d="M199.12 16.0613C199.12 16.6527 198.644 17.1321 198.056 17.1321C197.467 17.1321 196.991 16.6527 196.991 16.0613C196.991 15.47 197.467 14.9906 198.056 14.9906C198.644 14.9906 199.12 15.47 199.12 16.0613Z" fill="#707070"/>
<path d="M199.12 1.07075C199.12 1.66212 198.644 2.14151 198.056 2.14151C197.467 2.14151 196.991 1.66212 196.991 1.07075C196.991 0.479393 197.467 0 198.056 0C198.644 0 199.12 0.479393 199.12 1.07075Z" fill="#707070"/>
</svg>
