<svg width="41" height="50" viewBox="0 0 41 50" fill="none" xmlns="http://www.w3.org/2000/svg">
<path d="M25.193 38.6673L14.5934 40.7773C18.6904 31.3144 22.7874 21.8497 26.8843 12.3832L37.2174 10.4961L25.1767 38.6673" fill="#5B76E2"/>
<path d="M37.2586 10.4141C38.2484 14.4023 39.2364 18.3905 40.2226 22.3786L28.3395 49.7775C27.212 46.1228 26.088 42.4683 24.9677 38.8136C29.0682 29.3507 33.1652 19.8877 37.2586 10.4248" fill="#5B76E2"/>
<path d="M11.5946 29.1431L0.630615 31.2804L13.2261 1.91281L23.9344 0.00390625C19.8193 9.72785 15.706 19.45 11.5946 29.1704" fill="#5B76E2"/>
<path d="M23.7441 0C24.7883 4.1441 25.8288 8.28825 26.8658 12.4323L14.6891 40.7775L11.1487 29.3948L23.7441 0Z" fill="#5B76E2"/>
</svg>
