<svg width="40" height="41" viewBox="0 0 40 41" fill="none" xmlns="http://www.w3.org/2000/svg">
<path opacity="0.4" d="M32.0167 10.872C30.2834 7.37199 26.9334 4.78866 23.05 3.93866C18.9834 3.03866 14.8167 4.00532 11.6334 6.57199C8.43337 9.12199 6.6167 12.9387 6.6167 17.022C6.6167 21.3387 9.20003 25.8553 13.1 28.472V29.8553C13.0834 30.322 13.0667 31.0387 13.6334 31.622C14.2167 32.222 15.0834 32.2887 15.7667 32.2887H24.3167C25.2167 32.2887 25.9 32.0387 26.3667 31.572C27 30.922 26.9834 30.0887 26.9667 29.6387V28.472C32.1334 24.9887 35.3834 17.6387 32.0167 10.872Z" fill="#5B76E2"/>
<path d="M25.4334 36.9388C25.3334 36.9388 25.2168 36.9221 25.1168 36.8888C21.7668 35.9388 18.2501 35.9388 14.9001 36.8888C14.2834 37.0555 13.6334 36.7055 13.4668 36.0888C13.2834 35.4721 13.6501 34.8221 14.2668 34.6555C18.0334 33.5888 22.0001 33.5888 25.7668 34.6555C26.3834 34.8388 26.7501 35.4721 26.5668 36.0888C26.4001 36.6055 25.9334 36.9388 25.4334 36.9388Z" fill="#5B76E2"/>
<path d="M20 23.356C19.7833 23.356 19.5667 23.306 19.3833 23.1893C18.7833 22.8393 18.5833 22.0726 18.9167 21.4893L20.3333 19.0226H18.9333C18.1 19.0226 17.4167 18.656 17.05 18.0393C16.6833 17.406 16.7167 16.6393 17.1333 15.906L18.9167 12.806C19.2667 12.206 20.0333 12.006 20.6167 12.3393C21.2167 12.6893 21.4167 13.456 21.0833 14.0393L19.6667 16.5226H21.0667C21.9 16.5226 22.5833 16.8893 22.95 17.506C23.3167 18.1393 23.2833 18.906 22.8667 19.6393L21.0833 22.7393C20.85 23.1393 20.4333 23.356 20 23.356Z" fill="#5B76E2"/>
</svg>
